STARTFONT 2.3
FONT -FontForge-Monofett-Book-R-Normal--24-240-72-72-P-133-ISO10646-1
SIZE 24 72 72  4
FONTBOUNDINGBOX 17 28 -1 -4
COMMENT "Generated by fontforge, http://fontforge.sourceforge.net"
COMMENT "Copyright (c) 2011 by vernon adams. All rights reserved."
STARTPROPERTIES 41
FOUNDRY "FontForge"
FAMILY_NAME "Monofett"
WEIGHT_NAME "Book"
SLANT "R"
SETWIDTH_NAME "Normal"
ADD_STYLE_NAME ""
PIXEL_SIZE 24
POINT_SIZE 240
RESOLUTION_X 72
RESOLUTION_Y 72
SPACING "P"
AVERAGE_WIDTH 133
CHARSET_REGISTRY "ISO10646"
CHARSET_ENCODING "1"
FONTNAME_REGISTRY ""
CHARSET_COLLECTIONS "ISO8859-2 ISO8859-9 ISO8859-4 ISO10646-1"
BITS_PER_PIXEL 4
FONT_NAME "Monofett"
FACE_NAME "Monofett"
COPYRIGHT "Copyright (c) 2011 by vernon adams. All rights reserved."
FONT_VERSION "1.000"
FONT_ASCENT 19
FONT_DESCENT 5
UNDERLINE_POSITION -3
UNDERLINE_THICKNESS 1
X_HEIGHT 16
CAP_HEIGHT 16
RAW_ASCENT 799
RAW_DESCENT 200
NORM_SPACE 3
RELATIVE_WEIGHT 40
RELATIVE_SETWIDTH 50
SUPERSCRIPT_X 0
SUPERSCRIPT_Y 11
SUPERSCRIPT_SIZE 15
SUBSCRIPT_X 0
SUBSCRIPT_Y 3
SUBSCRIPT_SIZE 15
FIGURE_WIDTH 14
AVG_LOWERCASE_WIDTH 140
AVG_UPPERCASE_WIDTH 140
ENDPROPERTIES
CHARS 409
STARTCHAR uni000D
ENCODING 13
SWIDTH 144 0
DWIDTH 3 0
BBX 1 1 0 0
BITMAP
00
ENDCHAR
STARTCHAR space
ENCODING 32
SWIDTH 144 0
DWIDTH 3 0
BBX 1 1 0 0
BITMAP
00
ENDCHAR
STARTCHAR exclam
ENCODING 33
SWIDTH 424 0
DWIDTH 10 0
BBX 12 16 -1 0
BITMAP
0007DFFD8100
01CFF60FFD20
09FFF71FFFB0
0EFFF82FFFF2
1FFFF83FFFF3
1FFFF94FFFF4
1FFFFA5FFFF4
1FFFFB6FFFF4
1FFFFDAFFFF4
1FFFFCAFFFF4
1FFFF93FFFF4
1FFFFFFFFFF3
0EFFFFFFFFF1
08FFFFFFFFB0
01BFFFFFFD20
0006CEFC8100
ENDCHAR
STARTCHAR quotedbl
ENCODING 34
SWIDTH 424 0
DWIDTH 10 0
BBX 12 16 -1 0
BITMAP
0007DFFD8100
01CFC084FD20
09FFC084FFB0
0EFFC084FFF2
1FFFFFFFFFF3
1FFFFFFFFFF4
1FFFFFFFFFF4
1FFFFFFFFFF4
1FFFFFFFFFF4
1FFFFFFFFFF4
1FFFFFFFFFF4
1FFFFFFFFFF3
0EFFFFFFFFF1
08FFFFFFFFB0
01BFFFFFFD20
0006CEFC8100
ENDCHAR
STARTCHAR numbersign
ENCODING 35
SWIDTH 482 0
DWIDTH 12 0
BBX 13 17 -1 0
BITMAP
00000011000000
0007DFFFEB4000
01CFFFFFFFF700
09FFF86C2FFF20
0EFFD4471CFF80
1FFF901108FF90
1FFFF3975FFFA0
1FFFF1B56FFFA0
1FFF80523DFFA0
1FFF50403DFFA0
1FFFB0F1BFFFA0
1FFFECFCEFFFA0
1FFFFFFFFFFF90
0EFFFFFFFFFF70
08FFFFFFFFFF20
01BFFFFFFFF600
0006CEFFEA3000
ENDCHAR
STARTCHAR dollar
ENCODING 36
SWIDTH 578 0
DWIDTH 14 0
BBX 15 17 -1 0
BITMAP
0000001111000000
0007DFFFFFFC6000
01CFFFF96FFFFB00
09FFF400003EFF70
0EFFB0B75B19FFC0
1FFFA1F96FDEFFE0
1FFFB0A75BEFFFE0
1FFFF510001DFFE0
1FFFFFF96F1AFFE0
1FFFD7F96F29FFE0
1FFFC064360BFFE0
1FFFF953259FFFE0
1FFFFFF96FFFFFE0
0EFFFFFFEFFFFFC0
08FFFFFFFFFFFF60
01BFFFFFFFFFFA00
0006CEFFFFEB5000
ENDCHAR
STARTCHAR percent
ENCODING 37
SWIDTH 578 0
DWIDTH 14 0
BBX 15 17 -1 0
BITMAP
0000001111000000
0007DFFFFFFC6000
01CFAAEFDDFFFB00
09F5112F65FFFF70
0EF2AC0F19FFFFC0
1FF4232C0EFFFFE0
1FFD88D83FFFFFE0
1FFFFFF38C55BFE0
1FFFFFE0C3450FE0
1FFFFF92F29B0EE0
1FFFFF56F7004FE0
1FFFFFFEFFDCFFE0
1FFFFFFFFFFFFFE0
0EFFFFFFFFFFFFC0
08FFFFFFFFFFFF60
01BFFFFFFFFFFA00
0006CEFFFFEB5000
ENDCHAR
STARTCHAR ampersand
ENCODING 38
SWIDTH 578 0
DWIDTH 14 0
BBX 15 17 -1 0
BITMAP
0000001111000000
0007DFFFFFFC6000
01CFFC20007FFB00
09FFF64BCBDFFF70
0EFFF57FFFFFFFC0
1FFFF66FFF66FFE0
1FFFFD322211BFE0
1FFFFA399945FFE0
1FFFF57FFF66FFE0
1FFFF56FFF66FFE0
1FFFF7267617FFE0
1FFFFE75557EFFE0
1FFFFFFFFFFFFFE0
0EFFFFFFFFFFFFC0
08FFFFFFFFFFFF60
01BFFFFFFFFFFA00
0006CEFFFFEB5000
ENDCHAR
STARTCHAR quotesingle
ENCODING 39
SWIDTH 424 0
DWIDTH 10 0
BBX 12 16 -1 0
BITMAP
0007DFFD8100
01CFF94FFD20
09FFF94FFFB0
0EFFF94FFFF2
1FFFFFFFFFF3
1FFFFFFFFFF4
1FFFFFFFFFF4
1FFFFFFFFFF4
1FFFFFFFFFF4
1FFFFFFFFFF4
1FFFFFFFFFF4
1FFFFFFFFFF3
0EFFFFFFFFF1
08FFFFFFFFB0
01BFFFFFFD20
0006CEFC8100
ENDCHAR
STARTCHAR parenleft
ENCODING 40
SWIDTH 483 0
DWIDTH 12 0
BBX 13 17 -1 0
BITMAP
00000011000000
0007DFFFEB4000
01CFF7009FF700
09FFE08CEFFF30
0EFFD0DFFFFF80
1FFFD0DFFFFFA0
1FFFD0DFFFFFA0
1FFFD0DFFFFFA0
1FFFD0DFFFFFA0
1FFFD0DFFFFFA0
1FFFD0DFFFFFA0
1FFFE0BEFFFFA0
1FFFF4009FFFA0
0EFFFFDCEFFF80
08FFFFFFFFFF20
01BFFFFFFFF600
0006CEFFEA3000
ENDCHAR
STARTCHAR parenright
ENCODING 41
SWIDTH 483 0
DWIDTH 12 0
BBX 13 17 -1 0
BITMAP
00000011000000
0007DFFFEB4000
01CFF301BFF700
09FFFCB45FFF30
0EFFFFF74FFF80
1FFFFFF84FFFA0
1FFFFFF84FFFA0
1FFFFFF84FFFA0
1FFFFFF84FFFA0
1FFFFFF84FFFA0
1FFFFFF84FFFA0
1FFFFEE65FFFA0
1FFFF300AFFFA0
0EFFFDCEFFFF80
08FFFFFFFFFF20
01BFFFFFFFF600
0006CEFFEA3000
ENDCHAR
STARTCHAR asterisk
ENCODING 42
SWIDTH 428 0
DWIDTH 10 0
BBX 12 16 -1 0
BITMAP
0007DFFE9200
01CFC3E4AE30
09FFF230DFC0
0EFC210028F3
1FFE93019CF5
1FFFD0809FF5
1FFFE9FADFF5
1FFFFFFFFFF5
1FFFFFFFFFF5
1FFFFFFFFFF5
1FFFFFFFFFF5
1FFFFFFFFFF5
0EFFFFFFFFF3
08FFFFFFFFC0
01BFFFFFFE20
0006CEFD8100
ENDCHAR
STARTCHAR plus
ENCODING 43
SWIDTH 428 0
DWIDTH 10 0
BBX 12 16 -1 0
BITMAP
0007DFFE9200
01CFF92FFE30
09FFF92FFFC0
0EF843144EF3
1FFA74177EF5
1FFFF92FFFF5
1FFFFA5FFFF5
1FFFFFFFFFF5
1FFFFFFFFFF5
1FFFFFFFFFF5
1FFFFFFFFFF5
1FFFFFFFFFF5
0EFFFFFFFFF3
08FFFFFFFFC0
01BFFFFFFE20
0006CEFD8100
ENDCHAR
STARTCHAR comma
ENCODING 44
SWIDTH 428 0
DWIDTH 10 0
BBX 12 16 -1 0
BITMAP
0007DFFE9200
01CFFFFFFE30
09FFFFFFFFC0
0EFFFFFFFFF3
1FFFFFFFFFF5
1FFFFFFFFFF5
1FFFFFFFFFF5
1FFFFFFFFFF5
1FFFFFFFFFF5
1FFFF73DFFF5
1FFFF90DFFF5
1FFFFD4FFFF5
0EFFFFEFFFF3
08FFFFFFFFC0
01BFFFFFFE20
0006CEFD8100
ENDCHAR
STARTCHAR hyphen
ENCODING 45
SWIDTH 428 0
DWIDTH 10 0
BBX 12 16 -1 0
BITMAP
0007DFFE9200
01CFFFFFFE30
09FFFFFFFFC0
0EFFFFFFFFF3
1FFE0000AFF5
1FFFCCCCEFF5
1FFFFFFFFFF5
1FFFFFFFFFF5
1FFFFFFFFFF5
1FFFFFFFFFF5
1FFFFFFFFFF5
1FFFFFFFFFF5
0EFFFFFFFFF3
08FFFFFFFFC0
01BFFFFFFE20
0006CEFD8100
ENDCHAR
STARTCHAR period
ENCODING 46
SWIDTH 428 0
DWIDTH 10 0
BBX 12 16 -1 0
BITMAP
0007DFFE9200
01CFFFFFFE30
09FFFFFFFFC0
0EFFFFFFFFF3
1FFFFFFFFFF5
1FFFFFFFFFF5
1FFFFFFFFFF5
1FFFFFFFFFF5
1FFFFFFFFFF5
1FFFF74FFFF5
1FFFF96FFFF5
1FFFFFFFFFF5
0EFFFFFFFFF3
08FFFFFFFFC0
01BFFFFFFE20
0006CEFD8100
ENDCHAR
STARTCHAR slash
ENCODING 47
SWIDTH 428 0
DWIDTH 10 0
BBX 12 16 -1 0
BITMAP
0007DFFE9200
01CFFF8AFE30
09FFFF29FFC0
0EFFFE0CFFF3
1FFFFC0EFFF5
1FFFF92FFFF5
1FFFF74FFFF5
1FFFF47FFFF5
1FFFF29FFFF5
1FFFE0CFFFF5
1FFFC0EFFFF5
1FFFFFFFFFF5
0EFFFFFFFFF3
08FFFFFFFFC0
01BFFFFFFE20
0006CEFD8100
ENDCHAR
STARTCHAR zero
ENCODING 48
SWIDTH 578 0
DWIDTH 14 0
BBX 15 17 -1 0
BITMAP
0000001111000000
0007DFFFFFFC6000
01CFF5100018FB00
09FFC0ACCB80FF70
0EFFB0FFFFD0EFC0
1FFFB0FFFFD0EFE0
1FFFB0FFFFD0EFE0
1FFFB0FFFFD0EFE0
1FFFB0FFFFD0EFE0
1FFFB0FFFFC0EFE0
1FFFD0577741FFE0
1FFFFA55556BFFE0
1FFFFFFFFFFFFFE0
0EFFFFFFFFFFFFC0
08FFFFFFFFFFFF60
01BFFFFFFFFFFA00
0006CEFFFFEB5000
ENDCHAR
STARTCHAR one
ENCODING 49
SWIDTH 578 0
DWIDTH 14 0
BBX 15 17 -1 0
BITMAP
0000001111000000
0007DFFFFFFC6000
01CFFF821FFFFB00
09FFFF661FFFFF70
0EFFFFFA1FFFFFC0
1FFFFFFA1FFFFFE0
1FFFFFFA1FFFFFE0
1FFFFFFA1FFFFFE0
1FFFFFFA1FFFFFE0
1FFFFFFA1FFFFFE0
1FFFFFFA1FFFFFE0
1FFFFFFB6FFFFFE0
1FFFFFFFFFFFFFE0
0EFFFFFFFFFFFFC0
08FFFFFFFFFFFF60
01BFFFFFFFFFFA00
0006CEFFFFEB5000
ENDCHAR
STARTCHAR two
ENCODING 50
SWIDTH 578 0
DWIDTH 14 0
BBX 15 17 -1 0
BITMAP
0000001111000000
0007DFFFFFFC6000
01CFF610002BFB00
09FFD0ACCB54FF70
0EFFECFFFF83FFC0
1FFFFFFFFF83FFE0
1FFFFC866626FFE0
1FFFE046669EFFE0
1FFFC0FFFFFFFFE0
1FFFC0FFFFFFFFE0
1FFFC077777CFFE0
1FFFF755555BFFE0
1FFFFFFFFFFFFFE0
0EFFFFFFFFFFFFC0
08FFFFFFFFFFFF60
01BFFFFFFFFFFA00
0006CEFFFFEB5000
ENDCHAR
STARTCHAR three
ENCODING 51
SWIDTH 578 0
DWIDTH 14 0
BBX 15 17 -1 0
BITMAP
0000001111000000
0007DFFFFFFC6000
01CFD300003DFB00
09FF63BBBB36FF70
0EFFDDFFFF75FFC0
1FFFFFFFFF65FFE0
1FFFFF744418FFE0
1FFFFFB99936FFE0
1FFFFFFFFF75FFE0
1FFFAAFFFF65FFE0
1FFF72777727FFE0
1FFFE644446EFFE0
1FFFFFFFFFFFFFE0
0EFFFFFFFFFFFFC0
08FFFFFFFFFFFF60
01BFFFFFFFFFFA00
0006CEFFFFEB5000
ENDCHAR
STARTCHAR four
ENCODING 52
SWIDTH 578 0
DWIDTH 14 0
BBX 15 17 -1 0
BITMAP
0000001111000000
0007DFFFFFFC6000
01CFF48FF56FFB00
09FFF48FF56FFF70
0EFFF48FF56FFFC0
1FFFF48FF56FFFE0
1FFFF48FF56FFFE0
1FFFF47FF56FFFE0
1FFFF7133112AFE0
1FFFFFA99349DFE0
1FFFFFFFF56FFFE0
1FFFFFFFF89FFFE0
1FFFFFFFFFFFFFE0
0EFFFFFFFFFFFFC0
08FFFFFFFFFFFF60
01BFFFFFFFFFFA00
0006CEFFFFEB5000
ENDCHAR
STARTCHAR five
ENCODING 53
SWIDTH 578 0
DWIDTH 14 0
BBX 15 17 -1 0
BITMAP
0000001111000000
0007DFFFFFFC6000
01CFF3000008FB00
09FFD0ACCCCDFF70
0EFFD0DFFFFFFFC0
1FFFD0BCCCDFFFE0
1FFFD0000006FFE0
1FFFFDEFFF91FFE0
1FFFFFFFFFB0FFE0
1FFFFDEFFFB0FFE0
1FFFE1477732FFE0
1FFFFB65556CFFE0
1FFFFFFFFFFFFFE0
0EFFFFFFFFFFFFC0
08FFFFFFFFFFFF60
01BFFFFFFFFFFA00
0006CEFFFFEB5000
ENDCHAR
STARTCHAR six
ENCODING 54
SWIDTH 578 0
DWIDTH 14 0
BBX 15 17 -1 0
BITMAP
0000001111000000
0007DFFFFFFC6000
01CFF710001AFB00
09FFE079999CFF70
0EFFD0DFFFFFFFC0
1FFFD0ABBBCEFFE0
1FFFD0000002EFE0
1FFFD0CFFFE0CFE0
1FFFD0DFFFF0BFE0
1FFFD0DFFFF0BFE0
1FFFF1477750DFE0
1FFFFB65555AFFE0
1FFFFFFFFFFFFFE0
0EFFFFFFFFFFFFC0
08FFFFFFFFFFFF60
01BFFFFFFFFFFA00
0006CEFFFFEB5000
ENDCHAR
STARTCHAR seven
ENCODING 55
SWIDTH 578 0
DWIDTH 14 0
BBX 15 17 -1 0
BITMAP
0000001111000000
0007DFFFFFFC6000
01CFFE00000FFB00
09FFFFCCC53FFF70
0EFFFFFFF28FFFC0
1FFFFFFFB0DFFFE0
1FFFFFFF64FFFFE0
1FFFFFFE19FFFFE0
1FFFFFFA0EFFFFE0
1FFFFFF44FFFFFE0
1FFFFFE0AFFFFFE0
1FFFFFB5EFFFFFE0
1FFFFFFFFFFFFFE0
0EFFFFFFFFFFFFC0
08FFFFFFFFFFFF60
01BFFFFFFFFFFA00
0006CEFFFFEB5000
ENDCHAR
STARTCHAR eight
ENCODING 56
SWIDTH 578 0
DWIDTH 14 0
BBX 15 17 -1 0
BITMAP
0000001111000000
0007DFFFFFFC6000
01CFF5100018FB00
09FFB0ACCB70FF70
0EFFA1FFFFC0EFC0
1FFFA1FFFFB0FFE0
1FFFD0122203FFE0
1FFFB0899961FFE0
1FFFA1FFFFC0EFE0
1FFFA1FFFFC0EFE0
1FFFC0677741FFE0
1FFFF955556CFFE0
1FFFFFFFFFFFFFE0
0EFFFFFFFFFFFFC0
08FFFFFFFFFFFF60
01BFFFFFFFFFFA00
0006CEFFFFEB5000
ENDCHAR
STARTCHAR nine
ENCODING 57
SWIDTH 578 0
DWIDTH 14 0
BBX 15 17 -1 0
BITMAP
0000001111000000
0007DFFFFFFC6000
01CFE300001AFB00
09FF91BCCC62FF70
0EFF83FFFFA1FFC0
1FFF83FFFFA1FFE0
1FFF91ABBA51FFE0
1FFFE4111111FFE0
1FFFFFFFFFA1FFE0
1FFFFFFFFF91FFE0
1FFFF8455534FFE0
1FFFFA55556DFFE0
1FFFFFFFFFFFFFE0
0EFFFFFFFFFFFFC0
08FFFFFFFFFFFF60
01BFFFFFFFFFFA00
0006CEFFFFEB5000
ENDCHAR
STARTCHAR colon
ENCODING 58
SWIDTH 428 0
DWIDTH 10 0
BBX 12 16 -1 0
BITMAP
0007DFFE9200
01CFFFFFFE30
09FFFFFFFFC0
0EFFFFFFFFF3
1FFFFFFFFFF5
1FFFFDCFFFF5
1FFFF61FFFF5
1FFFFCBFFFF5
1FFFFFFFFFF5
1FFFF74FFFF5
1FFFF96FFFF5
1FFFFFFFFFF5
0EFFFFFFFFF3
08FFFFFFFFC0
01BFFFFFFE20
0006CEFD8100
ENDCHAR
STARTCHAR semicolon
ENCODING 59
SWIDTH 428 0
DWIDTH 10 0
BBX 12 16 -1 0
BITMAP
0007DFFE9200
01CFFFFFFE30
09FFFFFFFFC0
0EFFFFFFFFF3
1FFFFFFFFFF5
1FFFFECFFFF5
1FFFF80EFFF5
1FFFFDAFFFF5
1FFFFFFFFFF5
1FFFF73DFFF5
1FFFF90DFFF5
1FFFFD4FFFF5
0EFFFFEFFFF3
08FFFFFFFFC0
01BFFFFFFE20
0006CEFD8100
ENDCHAR
STARTCHAR less
ENCODING 60
SWIDTH 482 0
DWIDTH 12 0
BBX 13 18 -1 1
BITMAP
00000343200000
0018EFFFFC5000
01CFFFFFFFF700
08FFFFFFFFFF20
0EFFFFFFFFFF80
1FFFFFF9BFFF90
1FFFFFB4FFFFA0
1FFFFD3EFFFFA0
1FFFE3DFFFFFA0
1FFF4BFFFFFFA0
1FFFB4FFFFFFA0
1FFFF96FFFFFA0
1FFFFF78FFFFA0
0FFFFFF5BFFF90
0CFFFFFFFFFF60
05FFFFFFFFFD10
007FFFFFFFD200
00028CDCA60000
ENDCHAR
STARTCHAR equal
ENCODING 61
SWIDTH 482 0
DWIDTH 12 0
BBX 13 18 -1 1
BITMAP
00000344200000
0018EFFFFC5000
01CFFFFFFFF700
08FFFFFFFFFF20
0EFFFFFFFFFF80
1FFFFFFFFFFF90
1FFFFFFFFFFFA0
1FFFEBBBBEFFA0
1FFFD8888DFFA0
1FFFFFFFFFFFA0
1FFFC3333BFFA0
1FFFFFFFFFFFA0
1FFFFFFFFFFFA0
0FFFFFFFFFFF90
0CFFFFFFFFFF60
05FFFFFFFFFD10
007FFFFFFFD200
00039CDDB61000
ENDCHAR
STARTCHAR greater
ENCODING 62
SWIDTH 482 0
DWIDTH 12 0
BBX 13 18 -1 1
BITMAP
00000344200000
0018EFFFFC5000
01CFFFFFFFF700
08FFFFFFFFFF20
0EFFFFFFFFFF80
1FFFF7EFFFFF90
1FFFFC4EFFFFA0
1FFFFFA5FFFFA0
1FFFFFF87FFFA0
1FFFFFFF5BFFA0
1FFFFFFC4EFFA0
1FFFFFD3EFFFA0
1FFFFE3DFFFFA0
0FFFF5BFFFFF90
0CFFFEFFFFFF60
05FFFFFFFFFD10
007FFFFFFFD200
00039CDDB61000
ENDCHAR
STARTCHAR question
ENCODING 63
SWIDTH 578 0
DWIDTH 14 0
BBX 15 17 -1 0
BITMAP
0000001111000000
0007DFFFFFFC6000
01CFFE42223BFB00
09FFF86CCD94FF70
0EFFFEEFFFC3FFC0
1FFFFFFFFFC3FFE0
1FFFFFFFCB84FFE0
1FFFFFFD135CFFE0
1FFFFFFC3FFFFFE0
1FFFFFFD6FFFFFE0
1FFFFFFC6FFFFFE0
1FFFFFFC7FFFFFE0
1FFFFFFFFFFFFFE0
0EFFFFFFFFFFFFC0
08FFFFFFFFFFFF60
01BFFFFFFFFFFA00
0006CEFFFFEB5000
ENDCHAR
STARTCHAR at
ENCODING 64
SWIDTH 578 0
DWIDTH 14 0
BBX 15 17 -1 0
BITMAP
0000001111000000
0007DFFDDDFC6000
01CFB4011118FB00
09FB18DFFFC38F70
0EF49F8446ED1FC0
1FF2CFCDD66F3CE0
1FF2DFFEEA4F4BE0
1FF2DE31104F4BE0
1FF2D94FFA4F4BE0
1FF3CC26634F4BE0
1FF69FDAAD261EE0
1FFB1AEFFFDCDFE0
1FFFA3214FFFFFE0
0EFFFFFFFFFFFFC0
08FFFFFFFFFFFF60
01BFFFFFFFFFFA00
0006CEFFFFEB5000
ENDCHAR
STARTCHAR A
ENCODING 65
SWIDTH 578 0
DWIDTH 14 0
BBX 15 17 -1 0
BITMAP
0000001111000000
0007DFFFFFFC6000
01CFFC31015EFB00
09FFF54BBA0BFF70
0EFFF47FFF29FFC0
1FFFF29FFF37FFE0
1FFFF0AFFF56FFE0
1FFFE0000004FFE0
1FFFC0CDDD73FFE0
1FFFA0FFFF91FFE0
1FFF91FFFFB0FFE0
1FFFA6FFFFD5EFE0
1FFFFFFFFFFFFFE0
0EFFFFFFFFFFFFC0
08FFFFFFFFFFFF60
01BFFFFFFFFFFA00
0006CEFFFFEB5000
ENDCHAR
STARTCHAR B
ENCODING 66
SWIDTH 578 0
DWIDTH 14 0
BBX 15 17 -1 0
BITMAP
0000001111000000
0007DFFFFFFC6000
01CF9000002DFB00
09FF92CCCB27FF70
0EFF92FFFF46FFC0
1FFF92FFFF56FFE0
1FFF9022212CFFE0
1FFF91AAA938FFE0
1FFF92FFFF66FFE0
1FFF92FFFF66FFE0
1FFF91777617FFE0
1FFFB555557EFFE0
1FFFFFFFFFFFFFE0
0EFFFFFFFFFFFFC0
08FFFFFFFFFFFF60
01BFFFFFFFFFFA00
0006CEFFFFEB5000
ENDCHAR
STARTCHAR C
ENCODING 67
SWIDTH 578 0
DWIDTH 14 0
BBX 15 17 -1 0
BITMAP
0000001111000000
0007DFFFFFFC6000
01CFF400003FFB00
09FFB0BCCBBFFF70
0EFFA1FFFFFFFFC0
1FFFA1FFFFFFFFE0
1FFFA1FFFFFFFFE0
1FFFA1FFFFFFFFE0
1FFFA1FFFFFFFFE0
1FFFA1FFFFFFFFE0
1FFFC067777FFFE0
1FFFF955557FFFE0
1FFFFFFFFFFFFFE0
0EFFFFFFFFFFFFC0
08FFFFFFFFFFFF60
01BFFFFFFFFFFA00
0006CEFFFFEB5000
ENDCHAR
STARTCHAR D
ENCODING 68
SWIDTH 578 0
DWIDTH 14 0
BBX 15 17 -1 0
BITMAP
0000001111000000
0007DFFFFFFC6000
01CFD0000016FB00
09FFD0BCCC90DF70
0EFFD0EFFFE0CFC0
1FFFD0EFFFE0CFE0
1FFFD0EFFFE0CFE0
1FFFD0EFFFE0CFE0
1FFFD0EFFFE0CFE0
1FFFD0EFFFE0CFE0
1FFFD0677750EFE0
1FFFD555555AFFE0
1FFFFFFFFFFFFFE0
0EFFFFFFFFFFFFC0
08FFFFFFFFFFFF60
01BFFFFFFFFFFA00
0006CEFFFFEB5000
ENDCHAR
STARTCHAR E
ENCODING 69
SWIDTH 578 0
DWIDTH 14 0
BBX 15 17 -1 0
BITMAP
0000001111000000
0007DFFFFFFC6000
01CFFB000008FB00
09FFFB1CCCCDFF70
0EFFFB1FFFFFFFC0
1FFFFB1FFFFFFFE0
1FFFFB04445FFFE0
1FFFFB08889FFFE0
1FFFFB1FFFFFFFE0
1FFFFB1FFFFFFFE0
1FFFFB07777AFFE0
1FFFFC555559FFE0
1FFFFFFFFFFFFFE0
0EFFFFFFFFFFFFC0
08FFFFFFFFFFFF60
01BFFFFFFFFFFA00
0006CEFFFFEB5000
ENDCHAR
STARTCHAR F
ENCODING 70
SWIDTH 578 0
DWIDTH 14 0
BBX 15 17 -1 0
BITMAP
0000001111000000
0007DFFFFFFC6000
01CFFA000008FB00
09FFFA1CCCCDFF70
0EFFFA1FFFFFFFC0
1FFFFA1FFFFFFFE0
1FFFFA00003FFFE0
1FFFFA1BBBCFFFE0
1FFFFA1FFFFFFFE0
1FFFFA1FFFFFFFE0
1FFFFA1FFFFFFFE0
1FFFFB6FFFFFFFE0
1FFFFFFFFFFFFFE0
0EFFFFFFFFFFFFC0
08FFFFFFFFFFFF60
01BFFFFFFFFFFA00
0006CEFFFFEB5000
ENDCHAR
STARTCHAR G
ENCODING 71
SWIDTH 578 0
DWIDTH 14 0
BBX 15 17 -1 0
BITMAP
0000001111000000
0007DFFFFFFC6000
01CFF9100008FB00
09FFF17CCCBCFF70
0EFFF0BFFFFFFFC0
1FFFF0BFFFFFFFE0
1FFFF0BFEBBBEFE0
1FFFF0BFC000DFE0
1FFFF0BFFFE0DFE0
1FFFF0BFFFE0DFE0
1FFFF2377750EFE0
1FFFFC65555BFFE0
1FFFFFFFFFFFFFE0
0EFFFFFFFFFFFFC0
08FFFFFFFFFFFF60
01BFFFFFFFFFFA00
0006CEFFFFEB5000
ENDCHAR
STARTCHAR H
ENCODING 72
SWIDTH 578 0
DWIDTH 14 0
BBX 15 17 -1 0
BITMAP
0000001111000000
0007DFFFFFFC6000
01CFD0EFFFF0CB00
09FFD0EFFFF0CF70
0EFFD0EFFFF0CFC0
1FFFD0EFFFF0CFE0
1FFFD0111110CFE0
1FFFD09AAAA0CFE0
1FFFD0EFFFF0CFE0
1FFFD0EFFFF0CFE0
1FFFD0EFFFF0CFE0
1FFFD5EFFFF5DFE0
1FFFFFFFFFFFFFE0
0EFFFFFFFFFFFFC0
08FFFFFFFFFFFF60
01BFFFFFFFFFFA00
0006CEFFFFEB5000
ENDCHAR
STARTCHAR I
ENCODING 73
SWIDTH 578 0
DWIDTH 14 0
BBX 15 17 -1 0
BITMAP
0000001111000000
0007DFFFFFFC6000
01CFF3000000FB00
09FFFCCB09CCFF70
0EFFFFFF0CFFFFC0
1FFFFFFF0CFFFFE0
1FFFFFFF0CFFFFE0
1FFFFFFF0CFFFFE0
1FFFFFFF0CFFFFE0
1FFFFFFF0CFFFFE0
1FFFF8770577FFE0
1FFFF7555555FFE0
1FFFFFFFFFFFFFE0
0EFFFFFFFFFFFFC0
08FFFFFFFFFFFF60
01BFFFFFFFFFFA00
0006CEFFFFEB5000
ENDCHAR
STARTCHAR J
ENCODING 74
SWIDTH 578 0
DWIDTH 14 0
BBX 15 17 -1 0
BITMAP
0000001111000000
0007DFFFFFFC6000
01CFFFFFF0CFFB00
09FFFFFFF0CFFF70
0EFFFFFFF0CFFFC0
1FFFFFFFF0CFFFE0
1FFFFFFFF0CFFFE0
1FFFFFFFF0CFFFE0
1FFFFFFFF0CFFFE0
1FFFFFFFF0CFFFE0
1FFFFF9750CFFFE0
1FFFFF855AFFFFE0
1FFFFFFFFFFFFFE0
0EFFFFFFFFFFFFC0
08FFFFFFFFFFFF60
01BFFFFFFFFFFA00
0006CEFFFFEB5000
ENDCHAR
STARTCHAR K
ENCODING 75
SWIDTH 578 0
DWIDTH 14 0
BBX 15 17 -1 0
BITMAP
0000001111000000
0007DFFFFFFB6000
01CFFC0FFFD28B00
09FFFC0FFD23EF70
0EFFFC0FD23EFFC0
1FFFFC0C24EFFFE0
1FFFFC012EFFFFE0
1FFFFC0508FFFFE0
1FFFFC0F90AFFFE0
1FFFFC0FF71CFFE0
1FFFFC0FFF51DFE0
1FFFFD5FFFE5DFE0
1FFFFFFFFFFFFFE0
0EFFFFFFFFFFFFC0
08FFFFFFFFFFFF60
01BFFFFFFFFFFA00
0006CEFFFFEB5000
ENDCHAR
STARTCHAR L
ENCODING 76
SWIDTH 578 0
DWIDTH 14 0
BBX 15 17 -1 0
BITMAP
0000001111000000
0007DFFFFFFC6000
01CFFF48FFFFFB00
09FFFF48FFFFFF70
0EFFFF48FFFFFFC0
1FFFFF48FFFFFFE0
1FFFFF48FFFFFFE0
1FFFFF48FFFFFFE0
1FFFFF48FFFFFFE0
1FFFFF48FFFFFFE0
1FFFFF43777EFFE0
1FFFFF75555EFFE0
1FFFFFFFFFFFFFE0
0EFFFFFFFFFFFFC0
08FFFFFFFFFFFF60
01BFFFFFFFFFFA00
0006CEFFFFEB5000
ENDCHAR
STARTCHAR M
ENCODING 77
SWIDTH 578 0
DWIDTH 14 0
BBX 15 17 -1 0
BITMAP
0000001111000000
0007DFFFFFFC6000
01CF61017002BB00
09FF08C71BB46F70
0EFF0BFA1FF56FC0
1FFF0BFA1FF56FE0
1FFF0BFA1FF56FE0
1FFF0BFA1FF56FE0
1FFF0BFDBFF56FE0
1FFF0BFFFFF56FE0
1FFF0BFFFFF56FE0
1FFF5CFFFFF89FE0
1FFFFFFFFFFFFFE0
0EFFFFFFFFFFFFC0
08FFFFFFFFFFFF60
01BFFFFFFFFFFA00
0006CEFFFFEB5000
ENDCHAR
STARTCHAR N
ENCODING 78
SWIDTH 578 0
DWIDTH 14 0
BBX 15 17 -1 0
BITMAP
0000001111000000
0007DFFFFFFC6000
01CFD3100019FB00
09FFC0ACCC62FF70
0EFFC0FFFFA1FFC0
1FFFC0FFFFA1FFE0
1FFFC0FFFFA1FFE0
1FFFC0FFFFA1FFE0
1FFFC0FFFFA1FFE0
1FFFC0FFFFA1FFE0
1FFFC0FFFFA1FFE0
1FFFD5FFFFC5FFE0
1FFFFFFFFFFFFFE0
0EFFFFFFFFFFFFC0
08FFFFFFFFFFFF60
01BFFFFFFFFFFA00
0006CEFFFFEB5000
ENDCHAR
STARTCHAR O
ENCODING 79
SWIDTH 578 0
DWIDTH 14 0
BBX 15 17 -1 0
BITMAP
0000001111000000
0007DFFFFFFC6000
01CFF6100017FB00
09FFD09CCB90EF70
0EFFC0EFFFE0DFC0
1FFFC0EFFFE0DFE0
1FFFC0EFFFE0DFE0
1FFFC0EFFFE0DFE0
1FFFC0EFFFE0DFE0
1FFFC0EFFFE0DFE0
1FFFE0577750EFE0
1FFFFA55555BFFE0
1FFFFFFFFFFFFFE0
0EFFFFFFFFFFFFC0
08FFFFFFFFFFFF60
01BFFFFFFFFFFA00
0006CEFFFFEB5000
ENDCHAR
STARTCHAR P
ENCODING 80
SWIDTH 578 0
DWIDTH 14 0
BBX 15 17 -1 0
BITMAP
0000001111000000
0007DFFFFFFC6000
01CFF600001AFB00
09FFF64CCB62FF70
0EFFF65FFFA1FFC0
1FFFF65FFFA1FFE0
1FFFF65FFF82FFE0
1FFFF6000007FFE0
1FFFF64CCCDFFFE0
1FFFF65FFFFFFFE0
1FFFF65FFFFFFFE0
1FFFF98FFFFFFFE0
1FFFFFFFFFFFFFE0
0EFFFFFFFFFFFFC0
08FFFFFFFFFFFF60
01BFFFFFFFFFFA00
0006CEFFFFEB5000
ENDCHAR
STARTCHAR Q
ENCODING 81
SWIDTH 578 0
DWIDTH 14 0
BBX 15 17 -1 0
BITMAP
0000001111000000
0007DFFFFFFC6000
01CFF6100016FB00
09FFE09CCC90DF70
0EFFD0EFFFE0CFC0
1FFFD0EFFFE0CFE0
1FFFD0EFFFE0CFE0
1FFFD0EFFFE0CFE0
1FFFD0EFFFE0CFE0
1FFFD0EF6BE0CFE0
1FFFE0572250EFE0
1FFFFB55503AFFE0
1FFFFFFFF63FFFE0
0EFFFFFFFECFFFC0
08FFFFFFFFFFFF60
01BFFFFFFFFFFA00
0006CEFFFFEB5000
ENDCHAR
STARTCHAR R
ENCODING 82
SWIDTH 578 0
DWIDTH 14 0
BBX 15 17 -1 0
BITMAP
0000001111000000
0007DFFFFFFC6000
01CFF000004EFB00
09FFF08CCA19FF70
0EFFF0BFFF48FFC0
1FFFF0BFFF39FFE0
1FFFF068863DFFE0
1FFFF023325DFFE0
1FFFF0BFFF48FFE0
1FFFF0BFFF56FFE0
1FFFF0BFFF56FFE0
1FFFF5CFFF89FFE0
1FFFFFFFFFFFFFE0
0EFFFFFFFFFFFFC0
08FFFFFFFFFFFF60
01BFFFFFFFFFFA00
0006CEFFFFEB5000
ENDCHAR
STARTCHAR S
ENCODING 83
SWIDTH 578 0
DWIDTH 14 0
BBX 15 17 -1 0
BITMAP
0000001111000000
0007DFFFFFFC6000
01CFFA100018FB00
09FFF26BCCBDFF70
0EFFF1AFFFFFFFC0
1FFFF1AFFFFFFFE0
1FFFF502223BFFE0
1FFFFFB99952FFE0
1FFFFFFFFFA1FFE0
1FFFFFFFFFA1FFE0
1FFFFB677733FFE0
1FFFFB55556CFFE0
1FFFFFFFFFFFFFE0
0EFFFFFFFFFFFFC0
08FFFFFFFFFFFF60
01BFFFFFFFFFFA00
0006CEFFFFEB5000
ENDCHAR
STARTCHAR T
ENCODING 84
SWIDTH 578 0
DWIDTH 14 0
BBX 15 17 -1 0
BITMAP
0000001111000000
0007DFFFFFFC6000
01CFF3000000FB00
09FFFCCB09CCFF70
0EFFFFFF0CFFFFC0
1FFFFFFF0CFFFFE0
1FFFFFFF0CFFFFE0
1FFFFFFF0CFFFFE0
1FFFFFFF0CFFFFE0
1FFFFFFF0CFFFFE0
1FFFFFFF0CFFFFE0
1FFFFFFF5DFFFFE0
1FFFFFFFFFFFFFE0
0EFFFFFFFFFFFFC0
08FFFFFFFFFFFF60
01BFFFFFFFFFFA00
0006CEFFFFEB5000
ENDCHAR
STARTCHAR U
ENCODING 85
SWIDTH 578 0
DWIDTH 14 0
BBX 15 17 -1 0
BITMAP
0000001111000000
0007DFFFFFFC6000
01CFB0FFFFD0EB00
09FFB0FFFFD0EF70
0EFFB0FFFFD0EFC0
1FFFB0FFFFD0EFE0
1FFFB0FFFFD0EFE0
1FFFB0FFFFD0EFE0
1FFFB0FFFFD0EFE0
1FFFB0FFFFC0EFE0
1FFFD0577741FFE0
1FFFFA55556BFFE0
1FFFFFFFFFFFFFE0
0EFFFFFFFFFFFFC0
08FFFFFFFFFFFF60
01BFFFFFFFFFFA00
0006CEFFFFEB5000
ENDCHAR
STARTCHAR V
ENCODING 86
SWIDTH 578 0
DWIDTH 14 0
BBX 15 17 -1 0
BITMAP
0000001111000000
0007DFFFFFFC6000
01CFC1DFFFA2EB00
09FFE09FFF63FF70
0EFFF36FFF27FFC0
1FFFF72FFE0BFFE0
1FFFFC0DFA0EFFE0
1FFFFF19F64FFFE0
1FFFFF56F28FFFE0
1FFFFF92D0CFFFE0
1FFFFFD041FFFFE0
1FFFFFF95BFFFFE0
1FFFFFFFFFFFFFE0
0EFFFFFFFFFFFFC0
08FFFFFFFFFFFF60
01BFFFFFFFFFFA00
0006CEFFFFEB5000
ENDCHAR
STARTCHAR W
ENCODING 87
SWIDTH 578 0
DWIDTH 14 0
BBX 15 17 -1 0
BITMAP
0000001111000000
0007DFFFFFFC6000
01CA2FFC7FF84B00
09FB0EF70FF73F70
0EFC0DF50CF55FC0
1FFE0BF20AF46FE0
1FFF0AE047F28FE0
1FFF28C084F1AFE0
1FFF4793A2F0BFE0
1FFF5665C0C0DFE0
1FFF7227E040EFE0
1FFFE66EFB5AFFE0
1FFFFFFFFFFFFFE0
0EFFFFFFFFFFFFC0
08FFFFFFFFFFFF60
01BFFFFFFFFFFA00
0006CEFFFFEB5000
ENDCHAR
STARTCHAR X
ENCODING 88
SWIDTH 578 0
DWIDTH 14 0
BBX 15 17 -1 0
BITMAP
0000001111000000
0007DFFFFFFC6000
01CFE3BFFFC2DB00
09FFF72FFF35FF70
0EFFFE28F91EFFC0
1FFFFFA1B19FFFE0
1FFFFFF403FFFFE0
1FFFFFF212EFFFE0
1FFFFF81D27FFFE0
1FFFFD1AFB0CFFE0
1FFFF45FFF63FFE0
1FFFF7DFFFE7EFE0
1FFFFFFFFFFFFFE0
0EFFFFFFFFFFFFC0
08FFFFFFFFFFFF60
01BFFFFFFFFFFA00
0006CEFFFFEB5000
ENDCHAR
STARTCHAR Y
ENCODING 89
SWIDTH 578 0
DWIDTH 14 0
BBX 15 17 -1 0
BITMAP
0000001111000000
0007DFFFFFFC6000
01CFF26FFF62FB00
09FFF81FFE19FF70
0EFFFE1AF91EFFC0
1FFFFF64F36FFFE0
1FFFFFC090DFFFE0
1FFFFFF304FFFFE0
1FFFFFFA0BFFFFE0
1FFFFFFD0EFFFFE0
1FFFFFFD0EFFFFE0
1FFFFFFD5EFFFFE0
1FFFFFFFFFFFFFE0
0EFFFFFFFFFFFFC0
08FFFFFFFFFFFF60
01BFFFFFFFFFFA00
0006CEFFFFEB5000
ENDCHAR
STARTCHAR Z
ENCODING 90
SWIDTH 578 0
DWIDTH 14 0
BBX 15 17 -1 0
BITMAP
0000001111000000
0007DFFFFFFC6000
01CFF900002FFB00
09FFFECCC42FFF70
0EFFFFFFD0BFFFC0
1FFFFFFF54FFFFE0
1FFFFFFB0CFFFFE0
1FFFFFF36FFFFFE0
1FFFFFA1EFFFFFE0
1FFFFE28FFFFFFE0
1FFFF906777CFFE0
1FFFFC55555BFFE0
1FFFFFFFFFFFFFE0
0EFFFFFFFFFFFFC0
08FFFFFFFFFFFF60
01BFFFFFFFFFFA00
0006CEFFFFEB5000
ENDCHAR
STARTCHAR bracketleft
ENCODING 91
SWIDTH 484 0
DWIDTH 12 0
BBX 13 17 -1 0
BITMAP
00000011000000
0007DFBBFB4000
01CFFE02FFF700
09FFFE0CFFFF30
0EFFFE0CFFFF80
1FFFFE0CFFFFA0
1FFFFE0CFFFFA0
1FFFFE0CFFFFA0
1FFFFE0CFFFFA0
1FFFFE0CFFFFA0
1FFFFE0CFFFFA0
1FFFFE08FFFFA0
1FFFFE23FFFFA0
0EFFFFFFFFFF80
08FFFFFFFFFF30
01BFFFFFFFF700
0006CEFFEA3000
ENDCHAR
STARTCHAR backslash
ENCODING 92
SWIDTH 516 0
DWIDTH 12 0
BBX 14 17 -1 0
BITMAP
00000011100000
0007DFFFFEA200
01CFFF1AFFFE40
09FFFF38FFFFE1
0EFFFF65FFFFF5
1FFFFF83FFFFF6
1FFFFFB0FFFFF7
1FFFFFD0DFFFF7
1FFFFFF1AFFFF7
1FFFFFF38FFFF7
1FFFFFF65FFFF7
1FFFFFFA7FFFF7
1FFFFFFFFFFFF6
0EFFFFFFFFFFF4
08FFFFFFFFFFD0
01BFFFFFFFFE30
0006CEFFFD9200
ENDCHAR
STARTCHAR bracketright
ENCODING 93
SWIDTH 484 0
DWIDTH 12 0
BBX 13 17 -1 0
BITMAP
00000011000000
0007DEBCFB4000
01CFFB04FFF700
09FFFF74FFFF30
0EFFFF74FFFF80
1FFFFF74FFFFA0
1FFFFF74FFFFA0
1FFFFF74FFFFA0
1FFFFF74FFFFA0
1FFFFF74FFFFA0
1FFFFF74FFFFA0
1FFFFD44FFFFA0
1FFFFB26FFFFA0
0EFFFFFFFFFF80
08FFFFFFFFFF30
01BFFFFFFFF700
0006CEFFEA3000
ENDCHAR
STARTCHAR asciicircum
ENCODING 94
SWIDTH 355 0
DWIDTH 9 0
BBX 9 10 0 5
BITMAP
0003410000
00BFFF5000
06FFFFE100
0DFA2FF600
4FF58AFC00
AFC8F6FF30
EF8FF9DF80
EFFFFFFF80
6FFFCFFD20
0241033000
ENDCHAR
STARTCHAR underscore
ENCODING 95
SWIDTH 428 0
DWIDTH 10 0
BBX 12 16 -1 0
BITMAP
0007DFFE9200
01CFFFFFFE30
09FFFFFFFFC0
0EFFFFFFFFF3
1FFFFFFFFFF5
1FFFFFFFFFF5
1FFFFFFFFFF5
1FFFFFFFFFF5
1FFFFFFFFFF5
1FFFFFFFFFF5
1FFCAAAABFF5
1FF700003FF5
0EFFFFFFFFF3
08FFFFFFFFC0
01BFFFFFFE20
0006CEFD8100
ENDCHAR
STARTCHAR grave
ENCODING 96
SWIDTH 308 0
DWIDTH 7 0
BBX 8 9 0 0
BITMAP
00010000
1AEFE800
CFFFFF40
FFB0EF90
BFF39FE0
3FFA5FF3
09FF4FF6
01EFFFF3
005BBB60
ENDCHAR
STARTCHAR a
ENCODING 97
SWIDTH 578 0
DWIDTH 14 0
BBX 15 17 -1 0
BITMAP
0000001111000000
0007DFFFFFFC6000
01CFF500015EFB00
09FFFCBCCA0CFF70
0EFFFFFFFF1CFFC0
1FFFFFFFFF1CFFE0
1FFFFC99990CFFE0
1FFFB023320CFFE0
1FFF74FFFF1CFFE0
1FFF74FFFF1CFFE0
1FFF9167760CFFE0
1FFFF755566DFFE0
1FFFFFFFFFFFFFE0
0EFFFFFFFFFFFFC0
08FFFFFFFFFFFF60
01BFFFFFFFFFFA00
0006CEFFFFEB5000
ENDCHAR
STARTCHAR b
ENCODING 98
SWIDTH 578 0
DWIDTH 14 0
BBX 15 17 -1 0
BITMAP
0000001111000000
0007DFFFFFFC6000
01CF9000002DFB00
09FF92CCCB27FF70
0EFF92FFFF46FFC0
1FFF92FFFF56FFE0
1FFF9022212CFFE0
1FFF91AAA938FFE0
1FFF92FFFF66FFE0
1FFF92FFFF66FFE0
1FFF91777617FFE0
1FFFB555557EFFE0
1FFFFFFFFFFFFFE0
0EFFFFFFFFFFFFC0
08FFFFFFFFFFFF60
01BFFFFFFFFFFA00
0006CEFFFFEB5000
ENDCHAR
STARTCHAR c
ENCODING 99
SWIDTH 578 0
DWIDTH 14 0
BBX 15 17 -1 0
BITMAP
0000001111000000
0007DFFFFFFC6000
01CFF400003FFB00
09FFB0BCCBBFFF70
0EFFA1FFFFFFFFC0
1FFFA1FFFFFFFFE0
1FFFA1FFFFFFFFE0
1FFFA1FFFFFFFFE0
1FFFA1FFFFFFFFE0
1FFFA1FFFFFFFFE0
1FFFC067777FFFE0
1FFFF955557FFFE0
1FFFFFFFFFFFFFE0
0EFFFFFFFFFFFFC0
08FFFFFFFFFFFF60
01BFFFFFFFFFFA00
0006CEFFFFEB5000
ENDCHAR
STARTCHAR d
ENCODING 100
SWIDTH 578 0
DWIDTH 14 0
BBX 15 17 -1 0
BITMAP
0000001111000000
0007DFFFFFFC6000
01CFD0000016FB00
09FFD0BCCC90DF70
0EFFD0EFFFE0CFC0
1FFFD0EFFFE0CFE0
1FFFD0EFFFE0CFE0
1FFFD0EFFFE0CFE0
1FFFD0EFFFE0CFE0
1FFFD0EFFFE0CFE0
1FFFD0677750EFE0
1FFFD555555AFFE0
1FFFFFFFFFFFFFE0
0EFFFFFFFFFFFFC0
08FFFFFFFFFFFF60
01BFFFFFFFFFFA00
0006CEFFFFEB5000
ENDCHAR
STARTCHAR e
ENCODING 101
SWIDTH 578 0
DWIDTH 14 0
BBX 15 17 -1 0
BITMAP
0000001111000000
0007DFFFFFFC6000
01CFE400015FFB00
09FF91BCCA0CFF70
0EFF83FFFF0BFFC0
1FFF8299990BFFE0
1FFF8033333CFFE0
1FFF83FFFFFFFFE0
1FFF83FFFFFFFFE0
1FFF92FFFFEFFFE0
1FFFD101113FFFE0
1FFFFDBAAACFFFE0
1FFFFFFFFFFFFFE0
0EFFFFFFFFFFFFC0
08FFFFFFFFFFFF60
01BFFFFFFFFFFA00
0006CEFFFFEB5000
ENDCHAR
STARTCHAR f
ENCODING 102
SWIDTH 578 0
DWIDTH 14 0
BBX 15 17 -1 0
BITMAP
0000001111000000
0007DFFFFFFC6000
01CFFA000008FB00
09FFFA1CCCCDFF70
0EFFFA1FFFFFFFC0
1FFFFA1FFFFFFFE0
1FFFFA00003FFFE0
1FFFFA1BBBCFFFE0
1FFFFA1FFFFFFFE0
1FFFFA1FFFFFFFE0
1FFFFA1FFFFFFFE0
1FFFFB6FFFFFFFE0
1FFFFFFFFFFFFFE0
0EFFFFFFFFFFFFC0
08FFFFFFFFFFFF60
01BFFFFFFFFFFA00
0006CEFFFFEB5000
ENDCHAR
STARTCHAR g
ENCODING 103
SWIDTH 578 0
DWIDTH 14 0
BBX 15 17 -1 0
BITMAP
0000001111000000
0007DFFFFFFC6000
01CFF9100008FB00
09FFF17CCCBCFF70
0EFFF0BFFFFFFFC0
1FFFF0BFFFFFFFE0
1FFFF0BFEBBBEFE0
1FFFF0BFC000DFE0
1FFFF0BFFFE0DFE0
1FFFF0BFFFE0DFE0
1FFFF2377750EFE0
1FFFFC65555BFFE0
1FFFFFFFFFFFFFE0
0EFFFFFFFFFFFFC0
08FFFFFFFFFFFF60
01BFFFFFFFFFFA00
0006CEFFFFEB5000
ENDCHAR
STARTCHAR h
ENCODING 104
SWIDTH 578 0
DWIDTH 14 0
BBX 15 17 -1 0
BITMAP
0000001111000000
0007DFFFFFFC6000
01CFD0EFFFF0CB00
09FFD0EFFFF0CF70
0EFFD0EFFFF0CFC0
1FFFD0EFFFF0CFE0
1FFFD0111110CFE0
1FFFD09AAAA0CFE0
1FFFD0EFFFF0CFE0
1FFFD0EFFFF0CFE0
1FFFD0EFFFF0CFE0
1FFFD5EFFFF5DFE0
1FFFFFFFFFFFFFE0
0EFFFFFFFFFFFFC0
08FFFFFFFFFFFF60
01BFFFFFFFFFFA00
0006CEFFFFEB5000
ENDCHAR
STARTCHAR i
ENCODING 105
SWIDTH 578 0
DWIDTH 14 0
BBX 15 17 -1 0
BITMAP
0000001111000000
0007DFFFFFFC6000
01CFF3000000FB00
09FFFCCB09CCFF70
0EFFFFFF0CFFFFC0
1FFFFFFF0CFFFFE0
1FFFFFFF0CFFFFE0
1FFFFFFF0CFFFFE0
1FFFFFFF0CFFFFE0
1FFFFFFF0CFFFFE0
1FFFF8770577FFE0
1FFFF7555555FFE0
1FFFFFFFFFFFFFE0
0EFFFFFFFFFFFFC0
08FFFFFFFFFFFF60
01BFFFFFFFFFFA00
0006CEFFFFEB5000
ENDCHAR
STARTCHAR j
ENCODING 106
SWIDTH 578 0
DWIDTH 14 0
BBX 15 17 -1 0
BITMAP
0000001111000000
0007DFFFFFFC6000
01CFFFFFF0CFFB00
09FFFFFFF0CFFF70
0EFFFFFFF0CFFFC0
1FFFFFFFF0CFFFE0
1FFFFFFFF0CFFFE0
1FFFFFFFF0CFFFE0
1FFFFFFFF0CFFFE0
1FFFFFFFF0CFFFE0
1FFFFF9750CFFFE0
1FFFFF855AFFFFE0
1FFFFFFFFFFFFFE0
0EFFFFFFFFFFFFC0
08FFFFFFFFFFFF60
01BFFFFFFFFFFA00
0006CEFFFFEB5000
ENDCHAR
STARTCHAR k
ENCODING 107
SWIDTH 578 0
DWIDTH 14 0
BBX 15 17 -1 0
BITMAP
0000001111000000
0007DFFFFFFB6000
01CFFC0FFFD28B00
09FFFC0FFD23EF70
0EFFFC0FD23EFFC0
1FFFFC0C24EFFFE0
1FFFFC012EFFFFE0
1FFFFC0508FFFFE0
1FFFFC0F90AFFFE0
1FFFFC0FF71CFFE0
1FFFFC0FFF51DFE0
1FFFFD5FFFE5DFE0
1FFFFFFFFFFFFFE0
0EFFFFFFFFFFFFC0
08FFFFFFFFFFFF60
01BFFFFFFFFFFA00
0006CEFFFFEB5000
ENDCHAR
STARTCHAR l
ENCODING 108
SWIDTH 578 0
DWIDTH 14 0
BBX 15 17 -1 0
BITMAP
0000001111000000
0007DFFFFFFC6000
01CFFF48FFFFFB00
09FFFF48FFFFFF70
0EFFFF48FFFFFFC0
1FFFFF48FFFFFFE0
1FFFFF48FFFFFFE0
1FFFFF48FFFFFFE0
1FFFFF48FFFFFFE0
1FFFFF48FFFFFFE0
1FFFFF43777EFFE0
1FFFFF75555EFFE0
1FFFFFFFFFFFFFE0
0EFFFFFFFFFFFFC0
08FFFFFFFFFFFF60
01BFFFFFFFFFFA00
0006CEFFFFEB5000
ENDCHAR
STARTCHAR m
ENCODING 109
SWIDTH 578 0
DWIDTH 14 0
BBX 15 17 -1 0
BITMAP
0000001111000000
0007DFFFFFFC6000
01CF61017002BB00
09FF08C71BB46F70
0EFF0BFA1FF56FC0
1FFF0BFA1FF56FE0
1FFF0BFA1FF56FE0
1FFF0BFA1FF56FE0
1FFF0BFDBFF56FE0
1FFF0BFFFFF56FE0
1FFF0BFFFFF56FE0
1FFF5CFFFFF89FE0
1FFFFFFFFFFFFFE0
0EFFFFFFFFFFFFC0
08FFFFFFFFFFFF60
01BFFFFFFFFFFA00
0006CEFFFFEB5000
ENDCHAR
STARTCHAR n
ENCODING 110
SWIDTH 578 0
DWIDTH 14 0
BBX 15 17 -1 0
BITMAP
0000001111000000
0007DFFFFFFC6000
01CFD3100019FB00
09FFC0ACCC62FF70
0EFFC0FFFFA1FFC0
1FFFC0FFFFA1FFE0
1FFFC0FFFFA1FFE0
1FFFC0FFFFA1FFE0
1FFFC0FFFFA1FFE0
1FFFC0FFFFA1FFE0
1FFFC0FFFFA1FFE0
1FFFD5FFFFC5FFE0
1FFFFFFFFFFFFFE0
0EFFFFFFFFFFFFC0
08FFFFFFFFFFFF60
01BFFFFFFFFFFA00
0006CEFFFFEB5000
ENDCHAR
STARTCHAR o
ENCODING 111
SWIDTH 578 0
DWIDTH 14 0
BBX 15 17 -1 0
BITMAP
0000001111000000
0007DFFFFFFC6000
01CFF6100017FB00
09FFD09CCB90EF70
0EFFC0EFFFE0DFC0
1FFFC0EFFFE0DFE0
1FFFC0EFFFE0DFE0
1FFFC0EFFFE0DFE0
1FFFC0EFFFE0DFE0
1FFFC0EFFFE0DFE0
1FFFE0577750EFE0
1FFFFA55555BFFE0
1FFFFFFFFFFFFFE0
0EFFFFFFFFFFFFC0
08FFFFFFFFFFFF60
01BFFFFFFFFFFA00
0006CEFFFFEB5000
ENDCHAR
STARTCHAR p
ENCODING 112
SWIDTH 578 0
DWIDTH 14 0
BBX 15 17 -1 0
BITMAP
0000001111000000
0007DFFFFFFC6000
01CFF600001AFB00
09FFF64CCB62FF70
0EFFF65FFFA1FFC0
1FFFF65FFFA1FFE0
1FFFF65FFF82FFE0
1FFFF6000007FFE0
1FFFF64CCCDFFFE0
1FFFF65FFFFFFFE0
1FFFF65FFFFFFFE0
1FFFF98FFFFFFFE0
1FFFFFFFFFFFFFE0
0EFFFFFFFFFFFFC0
08FFFFFFFFFFFF60
01BFFFFFFFFFFA00
0006CEFFFFEB5000
ENDCHAR
STARTCHAR q
ENCODING 113
SWIDTH 578 0
DWIDTH 14 0
BBX 15 17 -1 0
BITMAP
0000001111000000
0007DFFFFFFC6000
01CFF6100016FB00
09FFE09CCC90DF70
0EFFD0EFFFE0CFC0
1FFFD0EFFFE0CFE0
1FFFD0EFFFE0CFE0
1FFFD0EFFFE0CFE0
1FFFD0EFFFE0CFE0
1FFFD0EF6BE0CFE0
1FFFE0572250EFE0
1FFFFB55503AFFE0
1FFFFFFFF63FFFE0
0EFFFFFFFECFFFC0
08FFFFFFFFFFFF60
01BFFFFFFFFFFA00
0006CEFFFFEB5000
ENDCHAR
STARTCHAR r
ENCODING 114
SWIDTH 578 0
DWIDTH 14 0
BBX 15 17 -1 0
BITMAP
0000001111000000
0007DFFFFFFC6000
01CFF000004EFB00
09FFF08CCA19FF70
0EFFF0BFFF48FFC0
1FFFF0BFFF39FFE0
1FFFF068863DFFE0
1FFFF023325DFFE0
1FFFF0BFFF48FFE0
1FFFF0BFFF56FFE0
1FFFF0BFFF56FFE0
1FFFF5CFFF89FFE0
1FFFFFFFFFFFFFE0
0EFFFFFFFFFFFFC0
08FFFFFFFFFFFF60
01BFFFFFFFFFFA00
0006CEFFFFEB5000
ENDCHAR
STARTCHAR s
ENCODING 115
SWIDTH 578 0
DWIDTH 14 0
BBX 15 17 -1 0
BITMAP
0000001111000000
0007DFFFFFFC6000
01CFFA100018FB00
09FFF26BCCBDFF70
0EFFF1AFFFFFFFC0
1FFFF1AFFFFFFFE0
1FFFF502223BFFE0
1FFFFFB99952FFE0
1FFFFFFFFFA1FFE0
1FFFFFFFFFA1FFE0
1FFFFB677733FFE0
1FFFFB55556CFFE0
1FFFFFFFFFFFFFE0
0EFFFFFFFFFFFFC0
08FFFFFFFFFFFF60
01BFFFFFFFFFFA00
0006CEFFFFEB5000
ENDCHAR
STARTCHAR t
ENCODING 116
SWIDTH 578 0
DWIDTH 14 0
BBX 15 17 -1 0
BITMAP
0000001111000000
0007DFFFFFFC6000
01CFF3000000FB00
09FFFCCB09CCFF70
0EFFFFFF0CFFFFC0
1FFFFFFF0CFFFFE0
1FFFFFFF0CFFFFE0
1FFFFFFF0CFFFFE0
1FFFFFFF0CFFFFE0
1FFFFFFF0CFFFFE0
1FFFFFFF0CFFFFE0
1FFFFFFF5DFFFFE0
1FFFFFFFFFFFFFE0
0EFFFFFFFFFFFFC0
08FFFFFFFFFFFF60
01BFFFFFFFFFFA00
0006CEFFFFEB5000
ENDCHAR
STARTCHAR u
ENCODING 117
SWIDTH 578 0
DWIDTH 14 0
BBX 15 17 -1 0
BITMAP
0000001111000000
0007DFFFFFFC6000
01CFB0FFFFD0EB00
09FFB0FFFFD0EF70
0EFFB0FFFFD0EFC0
1FFFB0FFFFD0EFE0
1FFFB0FFFFD0EFE0
1FFFB0FFFFD0EFE0
1FFFB0FFFFD0EFE0
1FFFB0FFFFC0EFE0
1FFFD0577741FFE0
1FFFFA55556BFFE0
1FFFFFFFFFFFFFE0
0EFFFFFFFFFFFFC0
08FFFFFFFFFFFF60
01BFFFFFFFFFFA00
0006CEFFFFEB5000
ENDCHAR
STARTCHAR v
ENCODING 118
SWIDTH 578 0
DWIDTH 14 0
BBX 15 17 -1 0
BITMAP
0000001111000000
0007DFFFFFFC6000
01CFC1DFFFA2EB00
09FFE09FFF63FF70
0EFFF36FFF27FFC0
1FFFF72FFE0BFFE0
1FFFFC0DFA0EFFE0
1FFFFF19F64FFFE0
1FFFFF56F28FFFE0
1FFFFF92D0CFFFE0
1FFFFFD041FFFFE0
1FFFFFF95BFFFFE0
1FFFFFFFFFFFFFE0
0EFFFFFFFFFFFFC0
08FFFFFFFFFFFF60
01BFFFFFFFFFFA00
0006CEFFFFEB5000
ENDCHAR
STARTCHAR w
ENCODING 119
SWIDTH 578 0
DWIDTH 14 0
BBX 15 17 -1 0
BITMAP
0000001111000000
0007DFFFFFFC6000
01CA2FFC7FF84B00
09FB0EF70FF73F70
0EFC0DF50CF55FC0
1FFE0BF20AF46FE0
1FFF0AE047F28FE0
1FFF28C084F1AFE0
1FFF4793A2F0BFE0
1FFF5665C0C0DFE0
1FFF7227E040EFE0
1FFFE66EFB5AFFE0
1FFFFFFFFFFFFFE0
0EFFFFFFFFFFFFC0
08FFFFFFFFFFFF60
01BFFFFFFFFFFA00
0006CEFFFFEB5000
ENDCHAR
STARTCHAR x
ENCODING 120
SWIDTH 578 0
DWIDTH 14 0
BBX 15 17 -1 0
BITMAP
0000001111000000
0007DFFFFFFC6000
01CFE3BFFFC2DB00
09FFF72FFF35FF70
0EFFFE28F91EFFC0
1FFFFFA1B19FFFE0
1FFFFFF403FFFFE0
1FFFFFF212EFFFE0
1FFFFF81D27FFFE0
1FFFFD1AFB0CFFE0
1FFFF45FFF63FFE0
1FFFF7DFFFE7EFE0
1FFFFFFFFFFFFFE0
0EFFFFFFFFFFFFC0
08FFFFFFFFFFFF60
01BFFFFFFFFFFA00
0006CEFFFFEB5000
ENDCHAR
STARTCHAR y
ENCODING 121
SWIDTH 578 0
DWIDTH 14 0
BBX 15 17 -1 0
BITMAP
0000001111000000
0007DFFFFFFC6000
01CFF26FFF62FB00
09FFF81FFE19FF70
0EFFFE1AF91EFFC0
1FFFFF64F36FFFE0
1FFFFFC090DFFFE0
1FFFFFF304FFFFE0
1FFFFFFA0BFFFFE0
1FFFFFFD0EFFFFE0
1FFFFFFD0EFFFFE0
1FFFFFFD5EFFFFE0
1FFFFFFFFFFFFFE0
0EFFFFFFFFFFFFC0
08FFFFFFFFFFFF60
01BFFFFFFFFFFA00
0006CEFFFFEB5000
ENDCHAR
STARTCHAR z
ENCODING 122
SWIDTH 578 0
DWIDTH 14 0
BBX 15 17 -1 0
BITMAP
0000001111000000
0007DFFFFFFC6000
01CFF900002FFB00
09FFFECCC42FFF70
0EFFFFFFD0BFFFC0
1FFFFFFF54FFFFE0
1FFFFFFB0CFFFFE0
1FFFFFF36FFFFFE0
1FFFFFA1EFFFFFE0
1FFFFE28FFFFFFE0
1FFFF906777CFFE0
1FFFFC55555BFFE0
1FFFFFFFFFFFFFE0
0EFFFFFFFFFFFFC0
08FFFFFFFFFFFF60
01BFFFFFFFFFFA00
0006CEFFFFEB5000
ENDCHAR
STARTCHAR braceleft
ENCODING 123
SWIDTH 484 0
DWIDTH 12 0
BBX 13 17 -1 0
BITMAP
00000011000000
0007DFDBBB4000
01CFF9003FF700
09FFF47FFFFF30
0EFFF48FFFFF80
1FFFF48FFFFFA0
1FFAA19FFFFFA0
1FE110BFFFFFA0
1FFFF28FFFFFA0
1FFFF48FFFFFA0
1FFFF48FFFFFA0
1FFFF549BFFFA0
1FFFFC325FFFA0
0EFFFFFFFFFF80
08FFFFFFFFFF30
01BFFFFFFFF700
0006CEFFEA3000
ENDCHAR
STARTCHAR bar
ENCODING 124
SWIDTH 484 0
DWIDTH 12 0
BBX 13 16 -1 0
BITMAP
0007DF5AFB4000
01CFFF5AFFF700
09FFFF5AFFFF30
0EFFFF5AFFFF80
1FFFFF5AFFFFA0
1FFFFF5AFFFFA0
1FFFFF5AFFFFA0
1FFFFF5AFFFFA0
1FFFFF5AFFFFA0
1FFFFF5AFFFFA0
1FFFFF5AFFFFA0
1FFFFF9CFFFFA0
0EFFFFFFFFFF80
08FFFFFFFFFF30
01BFFFFFFFF700
0006CEFFEA3000
ENDCHAR
STARTCHAR braceright
ENCODING 125
SWIDTH 484 0
DWIDTH 12 0
BBX 13 17 -1 0
BITMAP
00000011000000
0007CBBEFB4000
01CFD001DFF700
09FFFFF2AFFF30
0EFFFFF39FFF80
1FFFFFF39FFFA0
1FFFFFF44ABFA0
1FFFFFF6015FA0
1FFFFFF38FFFA0
1FFFFFF39FFFA0
1FFFFFF39FFFA0
1FFFEA90AFFFA0
1FFFD225FFFFA0
0EFFFFFFFFFF80
08FFFFFFFFFF30
01BFFFFFFFF700
0006CEFFEA3000
ENDCHAR
STARTCHAR asciitilde
ENCODING 126
SWIDTH 578 0
DWIDTH 14 0
BBX 15 17 -1 0
BITMAP
0000001111000000
0007DFFFFFFC6000
01CFFFFFFFFFFB00
09FFFFFFFFFFFF70
0EFFFECEFFBCFFC0
1FFFD0104829FFE0
1FFFB3FC744EFFE0
1FFFFFFFFFFFFFE0
1FFFFFFFFFFFFFE0
1FFFFFFFFFFFFFE0
1FFFFFFFFFFFFFE0
1FFFFFFFFFFFFFE0
1FFFFFFFFFFFFFE0
0EFFFFFFFFFFFFC0
08FFFFFFFFFFFF60
01BFFFFFFFFFFA00
0006CEFFFFEB5000
ENDCHAR
STARTCHAR uni00A0
ENCODING 160
SWIDTH 151 0
DWIDTH 4 0
BBX 1 1 0 0
BITMAP
00
ENDCHAR
STARTCHAR exclamdown
ENCODING 161
SWIDTH 424 0
DWIDTH 10 0
BBX 12 16 -1 0
BITMAP
0007DFFD8100
01CFF83FFD20
09FFFDCFFFB0
0EFFFD6FFFF2
1FFFFC4FFFF3
1FFFFC4FFFF4
1FFFFC4FFFF4
1FFFFC4FFFF4
1FFFFC4FFFF4
1FFFFC4FFFF4
1FFFFD5FFFF4
1FFFFFFFFFF3
0EFFFFFFFFF1
08FFFFFFFFB0
01BFFFFFFD20
0006CEFC8100
ENDCHAR
STARTCHAR cent
ENCODING 162
SWIDTH 578 0
DWIDTH 14 0
BBX 15 17 -1 0
BITMAP
0000001111000000
0007DFFEAFFC6000
01CFFFFC4FFFFB00
09FFFD42138FFF70
0EFFF53728AFFFC0
1FFFF47C4FFFFFE0
1FFFF48C4FFFFFE0
1FFFF48C4FFFFFE0
1FFFF48C4FFFFFE0
1FFFF47C4FEFFFE0
1FFFF900006FFFE0
1FFFFFD93BDFFFE0
1FFFFFFC5FFFFFE0
0EFFFFFFFFFFFFC0
08FFFFFFFFFFFF60
01BFFFFFFFFFFA00
0006CEFFFFEB5000
ENDCHAR
STARTCHAR sterling
ENCODING 163
SWIDTH 578 0
DWIDTH 14 0
BBX 15 17 -1 0
BITMAP
0000001111000000
0007DFFFFFFC6000
01CFFF81019FFB00
09FFFF07C71FFF70
0EFFFF0BFB4FFFC0
1FFFFF0BFFFFFFE0
1FFFFA0799DFFFE0
1FFFF90577DFFFE0
1FFFFF0BFFFFFFE0
1FFFFF0BFFFFFFE0
1FFFFF05778FFFE0
1FFFFF55556FFFE0
1FFFFFFFFFFFFFE0
0EFFFFFFFFFFFFC0
08FFFFFFFFFFFF60
01BFFFFFFFFFFA00
0006CEFFFFEB5000
ENDCHAR
STARTCHAR currency
ENCODING 164
SWIDTH 578 0
DWIDTH 14 0
BBX 15 17 -1 0
BITMAP
0000001111000000
0007DFFFFFFC6000
01CFE5DDDDC6FB00
09FFF6011109FF70
0EFFF95FFF2CFFC0
1FFFF86FFF2CFFE0
1FFFF86FFF2CFFE0
1FFFF95FFF1CFFE0
1FFFF701110AFFE0
1FFFE3CDCDA5FFE0
1FFFFFFFFFFFFFE0
1FFFFFFFFFFFFFE0
1FFFFFFFFFFFFFE0
0EFFFFFFFFFFFFC0
08FFFFFFFFFFFF60
01BFFFFFFFFFFA00
0006CEFFFFEB5000
ENDCHAR
STARTCHAR yen
ENCODING 165
SWIDTH 578 0
DWIDTH 14 0
BBX 15 17 -1 0
BITMAP
0000001111000000
0007DFFFFFFC6000
01CFB0DFFE18FB00
09FFF27FF91EFF70
0EFFF81FF36FFFC0
1FFFFE1AC0DFFFE0
1FFFFF6464FFFFE0
1FFFFFB00AFFFFE0
1FFFFB10019FFFE0
1FFFFC4214AFFFE0
1FFFFEC54CEFFFE0
1FFFFFF98FFFFFE0
1FFFFFFFFFFFFFE0
0EFFFFFFFFFFFFC0
08FFFFFFFFFFFF60
01BFFFFFFFFFFA00
0006CEFFFFEB5000
ENDCHAR
STARTCHAR brokenbar
ENCODING 166
SWIDTH 484 0
DWIDTH 12 0
BBX 13 17 -1 0
BITMAP
00000011000000
0007DFFFFB4000
01CFFF48FFF700
09FFFF48FFFF30
0EFFFF48FFFF80
1FFFFF48FFFFA0
1FFFFFEFFFFFA0
1FFFFF8BFFFFA0
1FFFFF48FFFFA0
1FFFFF48FFFFA0
1FFFFF48FFFFA0
1FFFFF7AFFFFA0
1FFFFFFFFFFFA0
0EFFFFFFFFFF80
08FFFFFFFFFF30
01BFFFFFFFF700
0006CEFFEA3000
ENDCHAR
STARTCHAR section
ENCODING 167
SWIDTH 578 0
DWIDTH 14 0
BBX 15 17 -1 0
BITMAP
0000001111000000
0007DFFFFFFC6000
01CFFC32222BFB00
09FFF48DDDCEFF70
0EFFF3CFFFFFFFC0
1FFFF72558FFFFE0
1FFFFF29A2BFFFE0
1FFFFF1EF5AFFFE0
1FFFFF53418FFFE0
1FFFFFFCBA1DFFE0
1FFFFFFFFF3CFFE0
1FFFFBCCCB1DFFE0
1FFFF433338FFFE0
0EFFFFFFFFFFFFC0
08FFFFFFFFFFFF60
01BFFFFFFFFFFA00
0006CEFFFFEB5000
ENDCHAR
STARTCHAR dieresis
ENCODING 168
SWIDTH 388 0
DWIDTH 9 0
BBX 10 7 0 0
BITMAP
018CEDA300
3EFFFFFF70
CFFFFFFFF2
FF54F63FF5
EF98F97FF3
7FFFFFFFC0
0688888710
ENDCHAR
STARTCHAR copyright
ENCODING 169
SWIDTH 578 0
DWIDTH 14 0
BBX 15 17 -1 0
BITMAP
0000001111000000
0007DFFFFFFC6000
01CFFA43437EFB00
09FF65EFFFA3DF70
0EF96F5222BC3FC0
1FF3EF2FFFFF89E0
1FC6FF2FFFFFD5E0
1FA8FF2FFFFFE4E0
1FC6FF2FFFFFD5E0
1FF3EF2EEEEF89E0
1FF96F8333BC3FE0
1FFF65DFFF93DFE0
1FFFFB43337EFFE0
0EFFFFFFFFFFFFC0
08FFFFFFFFFFFF60
01BFFFFFFFFFFA00
0006CEFFFFEB5000
ENDCHAR
STARTCHAR ordfeminine
ENCODING 170
SWIDTH 578 0
DWIDTH 14 0
BBX 15 17 -1 0
BITMAP
0000001111000000
0007DFFFFFFC6000
01CFFF30015FFB00
09FFFFBBCA0CFF70
0EFFFFFFFF1BFFC0
1FFFFFB9990BFFE0
1FFFF902320BFFE0
1FFFF56FFF1BFFE0
1FFFF63BCA0CFFE0
1FFFFC20005FFFE0
1FFFFFFFFFFFFFE0
1FFFFFFFFFFFFFE0
1FFFFFFFFFFFFFE0
0EFFFFFFFFFFFFC0
08FFFFFFFFFFFF60
01BFFFFFFFFFFA00
0006CEFFFFEB5000
ENDCHAR
STARTCHAR guillemotleft
ENCODING 171
SWIDTH 578 0
DWIDTH 14 0
BBX 15 17 -1 0
BITMAP
0000001111000000
0007DFFFFFFC6000
01CFFFFFFFFFFB00
09FFFFF6FE6FFF70
0EFFFF97F6AFFFC0
1FFFFD3F96FFFFE0
1FFFF3CD3FFFFFE0
1FFF97F3CFFFFFE0
1FFFD3EA6FFFFFE0
1FFFFA6F69FFFFE0
1FFFFF6AF3DFFFE0
1FFFFFE4FD4FFFE0
1FFFFFFEFFEFFFE0
0EFFFFFFFFFFFFC0
08FFFFFFFFFFFF60
01BFFFFFFFFFFA00
0006CEFFFFEB5000
ENDCHAR
STARTCHAR uni00AD
ENCODING 173
SWIDTH 428 0
DWIDTH 10 0
BBX 12 16 -1 0
BITMAP
0007DFFE9200
01CFFFFFFE30
09FFFFFFFFC0
0EFFFFFFFFF3
1FFE0000AFF5
1FFFCCCCEFF5
1FFFFFFFFFF5
1FFFFFFFFFF5
1FFFFFFFFFF5
1FFFFFFFFFF5
1FFFFFFFFFF5
1FFFFFFFFFF5
0EFFFFFFFFF3
08FFFFFFFFC0
01BFFFFFFE20
0006CEFD8100
ENDCHAR
STARTCHAR registered
ENCODING 174
SWIDTH 578 0
DWIDTH 14 0
BBX 15 17 -1 0
BITMAP
0000001111000000
0007DFFFFFFC6000
01CFFA43437EFB00
09FF65DFFFA3DF70
0EF96F1221BC3FC0
1FF3EF2FFB6F89E0
1FC6FF2FFB7FD5E0
1FA8FF1223DFE4E0
1FC6FF2EEA6FD5E0
1FF3EF2FFC5F89E0
1FF96F5FFD7C3FE0
1FFF65DFFF93DFE0
1FFFFB43337EFFE0
0EFFFFFFFFFFFFC0
08FFFFFFFFFFFF60
01BFFFFFFFFFFA00
0006CEFFFFEB5000
ENDCHAR
STARTCHAR macron
ENCODING 175
SWIDTH 428 0
DWIDTH 10 0
BBX 11 7 0 0
BITMAP
018CFFD92000
2DFFFFFFF500
BFFFFFFFFE10
FFC4444DFF40
EFD7777EFF30
8FFFFFFFFC00
09FFFFFFC200
ENDCHAR
STARTCHAR degree
ENCODING 176
SWIDTH 428 0
DWIDTH 10 0
BBX 12 16 -1 0
BITMAP
0007DFFE9200
01CFA337FE30
09FF19B2CFC0
0EFF1DF3BFF3
1FFF5112EFF5
1FFFFEDFFFF5
1FFFFFFFFFF5
1FFFFFFFFFF5
1FFFFFFFFFF5
1FFFFFFFFFF5
1FFFFFFFFFF5
1FFFFFFFFFF5
0EFFFFFFFFF3
08FFFFFFFFC0
01BFFFFFFE20
0006CEFD8100
ENDCHAR
STARTCHAR plusminus
ENCODING 177
SWIDTH 428 0
DWIDTH 10 0
BBX 12 16 -1 0
BITMAP
0007DFFE9200
01CFF92FFE30
09FFF92FFFC0
0EF843144EF3
1FFA74177EF5
1FFFF92FFFF5
1FFFFA5FFFF5
1FFFBBBBEFF5
1FFE0000AFF5
1FFFFFFFFFF5
1FFFFFFFFFF5
1FFFFFFFFFF5
0EFFFFFFFFF3
08FFFFFFFFC0
01BFFFFFFE20
0006CEFD8100
ENDCHAR
STARTCHAR uni00B2
ENCODING 178
SWIDTH 578 0
DWIDTH 14 0
BBX 15 17 -1 0
BITMAP
0000001111000000
0007DFFFFFFC6000
01CFFE4002CFFB00
09FFFA1BB46FFF70
0EFFFFEA826FFFC0
1FFFFD1137EFFFE0
1FFFFA2FFFFFFFE0
1FFFFB0111DFFFE0
1FFFFFBAAAEFFFE0
1FFFFFFFFFFFFFE0
1FFFFFFFFFFFFFE0
1FFFFFFFFFFFFFE0
1FFFFFFFFFFFFFE0
0EFFFFFFFFFFFFC0
08FFFFFFFFFFFF60
01BFFFFFFFFFFA00
0006CEFFFFEB5000
ENDCHAR
STARTCHAR uni00B3
ENCODING 179
SWIDTH 578 0
DWIDTH 14 0
BBX 15 17 -1 0
BITMAP
0000001111000000
0007DFFFFFFC6000
01CFFF61004EFB00
09FFFD3ACB19FF70
0EFFFFFD870BFFC0
1FFFFFFC660BFFE0
1FFFFD5DFF19FFE0
1FFFFF20101DFFE0
1FFFFFEBABDFFFE0
1FFFFFFFFFFFFFE0
1FFFFFFFFFFFFFE0
1FFFFFFFFFFFFFE0
1FFFFFFFFFFFFFE0
0EFFFFFFFFFFFFC0
08FFFFFFFFFFFF60
01BFFFFFFFFFFA00
0006CEFFFFEB5000
ENDCHAR
STARTCHAR acute
ENCODING 180
SWIDTH 308 0
DWIDTH 7 0
BBX 8 8 0 0
BITMAP
04CFFC50
0DFFFFF3
3FF46FF6
8FE1CFF2
CFA4FF80
FF7BFE10
DFFFF600
2ABB9000
ENDCHAR
STARTCHAR uni00B5
ENCODING 181
SWIDTH 578 0
DWIDTH 14 0
BBX 15 17 -1 0
BITMAP
0000001111000000
0007DFFFFFFC6000
01CF75FFFF83FB00
09FF75FFFF83FF70
0EFF75FFFF83FFC0
1FFF75FFFF83FFE0
1FFF75FFFF83FFE0
1FFF75FFFF83FFE0
1FFF75FFFF83FFE0
1FFF75FFFF83FFE0
1FFF71666625FFE0
1FFF7255556EFFE0
1FFF75FFFFFFFFE0
0EFFDDFFFFFFFFC0
08FFFFFFFFFFFF60
01BFFFFFFFFFFA00
0006CEFFFFEB5000
ENDCHAR
STARTCHAR paragraph
ENCODING 182
SWIDTH 578 0
DWIDTH 14 0
BBX 15 17 -1 0
BITMAP
0000001111000000
0007DFFFFFFC6000
01CFF844444EFB00
09FFC0000C5EFF70
0EFFB0000C5EFFC0
1FFFB0000C5EFFE0
1FFFE2000C5EFFE0
1FFFFFDC5C5EFFE0
1FFFFFFF7C5EFFE0
1FFFFFFF7C5EFFE0
1FFFFFFF7C5EFFE0
1FFFFFFFBEBFFFE0
1FFFFFFFFFFFFFE0
0EFFFFFFFFFFFFC0
08FFFFFFFFFFFF60
01BFFFFFFFFFFA00
0006CEFFFFEB5000
ENDCHAR
STARTCHAR periodcentered
ENCODING 183
SWIDTH 428 0
DWIDTH 10 0
BBX 12 16 -1 0
BITMAP
0007DFFE9200
01CFFFFFFE30
09FFFFFFFFC0
0EFFFFFFFFF3
1FFFF61FFFF5
1FFFFA8FFFF5
1FFFFFFFFFF5
1FFFFFFFFFF5
1FFFFFFFFFF5
1FFFFFFFFFF5
1FFFFFFFFFF5
1FFFFFFFFFF5
0EFFFFFFFFF3
08FFFFFFFFC0
01BFFFFFFE20
0006CEFD8100
ENDCHAR
STARTCHAR cedilla
ENCODING 184
SWIDTH 101 0
DWIDTH 2 0
BBX 3 4 0 -4
BITMAP
5B60
F620
E830
4950
ENDCHAR
STARTCHAR uni00B9
ENCODING 185
SWIDTH 578 0
DWIDTH 14 0
BBX 15 17 -1 0
BITMAP
0000001111000000
0007DFFFFFFC6000
01CFFF821FFFFB00
09FFFF661FFFFF70
0EFFFFFA1FFFFFC0
1FFFFFFA1FFFFFE0
1FFFFFFA1FFFFFE0
1FFFFFFA1FFFFFE0
1FFFFFFDBFFFFFE0
1FFFFFFFFFFFFFE0
1FFFFFFFFFFFFFE0
1FFFFFFFFFFFFFE0
1FFFFFFFFFFFFFE0
0EFFFFFFFFFFFFC0
08FFFFFFFFFFFF60
01BFFFFFFFFFFA00
0006CEFFFFEB5000
ENDCHAR
STARTCHAR ordmasculine
ENCODING 186
SWIDTH 578 0
DWIDTH 14 0
BBX 15 17 -1 0
BITMAP
0000001111000000
0007DFFFFFFC6000
01CFFC20001AFB00
09FFF54BCB62FF70
0EFFF48FFFA1FFC0
1FFFF48FFFA1FFE0
1FFFF48FFFA1FFE0
1FFFF47FFFA1FFE0
1FFFF54BCB62FFE0
1FFFFB10001AFFE0
1FFFFFFFFFFFFFE0
1FFFFFFFFFFFFFE0
1FFFFFFFFFFFFFE0
0EFFFFFFFFFFFFC0
08FFFFFFFFFFFF60
01BFFFFFFFFFFA00
0006CEFFFFEB5000
ENDCHAR
STARTCHAR guillemotright
ENCODING 187
SWIDTH 578 0
DWIDTH 14 0
BBX 15 17 -1 0
BITMAP
0000001111000000
0007DFFFFFFC6000
01CFFFFFFFFFFB00
09FFF6FE7FFFFF70
0EFFF88F5BFFFFC0
1FFFFF4BE3EFFFE0
1FFFFFE3EB5FFFE0
1FFFFFFA5F5BFFE0
1FFFFFF4BD3EFFE0
1FFFFF88F4CFFFE0
1FFFFB4F97FFFFE0
1FFFF3EE4FFFFFE0
1FFFFEFFEFFFFFE0
0EFFFFFFFFFFFFC0
08FFFFFFFFFFFF60
01BFFFFFFFFFFA00
0006CEFFFFEB5000
ENDCHAR
STARTCHAR onequarter
ENCODING 188
SWIDTH 578 0
DWIDTH 14 0
BBX 15 17 -1 0
BITMAP
0000001111000000
0007CFFFFFFC6000
01B507F92FFFFB00
09D637F66FFFFF70
0EFF57F29FFFFFC0
1FFF57D0DFFFFFE0
1FFF57A185F85FE0
1FFF576584F74FE0
1FFFCC2984F74FE0
1FFFFE0C82B53CD0
1FFFFA1FE30000C0
1FFFF98FFFF74FE0
1FFFFFFFFFF86FE0
0EFFFFFFFFFFFFC0
08FFFFFFFFFFFF60
01BFFFFFFFFFFA00
0006CEFFFFEB5000
ENDCHAR
STARTCHAR onehalf
ENCODING 189
SWIDTH 578 0
DWIDTH 14 0
BBX 15 17 -1 0
BITMAP
0000001111000000
0007CFFFFFFC6000
01B507F92FFFFB00
09D637F66FFFFF70
0EFF57F29FFFFFC0
1FFF57D0D9668FE0
1FFF57A1B05618E0
1FFF5765DAFD46E0
1FFFCC29E5102CE0
1FFFFE0CA1BDFFE0
1FFFFA1F91777EE0
1FFFF98FE6555EE0
1FFFFFFFFFFFFFE0
0EFFFFFFFFFFFFC0
08FFFFFFFFFFFF60
01BFFFFFFFFFFA00
0006CEFFFFEB5000
ENDCHAR
STARTCHAR threequarters
ENCODING 190
SWIDTH 578 0
DWIDTH 14 0
BBX 15 17 -1 0
BITMAP
0000001111000000
0007CFFFFFFC6000
01B507F92FFFFB00
09D637F66FFFFF70
0EFF57F29FFFFFC0
1FFF57D0D9667DE0
1FFF57A1915532E0
1FFF5765EDFE90E0
1FFFCC29FF5003E0
1FFFFE0CDCFFB0E0
1FFFFA1F817741E0
1FFFF98FF7445BE0
1FFFFFFFFFFFFFE0
0EFFFFFFFFFFFFC0
08FFFFFFFFFFFF60
01BFFFFFFFFFFA00
0006CEFFFFEB5000
ENDCHAR
STARTCHAR questiondown
ENCODING 191
SWIDTH 578 0
DWIDTH 14 0
BBX 15 17 -1 0
BITMAP
0000001111000000
0007DFFFEFFC6000
01CFFFFF38FFFB00
09FFFFFFBDFFFF70
0EFFFFFF5AFFFFC0
1FFFFFDB4AFFFFE0
1FFFFA134DFFFFE0
1FFFF5AFFFFFFFE0
1FFFF5AFFFFFFFE0
1FFFF5AFFFC9FFE0
1FFFF9365538FFE0
1FFFFFB999BFFFE0
1FFFFFFFFFFFFFE0
0EFFFFFFFFFFFFC0
08FFFFFFFFFFFF60
01BFFFFFFFFFFA00
0006CEFFFFEB5000
ENDCHAR
STARTCHAR Agrave
ENCODING 192
SWIDTH 578 0
DWIDTH 14 0
BBX 15 23 -1 0
BITMAP
00008DFFA1000000
0008FFFFF8000000
000BFE1AFD000000
0007FF75FF300000
0000DFE1FF700000
00005FF6CFA00000
00000BFFFF800000
0007DFFFFFFC6000
01CFFC31015EFB00
09FFF54BBA0BFF70
0EFFF47FFF29FFC0
1FFFF29FFF37FFE0
1FFFF0AFFF56FFE0
1FFFE0000004FFE0
1FFFC0CDDD73FFE0
1FFFA0FFFF91FFE0
1FFF91FFFFB0FFE0
1FFFA6FFFFD5EFE0
1FFFFFFFFFFFFFE0
0EFFFFFFFFFFFFC0
08FFFFFFFFFFFF60
01BFFFFFFFFFFA00
0006CEFFFFEB5000
ENDCHAR
STARTCHAR Aacute
ENCODING 193
SWIDTH 578 0
DWIDTH 14 0
BBX 15 23 -1 0
BITMAP
0000001AFFD80000
0000008FFFFF8000
000000DFA1EFB000
000003FF57FF7000
000007FF1EFD0000
00000AFC6FF50000
000008FFFFB00000
0007DFFFFFFC6000
01CFFC31015EFB00
09FFF54BBA0BFF70
0EFFF47FFF29FFC0
1FFFF29FFF37FFE0
1FFFF0AFFF56FFE0
1FFFE0000004FFE0
1FFFC0CDDD73FFE0
1FFFA0FFFF91FFE0
1FFF91FFFFB0FFE0
1FFFA6FFFFD5EFE0
1FFFFFFFFFFFFFE0
0EFFFFFFFFFFFFC0
08FFFFFFFFFFFF60
01BFFFFFFFFFFA00
0006CEFFFFEB5000
ENDCHAR
STARTCHAR Acircumflex
ENCODING 194
SWIDTH 578 0
DWIDTH 14 0
BBX 15 24 -1 0
BITMAP
0000002785000000
000002EFFF800000
000009FECFF20000
00001EF73DF80000
00007FF3A8FE0000
0000CFA7E3FF5000
0000FF8CF7DF8000
0000EFFFFFFF6000
0007FFFFFFFF6000
01CFFC31015EFB00
09FFF54BBA0BFF70
0EFFF47FFF29FFC0
1FFFF29FFF37FFE0
1FFFF0AFFF56FFE0
1FFFE0000004FFE0
1FFFC0CDDD73FFE0
1FFFA0FFFF91FFE0
1FFF91FFFFB0FFE0
1FFFA6FFFFD5EFE0
1FFFFFFFFFFFFFE0
0EFFFFFFFFFFFFC0
08FFFFFFFFFFFF60
01BFFFFFFFFFFA00
0006CEFFFFEB5000
ENDCHAR
STARTCHAR Atilde
ENCODING 195
SWIDTH 578 0
DWIDTH 14 0
BBX 15 23 -1 0
BITMAP
0000017AA9500000
00005EFFFFFC2000
0003FFFFFFFFC000
000AFFFFFFFFF400
000DFFDEFDCFF700
000CFA02535FF600
0007FBBFA7CFE100
0008FFFFFFFFC000
01CFFC31015EFB00
09FFF54BBA0BFF70
0EFFF47FFF29FFC0
1FFFF29FFF37FFE0
1FFFF0AFFF56FFE0
1FFFE0000004FFE0
1FFFC0CDDD73FFE0
1FFFA0FFFF91FFE0
1FFF91FFFFB0FFE0
1FFFA6FFFFD5EFE0
1FFFFFFFFFFFFFE0
0EFFFFFFFFFFFFC0
08FFFFFFFFFFFF60
01BFFFFFFFFFFA00
0006CEFFFFEB5000
ENDCHAR
STARTCHAR Adieresis
ENCODING 196
SWIDTH 578 0
DWIDTH 14 0
BBX 15 22 -1 0
BITMAP
000003ADEC810000
00007FFFFFFE2000
0002FFFFFFFFB000
0006FE19F18FF000
0004FE6BF6BFD000
0000CFFFFFFF6000
0007EFFFFFFF6000
01CFFC31015EFB00
09FFF54BBA0BFF70
0EFFF47FFF29FFC0
1FFFF29FFF37FFE0
1FFFF0AFFF56FFE0
1FFFE0000004FFE0
1FFFC0CDDD73FFE0
1FFFA0FFFF91FFE0
1FFF91FFFFB0FFE0
1FFFA6FFFFD5EFE0
1FFFFFFFFFFFFFE0
0EFFFFFFFFFFFFC0
08FFFFFFFFFFFF60
01BFFFFFFFFFFA00
0006CEFFFFEB5000
ENDCHAR
STARTCHAR Aring
ENCODING 197
SWIDTH 578 0
DWIDTH 14 0
BBX 15 23 -1 0
BITMAP
0000002674000000
000009FFFFD20000
00008FFBAEFD1000
0001FF6452EF6000
0004FF3EF3DF9000
0003FF5671EF9000
0001FFFAADFF6000
0007FFFFFFFF7000
01CFFC31015EFB00
09FFF54BBA0BFF70
0EFFF47FFF29FFC0
1FFFF29FFF37FFE0
1FFFF0AFFF56FFE0
1FFFE0000004FFE0
1FFFC0CDDD73FFE0
1FFFA0FFFF91FFE0
1FFF91FFFFB0FFE0
1FFFA6FFFFD5EFE0
1FFFFFFFFFFFFFE0
0EFFFFFFFFFFFFC0
08FFFFFFFFFFFF60
01BFFFFFFFFFFA00
0006CEFFFFEB5000
ENDCHAR
STARTCHAR AE
ENCODING 198
SWIDTH 578 0
DWIDTH 14 0
BBX 15 17 -1 0
BITMAP
0000001111000000
0007DFFFFFEC6000
01CFF5100000EB00
09FFC0A90CCCFF70
0EFFB1FB0FFFFFC0
1FFF92FB0FFFFFE0
1FFF74FB0333EFE0
1FFF56FB0999FFE0
1FFF46DA0FFFFFE0
1FFF20000FFFFFE0
1FFF0AEA0666EFE0
1FFE6DFD6666EFE0
1FFFFFFFFFFFFFE0
0EFFFFFFFFFFFFC0
08FFFFFFFFFFFF60
01BFFFFFFFFFFA00
0006CEFFFFEB5000
ENDCHAR
STARTCHAR Ccedilla
ENCODING 199
SWIDTH 578 0
DWIDTH 14 0
BBX 15 17 -1 0
BITMAP
0000001111000000
0007DFFFFFFC6000
01CFF400003FFB00
09FFB0BCCBBFFF70
0EFFA1FFFFFFFFC0
1FFFA1FFFFFFFFE0
1FFFA1FFFFFFFFE0
1FFFA1FFFFFFFFE0
1FFFA1FFFFFFFFE0
1FFFA1FFFFFFFFE0
1FFFC067777FFFE0
1FFFF954157FFFE0
1FFFFFB14FFFFFE0
0EFFFF58EFFFFFC0
08FFFF727FFFFF60
01BFFFFAAFFFFA00
0006CEFFFFEB5000
ENDCHAR
STARTCHAR Egrave
ENCODING 200
SWIDTH 578 0
DWIDTH 14 0
BBX 15 23 -1 0
BITMAP
00006DFFC3000000
0005FFFFFC000000
0008FF46FF200000
0003FFB2FF600000
0000AFF2CFA00000
00002EFA9FD00000
000008FFFFB00000
0007DFFFFFFC6000
01CFFB000008FB00
09FFFB1CCCCDFF70
0EFFFB1FFFFFFFC0
1FFFFB1FFFFFFFE0
1FFFFB04445FFFE0
1FFFFB08889FFFE0
1FFFFB1FFFFFFFE0
1FFFFB1FFFFFFFE0
1FFFFB07777AFFE0
1FFFFC555559FFE0
1FFFFFFFFFFFFFE0
0EFFFFFFFFFFFFC0
08FFFFFFFFFFFF60
01BFFFFFFFFFFA00
0006CEFFFFEB5000
ENDCHAR
STARTCHAR Eacute
ENCODING 201
SWIDTH 578 0
DWIDTH 14 0
BBX 15 24 -1 0
BITMAP
0000000001000000
00000008EFEA1000
0000005FFFFFC000
000000AFD0CFE000
000000EF94FFA000
000003FF4BFF2000
000006FF4FF80000
000004FFFFE10000
0007DFFFFFFC6000
01CFFB000008FB00
09FFFB1CCCCDFF70
0EFFFB1FFFFFFFC0
1FFFFB1FFFFFFFE0
1FFFFB04445FFFE0
1FFFFB08889FFFE0
1FFFFB1FFFFFFFE0
1FFFFB1FFFFFFFE0
1FFFFB07777AFFE0
1FFFFC555559FFE0
1FFFFFFFFFFFFFE0
0EFFFFFFFFFFFFC0
08FFFFFFFFFFFF60
01BFFFFFFFFFFA00
0006CEFFFFEB5000
ENDCHAR
STARTCHAR Ecircumflex
ENCODING 202
SWIDTH 578 0
DWIDTH 14 0
BBX 15 24 -1 0
BITMAP
0000001686100000
000000CFFFC00000
000005FFBFF50000
00000CFA3AFC0000
00003FF4C4FF3000
00008FD4F3DF8000
0000CFBAFABFC000
0000AFFFFFFFA000
0007FFFFFFFF8000
01CFFB000008FB00
09FFFB1CCCCDFF70
0EFFFB1FFFFFFFC0
1FFFFB1FFFFFFFE0
1FFFFB04445FFFE0
1FFFFB08889FFFE0
1FFFFB1FFFFFFFE0
1FFFFB1FFFFFFFE0
1FFFFB07777AFFE0
1FFFFC555559FFE0
1FFFFFFFFFFFFFE0
0EFFFFFFFFFFFFC0
08FFFFFFFFFFFF60
01BFFFFFFFFFFA00
0006CEFFFFEB5000
ENDCHAR
STARTCHAR Edieresis
ENCODING 203
SWIDTH 578 0
DWIDTH 14 0
BBX 15 22 -1 0
BITMAP
0000028CED930000
00004EFFFFFF5000
0000DFFFFFFFE100
0002FF35F44FF300
0001FF89F88FF200
00009FFFFFFFA000
0007DFFFFFFF7000
01CFFB000008FB00
09FFFB1CCCCDFF70
0EFFFB1FFFFFFFC0
1FFFFB1FFFFFFFE0
1FFFFB04445FFFE0
1FFFFB08889FFFE0
1FFFFB1FFFFFFFE0
1FFFFB1FFFFFFFE0
1FFFFB07777AFFE0
1FFFFC555559FFE0
1FFFFFFFFFFFFFE0
0EFFFFFFFFFFFFC0
08FFFFFFFFFFFF60
01BFFFFFFFFFFA00
0006CEFFFFEB5000
ENDCHAR
STARTCHAR Igrave
ENCODING 204
SWIDTH 578 0
DWIDTH 14 0
BBX 15 23 -1 0
BITMAP
00005CFFC4000000
0004FFFFFD000000
0006FF55FF300000
0002FFC1FF800000
00009FF4BFC00000
00001EFB7FF00000
000006FFFFD00000
0007DFFFFFFC6000
01CFF3000000FB00
09FFFCCB09CCFF70
0EFFFFFF0CFFFFC0
1FFFFFFF0CFFFFE0
1FFFFFFF0CFFFFE0
1FFFFFFF0CFFFFE0
1FFFFFFF0CFFFFE0
1FFFFFFF0CFFFFE0
1FFFF8770577FFE0
1FFFF7555555FFE0
1FFFFFFFFFFFFFE0
0EFFFFFFFFFFFFC0
08FFFFFFFFFFFF60
01BFFFFFFFFFFA00
0006CEFFFFEB5000
ENDCHAR
STARTCHAR Iacute
ENCODING 205
SWIDTH 578 0
DWIDTH 14 0
BBX 15 24 -1 0
BITMAP
0000000001000000
00000007EFEA2000
0000003FFFFFD000
0000008FE0AFF100
000000DFA2FFB000
000002FF69FF3000
000005FF4FFA0000
000003FFFFF20000
0007DFFFFFFC6000
01CFF3000000FB00
09FFFCCB09CCFF70
0EFFFFFF0CFFFFC0
1FFFFFFF0CFFFFE0
1FFFFFFF0CFFFFE0
1FFFFFFF0CFFFFE0
1FFFFFFF0CFFFFE0
1FFFFFFF0CFFFFE0
1FFFF8770577FFE0
1FFFF7555555FFE0
1FFFFFFFFFFFFFE0
0EFFFFFFFFFFFFC0
08FFFFFFFFFFFF60
01BFFFFFFFFFFA00
0006CEFFFFEB5000
ENDCHAR
STARTCHAR Icircumflex
ENCODING 206
SWIDTH 578 0
DWIDTH 14 0
BBX 15 24 -1 0
BITMAP
0000000687100000
000000BFFFD10000
000004FFBEF60000
00000BFB39FD0000
00002FF6B3FF4000
00007FE3F5CF9000
0000AFC9FBAFD000
00009FFFFFFFB000
0007EFFFFFFF8000
01CFF3000000FB00
09FFFCCB09CCFF70
0EFFFFFF0CFFFFC0
1FFFFFFF0CFFFFE0
1FFFFFFF0CFFFFE0
1FFFFFFF0CFFFFE0
1FFFFFFF0CFFFFE0
1FFFFFFF0CFFFFE0
1FFFF8770577FFE0
1FFFF7555555FFE0
1FFFFFFFFFFFFFE0
0EFFFFFFFFFFFFC0
08FFFFFFFFFFFF60
01BFFFFFFFFFFA00
0006CEFFFFEB5000
ENDCHAR
STARTCHAR Idieresis
ENCODING 207
SWIDTH 578 0
DWIDTH 14 0
BBX 15 22 -1 0
BITMAP
0000018CEDA30000
00003EFFFFFF6000
0000CFFFFFFFF200
0000FF44F53FF500
0000EF98F98FF300
00007FFFFFFFB000
0007DFFFFFFF7000
01CFF3000000FB00
09FFFCCB09CCFF70
0EFFFFFF0CFFFFC0
1FFFFFFF0CFFFFE0
1FFFFFFF0CFFFFE0
1FFFFFFF0CFFFFE0
1FFFFFFF0CFFFFE0
1FFFFFFF0CFFFFE0
1FFFF8770577FFE0
1FFFF7555555FFE0
1FFFFFFFFFFFFFE0
0EFFFFFFFFFFFFC0
08FFFFFFFFFFFF60
01BFFFFFFFFFFA00
0006CEFFFFEB5000
ENDCHAR
STARTCHAR Eth
ENCODING 208
SWIDTH 578 0
DWIDTH 14 0
BBX 15 17 -1 0
BITMAP
0000001111000000
0007DFFFFFFC6000
01CFD0000016FB00
09FFD0BCCC90DF70
0EFFD0EFFFE0CFC0
1FFFD0EFFFE0CFE0
1FFF505FFFE0CFE0
1FFFB0CFFFE0CFE0
1FFFD0EFFFE0CFE0
1FFFD0EFFFE0CFE0
1FFFD0677750EFE0
1FFFD555555AFFE0
1FFFFFFFFFFFFFE0
0EFFFFFFFFFFFFC0
08FFFFFFFFFFFF60
01BFFFFFFFFFFA00
0006CEFFFFEB5000
ENDCHAR
STARTCHAR Ntilde
ENCODING 209
SWIDTH 578 0
DWIDTH 14 0
BBX 15 23 -1 0
BITMAP
0000038AA8300000
00008FFFFFFA0000
0007FFFFFFFF8000
000EFFFFFFFFF100
001FFFDFFCDFF300
001FF711619FF200
000BF9CF98EFC000
0009FFFFFFFF9000
01CFD3100019FB00
09FFC0ACCC62FF70
0EFFC0FFFFA1FFC0
1FFFC0FFFFA1FFE0
1FFFC0FFFFA1FFE0
1FFFC0FFFFA1FFE0
1FFFC0FFFFA1FFE0
1FFFC0FFFFA1FFE0
1FFFC0FFFFA1FFE0
1FFFD5FFFFC5FFE0
1FFFFFFFFFFFFFE0
0EFFFFFFFFFFFFC0
08FFFFFFFFFFFF60
01BFFFFFFFFFFA00
0006CEFFFFEB5000
ENDCHAR
STARTCHAR Ograve
ENCODING 210
SWIDTH 578 0
DWIDTH 14 0
BBX 15 23 -1 0
BITMAP
00006DFFB2000000
0006FFFFFB000000
0009FF37FF100000
0004FF93FF500000
0000BFF2DF900000
00003FF9AFC00000
000009FFFFA00000
0007DFFFFFFC6000
01CFF6100017FB00
09FFD09CCB90EF70
0EFFC0EFFFE0DFC0
1FFFC0EFFFE0DFE0
1FFFC0EFFFE0DFE0
1FFFC0EFFFE0DFE0
1FFFC0EFFFE0DFE0
1FFFC0EFFFE0DFE0
1FFFE0577750EFE0
1FFFFA55555BFFE0
1FFFFFFFFFFFFFE0
0EFFFFFFFFFFFFC0
08FFFFFFFFFFFF60
01BFFFFFFFFFFA00
0006CEFFFFEB5000
ENDCHAR
STARTCHAR Oacute
ENCODING 211
SWIDTH 578 0
DWIDTH 14 0
BBX 15 24 -1 0
BITMAP
0000000001000000
00000009EFE91000
0000006FFFFFB000
000000BFC0DFE000
000001FF85FF9000
000004FF3BFE2000
000007FE4FF70000
000005FFFFD00000
0007DFFFFFFC6000
01CFF6100017FB00
09FFD09CCB90EF70
0EFFC0EFFFE0DFC0
1FFFC0EFFFE0DFE0
1FFFC0EFFFE0DFE0
1FFFC0EFFFE0DFE0
1FFFC0EFFFE0DFE0
1FFFC0EFFFE0DFE0
1FFFE0577750EFE0
1FFFFA55555BFFE0
1FFFFFFFFFFFFFE0
0EFFFFFFFFFFFFC0
08FFFFFFFFFFFF60
01BFFFFFFFFFFA00
0006CEFFFFEB5000
ENDCHAR
STARTCHAR Ocircumflex
ENCODING 212
SWIDTH 578 0
DWIDTH 14 0
BBX 15 24 -1 0
BITMAP
0000001786000000
000001DFFFB00000
000007FEBFF40000
00000DF93BFB0000
00004FF4B5FF2000
0000AFC5F3EF7000
0000DFABF9BFA000
0000CFFFFFFF8000
0007FFFFFFFF7000
01CFF6100017FB00
09FFD09CCB90EF70
0EFFC0EFFFE0DFC0
1FFFC0EFFFE0DFE0
1FFFC0EFFFE0DFE0
1FFFC0EFFFE0DFE0
1FFFC0EFFFE0DFE0
1FFFC0EFFFE0DFE0
1FFFE0577750EFE0
1FFFFA55555BFFE0
1FFFFFFFFFFFFFE0
0EFFFFFFFFFFFFC0
08FFFFFFFFFFFF60
01BFFFFFFFFFFA00
0006CEFFFFEB5000
ENDCHAR
STARTCHAR Otilde
ENCODING 213
SWIDTH 578 0
DWIDTH 14 0
BBX 15 23 -1 0
BITMAP
00000169A9600000
00004EFFFFFD3000
0002EFFFFFFFE100
0008FFFFFFFFF700
000AFFDEFEBFF900
0009FD02452FF800
0005FD9FB8BFF300
0007FFFFFFFFF000
01CFF6100017FB00
09FFD09CCB90EF70
0EFFC0EFFFE0DFC0
1FFFC0EFFFE0DFE0
1FFFC0EFFFE0DFE0
1FFFC0EFFFE0DFE0
1FFFC0EFFFE0DFE0
1FFFC0EFFFE0DFE0
1FFFE0577750EFE0
1FFFFA55555BFFE0
1FFFFFFFFFFFFFE0
0EFFFFFFFFFFFFC0
08FFFFFFFFFFFF60
01BFFFFFFFFFFA00
0006CEFFFFEB5000
ENDCHAR
STARTCHAR Odieresis
ENCODING 214
SWIDTH 578 0
DWIDTH 14 0
BBX 15 22 -1 0
BITMAP
0000029DEC920000
00005FFFFFFF4000
0001EFFFFFFFE000
0003FF26F35FF200
0002FF7AF89FF100
0000AFFFFFFF9000
0007DFFFFFFF6000
01CFF6100017FB00
09FFD09CCB90EF70
0EFFC0EFFFE0DFC0
1FFFC0EFFFE0DFE0
1FFFC0EFFFE0DFE0
1FFFC0EFFFE0DFE0
1FFFC0EFFFE0DFE0
1FFFC0EFFFE0DFE0
1FFFE0577750EFE0
1FFFFA55555BFFE0
1FFFFFFFFFFFFFE0
0EFFFFFFFFFFFFC0
08FFFFFFFFFFFF60
01BFFFFFFFFFFA00
0006CEFFFFEB5000
ENDCHAR
STARTCHAR multiply
ENCODING 215
SWIDTH 578 0
DWIDTH 14 0
BBX 15 17 -1 0
BITMAP
0000001111000000
0007DFFFFFFC6000
01CFFFFFFFFFFB00
09FFFFFFFFFFFF70
0EFFFFBEFDCFFFC0
1FFFFF83B2AFFFE0
1FFFFFF709FFFFE0
1FFFFFD253EFFFE0
1FFFFF6AF88FFFE0
1FFFFFFFFFFFFFE0
1FFFFFFFFFFFFFE0
1FFFFFFFFFFFFFE0
1FFFFFFFFFFFFFE0
0EFFFFFFFFFFFFC0
08FFFFFFFFFFFF60
01BFFFFFFFFFFA00
0006CEFFFFEB5000
ENDCHAR
STARTCHAR Oslash
ENCODING 216
SWIDTH 578 0
DWIDTH 14 0
BBX 15 17 -1 0
BITMAP
0000001111000000
0007DFFFFFFC6000
01CFF5000018FB00
09FFB0BCC901FF70
0EFFA1FFF450FFC0
1FFFA1FF83C0FFE0
1FFFA1FD1CC0FFE0
1FFFA1F47FC0FFE0
1FFFA192FFC0FFE0
1FFFA11BFFB0FFE0
1FFFC0166632FFE0
1FFFFA66667CFFE0
1FFFFFFFFFFFFFE0
0EFFFFFFFFFFFFC0
08FFFFFFFFFFFF60
01BFFFFFFFFFFA00
0006CEFFFFEB5000
ENDCHAR
STARTCHAR Ugrave
ENCODING 217
SWIDTH 578 0
DWIDTH 14 0
BBX 15 23 -1 0
BITMAP
00006DFFC3000000
0005FFFFFC000000
0008FF46FF200000
0003FFB2FF600000
0000AFF2CFA00000
00002EFA9FD00000
000008FFFFB00000
0007DFFFFFFC6000
01CFB0FFFFD0EB00
09FFB0FFFFD0EF70
0EFFB0FFFFD0EFC0
1FFFB0FFFFD0EFE0
1FFFB0FFFFD0EFE0
1FFFB0FFFFD0EFE0
1FFFB0FFFFD0EFE0
1FFFB0FFFFC0EFE0
1FFFD0577741FFE0
1FFFFA55556BFFE0
1FFFFFFFFFFFFFE0
0EFFFFFFFFFFFFC0
08FFFFFFFFFFFF60
01BFFFFFFFFFFA00
0006CEFFFFEB5000
ENDCHAR
STARTCHAR Uacute
ENCODING 218
SWIDTH 578 0
DWIDTH 14 0
BBX 15 24 -1 0
BITMAP
0000000001000000
00000008EFEA1000
0000005FFFFFC000
000000AFD0CFE000
000000EF94FFA000
000003FF4BFF2000
000006FF4FF80000
000004FFFFE10000
0007DFFFFFFC6000
01CFB0FFFFD0EB00
09FFB0FFFFD0EF70
0EFFB0FFFFD0EFC0
1FFFB0FFFFD0EFE0
1FFFB0FFFFD0EFE0
1FFFB0FFFFD0EFE0
1FFFB0FFFFD0EFE0
1FFFB0FFFFC0EFE0
1FFFD0577741FFE0
1FFFFA55556BFFE0
1FFFFFFFFFFFFFE0
0EFFFFFFFFFFFFC0
08FFFFFFFFFFFF60
01BFFFFFFFFFFA00
0006CEFFFFEB5000
ENDCHAR
STARTCHAR Ucircumflex
ENCODING 219
SWIDTH 578 0
DWIDTH 14 0
BBX 15 24 -1 0
BITMAP
0000001686100000
000000CFFFC00000
000005FFBFF50000
00000CFA3AFC0000
00003FF4C4FF3000
00008FD4F3DF8000
0000CFBAFABFC000
0000AFFFFFFFA000
0007FFFFFFFF8000
01CFB0FFFFD0EB00
09FFB0FFFFD0EF70
0EFFB0FFFFD0EFC0
1FFFB0FFFFD0EFE0
1FFFB0FFFFD0EFE0
1FFFB0FFFFD0EFE0
1FFFB0FFFFD0EFE0
1FFFB0FFFFC0EFE0
1FFFD0577741FFE0
1FFFFA55556BFFE0
1FFFFFFFFFFFFFE0
0EFFFFFFFFFFFFC0
08FFFFFFFFFFFF60
01BFFFFFFFFFFA00
0006CEFFFFEB5000
ENDCHAR
STARTCHAR Udieresis
ENCODING 220
SWIDTH 578 0
DWIDTH 14 0
BBX 15 22 -1 0
BITMAP
0000028CED930000
00004EFFFFFF5000
0000DFFFFFFFE100
0002FF35F44FF300
0001FF89F88FF200
00009FFFFFFFA000
0007DFFFFFFF7000
01CFB0FFFFD0EB00
09FFB0FFFFD0EF70
0EFFB0FFFFD0EFC0
1FFFB0FFFFD0EFE0
1FFFB0FFFFD0EFE0
1FFFB0FFFFD0EFE0
1FFFB0FFFFD0EFE0
1FFFB0FFFFC0EFE0
1FFFD0577741FFE0
1FFFFA55556BFFE0
1FFFFFFFFFFFFFE0
0EFFFFFFFFFFFFC0
08FFFFFFFFFFFF60
01BFFFFFFFFFFA00
0006CEFFFFEB5000
ENDCHAR
STARTCHAR Yacute
ENCODING 221
SWIDTH 578 0
DWIDTH 14 0
BBX 15 24 -1 0
BITMAP
0000000001000000
00000009EFE91000
0000005FFFFFB000
000000AFC0CFE000
000001EF84FF9000
000004FF3BFE2000
000007FE4FF80000
000005FFFFD10000
0007DFFFFFFC6000
01CFF26FFF62FB00
09FFF81FFE19FF70
0EFFFE1AF91EFFC0
1FFFFF64F36FFFE0
1FFFFFC090DFFFE0
1FFFFFF304FFFFE0
1FFFFFFA0BFFFFE0
1FFFFFFD0EFFFFE0
1FFFFFFD0EFFFFE0
1FFFFFFD5EFFFFE0
1FFFFFFFFFFFFFE0
0EFFFFFFFFFFFFC0
08FFFFFFFFFFFF60
01BFFFFFFFFFFA00
0006CEFFFFEB5000
ENDCHAR
STARTCHAR Thorn
ENCODING 222
SWIDTH 578 0
DWIDTH 14 0
BBX 15 17 -1 0
BITMAP
0000001111000000
0007DCCFFFFC6000
01CFF65FFFFFFB00
09FFF64BBBCFFF70
0EFFF6011107FFC0
1FFFF65FFF92FFE0
1FFFF65FFFA1FFE0
1FFFF64BBB52FFE0
1FFFF600001AFFE0
1FFFF65FFFFFFFE0
1FFFF65FFFFFFFE0
1FFFF98FFFFFFFE0
1FFFFFFFFFFFFFE0
0EFFFFFFFFFFFFC0
08FFFFFFFFFFFF60
01BFFFFFFFFFFA00
0006CEFFFFEB5000
ENDCHAR
STARTCHAR germandbls
ENCODING 223
SWIDTH 578 0
DWIDTH 14 0
BBX 15 17 -1 0
BITMAP
0000001111000000
0007DFFFFFFC6000
01CFF610003DFB00
09FFC0ACCB28FF70
0EFFB0FFFF47FFC0
1FFFB0FFFD2BFFE0
1FFFB0FFE01CFFE0
1FFFB0FFFD92FFE0
1FFFB0FFFFD0EFE0
1FFFB0FFFFC0EFE0
1FFFB0FB7741FFE0
1FFFC5F9556BFFE0
1FFFFFFFFFFFFFE0
0EFFFFFFFFFFFFC0
08FFFFFFFFFFFF60
01BFFFFFFFFFFA00
0006CEFFFFEB5000
ENDCHAR
STARTCHAR agrave
ENCODING 224
SWIDTH 578 0
DWIDTH 14 0
BBX 15 23 -1 0
BITMAP
00006DFFC2000000
0005FFFFFB000000
0008FF37FF100000
0004FFA2FF600000
0000AFF2DFA00000
00002FF99FD00000
000008FFFFB00000
0007DFFFFFFC6000
01CFF500015EFB00
09FFFCBCCA0CFF70
0EFFFFFFFF1CFFC0
1FFFFFFFFF1CFFE0
1FFFFC99990CFFE0
1FFFB023320CFFE0
1FFF74FFFF1CFFE0
1FFF74FFFF1CFFE0
1FFF9167760CFFE0
1FFFF755566DFFE0
1FFFFFFFFFFFFFE0
0EFFFFFFFFFFFFC0
08FFFFFFFFFFFF60
01BFFFFFFFFFFA00
0006CEFFFFEB5000
ENDCHAR
STARTCHAR aacute
ENCODING 225
SWIDTH 578 0
DWIDTH 14 0
BBX 15 24 -1 0
BITMAP
0000000001000000
00000009EFE91000
0000005FFFFFC000
000000AFD0CFE000
000000EF84FFA000
000004FF4BFF2000
000007FE4FF80000
000005FFFFE10000
0007DFFFFFFC6000
01CFF500015EFB00
09FFFCBCCA0CFF70
0EFFFFFFFF1CFFC0
1FFFFFFFFF1CFFE0
1FFFFC99990CFFE0
1FFFB023320CFFE0
1FFF74FFFF1CFFE0
1FFF74FFFF1CFFE0
1FFF9167760CFFE0
1FFFF755566DFFE0
1FFFFFFFFFFFFFE0
0EFFFFFFFFFFFFC0
08FFFFFFFFFFFF60
01BFFFFFFFFFFA00
0006CEFFFFEB5000
ENDCHAR
STARTCHAR acircumflex
ENCODING 226
SWIDTH 578 0
DWIDTH 14 0
BBX 15 24 -1 0
BITMAP
0000001686100000
000000DFFFB00000
000006FFBFF50000
00000CFA3BFB0000
00004FF4C5FF2000
00009FD4F3EF8000
0000CFAAF9BFB000
0000BFFFFFFF9000
0007FFFFFFFF7000
01CFF500015EFB00
09FFFCBCCA0CFF70
0EFFFFFFFF1CFFC0
1FFFFFFFFF1CFFE0
1FFFFC99990CFFE0
1FFFB023320CFFE0
1FFF74FFFF1CFFE0
1FFF74FFFF1CFFE0
1FFF9167760CFFE0
1FFFF755566DFFE0
1FFFFFFFFFFFFFE0
0EFFFFFFFFFFFFC0
08FFFFFFFFFFFF60
01BFFFFFFFFFFA00
0006CEFFFFEB5000
ENDCHAR
STARTCHAR atilde
ENCODING 227
SWIDTH 578 0
DWIDTH 14 0
BBX 15 23 -1 0
BITMAP
00000169A9610000
00003DFFFFFD3000
0001EFFFFFFFE100
0007FFFFFFFFF700
000AFFEEFEBFFA00
0009FD02352FF900
0004FD9FC8AFF400
0007FFFFFFFFF000
01CFF500015EFB00
09FFFCBCCA0CFF70
0EFFFFFFFF1CFFC0
1FFFFFFFFF1CFFE0
1FFFFC99990CFFE0
1FFFB023320CFFE0
1FFF74FFFF1CFFE0
1FFF74FFFF1CFFE0
1FFF9167760CFFE0
1FFFF755566DFFE0
1FFFFFFFFFFFFFE0
0EFFFFFFFFFFFFC0
08FFFFFFFFFFFF60
01BFFFFFFFFFFA00
0006CEFFFFEB5000
ENDCHAR
STARTCHAR adieresis
ENCODING 228
SWIDTH 578 0
DWIDTH 14 0
BBX 15 22 -1 0
BITMAP
0000029CED930000
00004FFFFFFF5000
0000EFFFFFFFE100
0002FF36F45FF300
0001FF79F89FF100
00009FFFFFFFA000
0007DFFFFFFF7000
01CFF500015EFB00
09FFFCBCCA0CFF70
0EFFFFFFFF1CFFC0
1FFFFFFFFF1CFFE0
1FFFFC99990CFFE0
1FFFB023320CFFE0
1FFF74FFFF1CFFE0
1FFF74FFFF1CFFE0
1FFF9167760CFFE0
1FFFF755566DFFE0
1FFFFFFFFFFFFFE0
0EFFFFFFFFFFFFC0
08FFFFFFFFFFFF60
01BFFFFFFFFFFA00
0006CEFFFFEB5000
ENDCHAR
STARTCHAR aring
ENCODING 229
SWIDTH 578 0
DWIDTH 14 0
BBX 15 23 -1 0
BITMAP
0000001575100000
000007FFFFE40000
00005FFCADFF2000
0000CF9362CF9000
0000FF6AF79FC000
0000FF8472BFC000
0000CFFBACFF9000
0007FFFFFFFF8000
01CFF500015EFB00
09FFFCBCCA0CFF70
0EFFFFFFFF1CFFC0
1FFFFFFFFF1CFFE0
1FFFFC99990CFFE0
1FFFB023320CFFE0
1FFF74FFFF1CFFE0
1FFF74FFFF1CFFE0
1FFF9167760CFFE0
1FFFF755566DFFE0
1FFFFFFFFFFFFFE0
0EFFFFFFFFFFFFC0
08FFFFFFFFFFFF60
01BFFFFFFFFFFA00
0006CEFFFFEB5000
ENDCHAR
STARTCHAR ae
ENCODING 230
SWIDTH 578 0
DWIDTH 14 0
BBX 15 17 -1 0
BITMAP
0000001111000000
0007DFFFFFEC6000
01CFF5100000EB00
09FFC0A90CCCFF70
0EFFB1FB0FFFFFC0
1FFF92FB0FFFFFE0
1FFF74FB0333EFE0
1FFF56FB0999FFE0
1FFF46DA0FFFFFE0
1FFF20000FFFFFE0
1FFF0AEA0666EFE0
1FFE6DFD6666EFE0
1FFFFFFFFFFFFFE0
0EFFFFFFFFFFFFC0
08FFFFFFFFFFFF60
01BFFFFFFFFFFA00
0006CEFFFFEB5000
ENDCHAR
STARTCHAR ccedilla
ENCODING 231
SWIDTH 578 0
DWIDTH 14 0
BBX 15 17 -1 0
BITMAP
0000001111000000
0007DFFFFFFC6000
01CFF410003FFB00
09FFB0BCCBBFFF70
0EFFA1FFFFFFFFC0
1FFFA1FFFFFFFFE0
1FFFA1FFFFFFFFE0
1FFFA1FFFFFFFFE0
1FFFA1FFFFFFFFE0
1FFFA1FFFFFFFFE0
1FFFC067777FFFE0
1FFFF954157FFFE0
1FFFFFA15FFFFFE0
0EFFFF49EFFFFFC0
08FFFF638FFFFF60
01BFFFFAAFFFFA00
0006CEFFFFEB5000
ENDCHAR
STARTCHAR egrave
ENCODING 232
SWIDTH 578 0
DWIDTH 14 0
BBX 15 23 -1 0
BITMAP
00007DFFB2000000
0006FFFFFA000000
0009FF28FE100000
0005FF93FF500000
0000CFF1EF900000
00003FF8AFC00000
000009FFFF900000
0007DFFFFFFC6000
01CFE400015FFB00
09FF91BCCA0CFF70
0EFF83FFFF0BFFC0
1FFF8299990BFFE0
1FFF8033333CFFE0
1FFF83FFFFFFFFE0
1FFF83FFFFFFFFE0
1FFF92FFFFEFFFE0
1FFFD101113FFFE0
1FFFFDBAAACFFFE0
1FFFFFFFFFFFFFE0
0EFFFFFFFFFFFFC0
08FFFFFFFFFFFF60
01BFFFFFFFFFFA00
0006CEFFFFEB5000
ENDCHAR
STARTCHAR eacute
ENCODING 233
SWIDTH 578 0
DWIDTH 14 0
BBX 15 23 -1 0
BITMAP
0000002BFFD70000
000000AFFFFF7000
000000EF82FFA000
000004FF49FF5000
000008FE1EFC0000
00000BFB8FF30000
000009FFFFA00000
0007DFFFFFFC6000
01CFE400015FFB00
09FF91BCCA0CFF70
0EFF83FFFF0BFFC0
1FFF8299990BFFE0
1FFF8033333CFFE0
1FFF83FFFFFFFFE0
1FFF83FFFFFFFFE0
1FFF92FFFFEFFFE0
1FFFD101113FFFE0
1FFFFDBAAACFFFE0
1FFFFFFFFFFFFFE0
0EFFFFFFFFFFFFC0
08FFFFFFFFFFFF60
01BFFFFFFFFFFA00
0006CEFFFFEB5000
ENDCHAR
STARTCHAR ecircumflex
ENCODING 234
SWIDTH 578 0
DWIDTH 14 0
BBX 15 24 -1 0
BITMAP
0000004883000000
000005FFFF400000
00000DFDDFC00000
00005FF44FF40000
0000BFB65CFA0000
0001FF5BA6FE1000
0005FF6FE6FF4000
0003FFFFFFFF2000
0007FFFFFFFF6000
01CFE400015FFB00
09FF91BCCA0CFF70
0EFF83FFFF0BFFC0
1FFF8299990BFFE0
1FFF8033333CFFE0
1FFF83FFFFFFFFE0
1FFF83FFFFFFFFE0
1FFF92FFFFEFFFE0
1FFFD101113FFFE0
1FFFFDBAAACFFFE0
1FFFFFFFFFFFFFE0
0EFFFFFFFFFFFFC0
08FFFFFFFFFFFF60
01BFFFFFFFFFFA00
0006CEFFFFEB5000
ENDCHAR
STARTCHAR edieresis
ENCODING 235
SWIDTH 578 0
DWIDTH 14 0
BBX 15 22 -1 0
BITMAP
000006CDDB500000
0001CFFFFFFA0000
0009FFFFFFFF5000
000CF81F91EF8000
000AFB6FB6EF7000
0004FFFFFFFE1000
0007FFFFFFFE6000
01CFE400015FFB00
09FF91BCCA0CFF70
0EFF83FFFF0BFFC0
1FFF8299990BFFE0
1FFF8033333CFFE0
1FFF83FFFFFFFFE0
1FFF83FFFFFFFFE0
1FFF92FFFFEFFFE0
1FFFD101113FFFE0
1FFFFDBAAACFFFE0
1FFFFFFFFFFFFFE0
0EFFFFFFFFFFFFC0
08FFFFFFFFFFFF60
01BFFFFFFFFFFA00
0006CEFFFFEB5000
ENDCHAR
STARTCHAR igrave
ENCODING 236
SWIDTH 578 0
DWIDTH 14 0
BBX 15 23 -1 0
BITMAP
00005CFFC3000000
0005FFFFFC000000
0007FF46FF200000
0003FFB1FF600000
0000AFF3CFB00000
00002EFA8FE00000
000007FFFFB00000
0007DFFFFFFC6000
01CFF3000000FB00
09FFFCCB09CCFF70
0EFFFFFF0CFFFFC0
1FFFFFFF0CFFFFE0
1FFFFFFF0CFFFFE0
1FFFFFFF0CFFFFE0
1FFFFFFF0CFFFFE0
1FFFFFFF0CFFFFE0
1FFFF8770577FFE0
1FFFF7555555FFE0
1FFFFFFFFFFFFFE0
0EFFFFFFFFFFFFC0
08FFFFFFFFFFFF60
01BFFFFFFFFFFA00
0006CEFFFFEB5000
ENDCHAR
STARTCHAR iacute
ENCODING 237
SWIDTH 578 0
DWIDTH 14 0
BBX 15 24 -1 0
BITMAP
0000000001000000
00000008EFEA1000
0000004FFFFFC000
0000009FD0BFF000
000000EF93FFB000
000003FF5AFF3000
000006FF4FF90000
000004FFFFE10000
0007DFFFFFFC6000
01CFF3000000FB00
09FFFCCB09CCFF70
0EFFFFFF0CFFFFC0
1FFFFFFF0CFFFFE0
1FFFFFFF0CFFFFE0
1FFFFFFF0CFFFFE0
1FFFFFFF0CFFFFE0
1FFFFFFF0CFFFFE0
1FFFF8770577FFE0
1FFFF7555555FFE0
1FFFFFFFFFFFFFE0
0EFFFFFFFFFFFFC0
08FFFFFFFFFFFF60
01BFFFFFFFFFFA00
0006CEFFFFEB5000
ENDCHAR
STARTCHAR icircumflex
ENCODING 238
SWIDTH 578 0
DWIDTH 14 0
BBX 15 24 -1 0
BITMAP
0000001686100000
000000CFFFC00000
000005FFBFF50000
00000CFA3AFC0000
00003FF5C4FF3000
00008FD3F4DF8000
0000BFBAFAAFC000
0000AFFFFFFFA000
0007FFFFFFFF8000
01CFF3000000FB00
09FFFCCB09CCFF70
0EFFFFFF0CFFFFC0
1FFFFFFF0CFFFFE0
1FFFFFFF0CFFFFE0
1FFFFFFF0CFFFFE0
1FFFFFFF0CFFFFE0
1FFFFFFF0CFFFFE0
1FFFF8770577FFE0
1FFFF7555555FFE0
1FFFFFFFFFFFFFE0
0EFFFFFFFFFFFFC0
08FFFFFFFFFFFF60
01BFFFFFFFFFFA00
0006CEFFFFEB5000
ENDCHAR
STARTCHAR idieresis
ENCODING 239
SWIDTH 578 0
DWIDTH 14 0
BBX 15 22 -1 0
BITMAP
0000018CED930000
00004EFFFFFF5000
0000DFFFFFFFE100
0002FF35F44FF300
0001FF89F88FF200
00009FFFFFFFA000
0007DFFFFFFF7000
01CFF3000000FB00
09FFFCCB09CCFF70
0EFFFFFF0CFFFFC0
1FFFFFFF0CFFFFE0
1FFFFFFF0CFFFFE0
1FFFFFFF0CFFFFE0
1FFFFFFF0CFFFFE0
1FFFFFFF0CFFFFE0
1FFFF8770577FFE0
1FFFF7555555FFE0
1FFFFFFFFFFFFFE0
0EFFFFFFFFFFFFC0
08FFFFFFFFFFFF60
01BFFFFFFFFFFA00
0006CEFFFFEB5000
ENDCHAR
STARTCHAR eth
ENCODING 240
SWIDTH 578 0
DWIDTH 14 0
BBX 15 17 -1 0
BITMAP
0000001111000000
0007DFFFFFFC6000
01CFD0000016FB00
09FFD0BCCC90DF70
0EFFD0EFFFE0CFC0
1FFFD0EFFFE0CFE0
1FFF505FFFE0CFE0
1FFFB0CFFFE0CFE0
1FFFD0EFFFE0CFE0
1FFFD0EFFFE0CFE0
1FFFD0677750EFE0
1FFFD555555AFFE0
1FFFFFFFFFFFFFE0
0EFFFFFFFFFFFFC0
08FFFFFFFFFFFF60
01BFFFFFFFFFFA00
0006CEFFFFEB5000
ENDCHAR
STARTCHAR ntilde
ENCODING 241
SWIDTH 578 0
DWIDTH 14 0
BBX 15 23 -1 0
BITMAP
0000038AA8300000
00008FFFFFF90000
0007FFFFFFFF8000
000EFFFFFFFFF100
002FFFDFFCDFF300
001FF711619FF200
000BF9DF98EFC000
0009FFFFFFFF9000
01CFD3100019FB00
09FFC0ACCC62FF70
0EFFC0FFFFA1FFC0
1FFFC0FFFFA1FFE0
1FFFC0FFFFA1FFE0
1FFFC0FFFFA1FFE0
1FFFC0FFFFA1FFE0
1FFFC0FFFFA1FFE0
1FFFC0FFFFA1FFE0
1FFFD5FFFFC5FFE0
1FFFFFFFFFFFFFE0
0EFFFFFFFFFFFFC0
08FFFFFFFFFFFF60
01BFFFFFFFFFFA00
0006CEFFFFEB5000
ENDCHAR
STARTCHAR oacute
ENCODING 243
SWIDTH 578 0
DWIDTH 14 0
BBX 15 23 -1 0
BITMAP
0000001BFFD70000
0000009FFFFF7000
000000EF92FFA000
000004FF48FF6000
000008FE1EFC0000
00000BFB7FF40000
000009FFFFA00000
0007DFFFFFFC6000
01CFF6100017FB00
09FFD09CCB90EF70
0EFFC0EFFFE0DFC0
1FFFC0EFFFE0DFE0
1FFFC0EFFFE0DFE0
1FFFC0EFFFE0DFE0
1FFFC0EFFFE0DFE0
1FFFC0EFFFE0DFE0
1FFFE0577750EFE0
1FFFFA55555BFFE0
1FFFFFFFFFFFFFE0
0EFFFFFFFFFFFFC0
08FFFFFFFFFFFF60
01BFFFFFFFFFFA00
0006CEFFFFEB5000
ENDCHAR
STARTCHAR ocircumflex
ENCODING 244
SWIDTH 578 0
DWIDTH 14 0
BBX 15 24 -1 0
BITMAP
0000001686100000
000000CFFFB00000
000006FFBFF50000
00000CFA3AFB0000
00003FF4C5FF3000
00009FD4F3EF8000
0000CFAAFABFB000
0000BFFFFFFF9000
0007FFFFFFFF8000
01CFF6100017FB00
09FFD09CCB90EF70
0EFFC0EFFFE0DFC0
1FFFC0EFFFE0DFE0
1FFFC0EFFFE0DFE0
1FFFC0EFFFE0DFE0
1FFFC0EFFFE0DFE0
1FFFC0EFFFE0DFE0
1FFFE0577750EFE0
1FFFFA55555BFFE0
1FFFFFFFFFFFFFE0
0EFFFFFFFFFFFFC0
08FFFFFFFFFFFF60
01BFFFFFFFFFFA00
0006CEFFFFEB5000
ENDCHAR
STARTCHAR otilde
ENCODING 245
SWIDTH 578 0
DWIDTH 14 0
BBX 15 23 -1 0
BITMAP
0000016AA9500000
00004EFFFFFD2000
0002FFFFFFFFD000
0009FFFFFFFFF500
000CFFDEFEBFF800
000BFC02444FF700
0006FCAFB7CFF200
0007FFFFFFFFD000
01CFF6100017FB00
09FFD09CCB90EF70
0EFFC0EFFFE0DFC0
1FFFC0EFFFE0DFE0
1FFFC0EFFFE0DFE0
1FFFC0EFFFE0DFE0
1FFFC0EFFFE0DFE0
1FFFC0EFFFE0DFE0
1FFFE0577750EFE0
1FFFFA55555BFFE0
1FFFFFFFFFFFFFE0
0EFFFFFFFFFFFFC0
08FFFFFFFFFFFF60
01BFFFFFFFFFFA00
0006CEFFFFEB5000
ENDCHAR
STARTCHAR odieresis
ENCODING 246
SWIDTH 578 0
DWIDTH 14 0
BBX 15 22 -1 0
BITMAP
0000028CED930000
00004EFFFFFF5000
0000DFFFFFFFE100
0002FF35F44FF300
0001FF89F88FF200
00009FFFFFFFA000
0007DFFFFFFF7000
01CFF6100017FB00
09FFD09CCB90EF70
0EFFC0EFFFE0DFC0
1FFFC0EFFFE0DFE0
1FFFC0EFFFE0DFE0
1FFFC0EFFFE0DFE0
1FFFC0EFFFE0DFE0
1FFFC0EFFFE0DFE0
1FFFE0577750EFE0
1FFFFA55555BFFE0
1FFFFFFFFFFFFFE0
0EFFFFFFFFFFFFC0
08FFFFFFFFFFFF60
01BFFFFFFFFFFA00
0006CEFFFFEB5000
ENDCHAR
STARTCHAR divide
ENCODING 247
SWIDTH 428 0
DWIDTH 10 0
BBX 12 16 -1 0
BITMAP
0007DFFE9200
01CFFFEFFE30
09FFF61FFFC0
0EFFFA8FFFF3
1FFE0000AFF5
1FFFCA9CEFF5
1FFFF61FFFF5
1FFFFCAFFFF5
1FFFFFFFFFF5
1FFFFFFFFFF5
1FFFFFFFFFF5
1FFFFFFFFFF5
0EFFFFFFFFF3
08FFFFFFFFC0
01BFFFFFFE20
0006CEFD8100
ENDCHAR
STARTCHAR oslash
ENCODING 248
SWIDTH 578 0
DWIDTH 14 0
BBX 15 17 -1 0
BITMAP
0000001111000000
0007DFFFFFFC6000
01CFF5000018FB00
09FFB0BCC901FF70
0EFFA1FFF450FFC0
1FFFA1FF83C0FFE0
1FFFA1FD1CC0FFE0
1FFFA1F47FC0FFE0
1FFFA192FFC0FFE0
1FFFA11BFFB0FFE0
1FFFC0166632FFE0
1FFFFA66667CFFE0
1FFFFFFFFFFFFFE0
0EFFFFFFFFFFFFC0
08FFFFFFFFFFFF60
01BFFFFFFFFFFA00
0006CEFFFFEB5000
ENDCHAR
STARTCHAR ugrave
ENCODING 249
SWIDTH 578 0
DWIDTH 14 0
BBX 15 23 -1 0
BITMAP
00005CFFC3000000
0005FFFFFC000000
0007FF46FF200000
0003FFB1FF600000
0000AFF3CFB00000
00002EFA8FE00000
000007FFFFB00000
0007DFFFFFFC6000
01CFB0FFFFD0EB00
09FFB0FFFFD0EF70
0EFFB0FFFFD0EFC0
1FFFB0FFFFD0EFE0
1FFFB0FFFFD0EFE0
1FFFB0FFFFD0EFE0
1FFFB0FFFFD0EFE0
1FFFB0FFFFC0EFE0
1FFFD0577741FFE0
1FFFFA55556BFFE0
1FFFFFFFFFFFFFE0
0EFFFFFFFFFFFFC0
08FFFFFFFFFFFF60
01BFFFFFFFFFFA00
0006CEFFFFEB5000
ENDCHAR
STARTCHAR uacute
ENCODING 250
SWIDTH 578 0
DWIDTH 14 0
BBX 15 24 -1 0
BITMAP
0000000001000000
00000008EFEA1000
0000004FFFFFC000
0000009FD0BFF000
000000EF93FFB000
000003FF5AFF3000
000006FF4FF90000
000004FFFFE10000
0007DFFFFFFC6000
01CFB0FFFFD0EB00
09FFB0FFFFD0EF70
0EFFB0FFFFD0EFC0
1FFFB0FFFFD0EFE0
1FFFB0FFFFD0EFE0
1FFFB0FFFFD0EFE0
1FFFB0FFFFD0EFE0
1FFFB0FFFFC0EFE0
1FFFD0577741FFE0
1FFFFA55556BFFE0
1FFFFFFFFFFFFFE0
0EFFFFFFFFFFFFC0
08FFFFFFFFFFFF60
01BFFFFFFFFFFA00
0006CEFFFFEB5000
ENDCHAR
STARTCHAR ucircumflex
ENCODING 251
SWIDTH 578 0
DWIDTH 14 0
BBX 15 24 -1 0
BITMAP
0000001686100000
000000CFFFC00000
000005FFBFF50000
00000CFA3AFC0000
00003FF5C4FF3000
00008FD3F4DF8000
0000BFBAFAAFC000
0000AFFFFFFFA000
0007FFFFFFFF8000
01CFB0FFFFD0EB00
09FFB0FFFFD0EF70
0EFFB0FFFFD0EFC0
1FFFB0FFFFD0EFE0
1FFFB0FFFFD0EFE0
1FFFB0FFFFD0EFE0
1FFFB0FFFFD0EFE0
1FFFB0FFFFC0EFE0
1FFFD0577741FFE0
1FFFFA55556BFFE0
1FFFFFFFFFFFFFE0
0EFFFFFFFFFFFFC0
08FFFFFFFFFFFF60
01BFFFFFFFFFFA00
0006CEFFFFEB5000
ENDCHAR
STARTCHAR udieresis
ENCODING 252
SWIDTH 578 0
DWIDTH 14 0
BBX 15 22 -1 0
BITMAP
0000018CED930000
00004EFFFFFF5000
0000DFFFFFFFE100
0002FF35F44FF300
0001FF89F88FF200
00009FFFFFFFA000
0007DFFFFFFF7000
01CFB0FFFFD0EB00
09FFB0FFFFD0EF70
0EFFB0FFFFD0EFC0
1FFFB0FFFFD0EFE0
1FFFB0FFFFD0EFE0
1FFFB0FFFFD0EFE0
1FFFB0FFFFD0EFE0
1FFFB0FFFFC0EFE0
1FFFD0577741FFE0
1FFFFA55556BFFE0
1FFFFFFFFFFFFFE0
0EFFFFFFFFFFFFC0
08FFFFFFFFFFFF60
01BFFFFFFFFFFA00
0006CEFFFFEB5000
ENDCHAR
STARTCHAR yacute
ENCODING 253
SWIDTH 578 0
DWIDTH 14 0
BBX 15 24 -1 0
BITMAP
0000000001000000
00000009EFE91000
0000005FFFFFB000
000000AFC0CFE000
000001EF84FF9000
000004FF3BFE2000
000007FE4FF80000
000005FFFFD10000
0007DFFFFFFC6000
01CFF26FFF62FB00
09FFF81FFE19FF70
0EFFFE1AF91EFFC0
1FFFFF64F36FFFE0
1FFFFFC090DFFFE0
1FFFFFF304FFFFE0
1FFFFFFA0BFFFFE0
1FFFFFFD0EFFFFE0
1FFFFFFD0EFFFFE0
1FFFFFFD5EFFFFE0
1FFFFFFFFFFFFFE0
0EFFFFFFFFFFFFC0
08FFFFFFFFFFFF60
01BFFFFFFFFFFA00
0006CEFFFFEB5000
ENDCHAR
STARTCHAR thorn
ENCODING 254
SWIDTH 578 0
DWIDTH 14 0
BBX 15 17 -1 0
BITMAP
0000001111000000
0007DCCFFFFC6000
01CFF65FFFFFFB00
09FFF64BBBCFFF70
0EFFF6011107FFC0
1FFFF65FFF92FFE0
1FFFF65FFFA1FFE0
1FFFF64BBB52FFE0
1FFFF600001AFFE0
1FFFF65FFFFFFFE0
1FFFF65FFFFFFFE0
1FFFF98FFFFFFFE0
1FFFFFFFFFFFFFE0
0EFFFFFFFFFFFFC0
08FFFFFFFFFFFF60
01BFFFFFFFFFFA00
0006CEFFFFEB5000
ENDCHAR
STARTCHAR ydieresis
ENCODING 255
SWIDTH 578 0
DWIDTH 14 0
BBX 15 22 -1 0
BITMAP
0000029DED920000
00005FFFFFFF5000
0000EFFFFFFFE000
0003FF26F35FF300
0001FF79F89FF100
0000AFFFFFFF9000
0007DFFFFFFF7000
01CFF26FFF62FB00
09FFF81FFE19FF70
0EFFFE1AF91EFFC0
1FFFFF64F36FFFE0
1FFFFFC090DFFFE0
1FFFFFF304FFFFE0
1FFFFFFA0BFFFFE0
1FFFFFFD0EFFFFE0
1FFFFFFD0EFFFFE0
1FFFFFFD5EFFFFE0
1FFFFFFFFFFFFFE0
0EFFFFFFFFFFFFC0
08FFFFFFFFFFFF60
01BFFFFFFFFFFA00
0006CEFFFFEB5000
ENDCHAR
STARTCHAR Amacron
ENCODING 256
SWIDTH 578 0
DWIDTH 14 0
BBX 15 22 -1 0
BITMAP
000007CEFEA30000
0001CFFFFFFF7000
0009FFFFFFFFF300
000DFE4444BFF700
000CFE7777CFF600
0006FFFFFFFFE100
0007FFFFFFFF9000
01CFFC31015EFB00
09FFF54BBA0BFF70
0EFFF47FFF29FFC0
1FFFF29FFF37FFE0
1FFFF0AFFF56FFE0
1FFFE0000004FFE0
1FFFC0CDDD73FFE0
1FFFA0FFFF91FFE0
1FFF91FFFFB0FFE0
1FFFA6FFFFD5EFE0
1FFFFFFFFFFFFFE0
0EFFFFFFFFFFFFC0
08FFFFFFFFFFFF60
01BFFFFFFFFFFA00
0006CEFFFFEB5000
ENDCHAR
STARTCHAR amacron
ENCODING 257
SWIDTH 578 0
DWIDTH 14 0
BBX 15 22 -1 0
BITMAP
000005BEFEB50000
0000AFFFFFFFA000
0006FFFFFFFFF600
000AFF64449FFA00
0008FF8777BFF900
0003FFFFFFFFF300
0007FFFFFFFFB000
01CFF500015EFB00
09FFFCBCCA0CFF70
0EFFFFFFFF1CFFC0
1FFFFFFFFF1CFFE0
1FFFFC99990CFFE0
1FFFB023320CFFE0
1FFF74FFFF1CFFE0
1FFF74FFFF1CFFE0
1FFF9167760CFFE0
1FFFF755566DFFE0
1FFFFFFFFFFFFFE0
0EFFFFFFFFFFFFC0
08FFFFFFFFFFFF60
01BFFFFFFFFFFA00
0006CEFFFFEB5000
ENDCHAR
STARTCHAR Abreve
ENCODING 258
SWIDTH 578 0
DWIDTH 14 0
BBX 15 22 -1 0
BITMAP
000007CEFEA30000
0001CFFFFFFF7000
0009FFFFFFFFF300
000DFF9DFACFF700
000CFF5461BFF600
0006FFFA9BFFE100
0007FFFFFFFF9000
01CFFC31015EFB00
09FFF54BBA0BFF70
0EFFF47FFF29FFC0
1FFFF29FFF37FFE0
1FFFF0AFFF56FFE0
1FFFE0000004FFE0
1FFFC0CDDD73FFE0
1FFFA0FFFF91FFE0
1FFF91FFFFB0FFE0
1FFFA6FFFFD5EFE0
1FFFFFFFFFFFFFE0
0EFFFFFFFFFFFFC0
08FFFFFFFFFFFF60
01BFFFFFFFFFFA00
0006CEFFFFEB5000
ENDCHAR
STARTCHAR abreve
ENCODING 259
SWIDTH 578 0
DWIDTH 14 0
BBX 15 22 -1 0
BITMAP
000005BEFEB50000
0000AFFFFFFFA000
0006FFFFFFFFF600
000AFFBBFCAFFA00
0008FF83637FF900
0003FFFA9AFFF300
0007FFFFFFFFB000
01CFF500015EFB00
09FFFCBCCA0CFF70
0EFFFFFFFF1CFFC0
1FFFFFFFFF1CFFE0
1FFFFC99990CFFE0
1FFFB023320CFFE0
1FFF74FFFF1CFFE0
1FFF74FFFF1CFFE0
1FFF9167760CFFE0
1FFFF755566DFFE0
1FFFFFFFFFFFFFE0
0EFFFFFFFFFFFFC0
08FFFFFFFFFFFF60
01BFFFFFFFFFFA00
0006CEFFFFEB5000
ENDCHAR
STARTCHAR Aogonek
ENCODING 260
SWIDTH 578 0
DWIDTH 14 0
BBX 15 17 -1 0
BITMAP
0000001111000000
0007DFFFFFFC6000
01CFFC31015EFB00
09FFF54BBA0BFF70
0EFFF47FFF29FFC0
1FFFF29FFF37FFE0
1FFFF0AFFF56FFE0
1FFFE0000004FFE0
1FFFC0CDDD73FFE0
1FFFA0FFFF91FFE0
1FFF91FFFFB0FFE0
1FFFA6FFFFC1EFE0
1FFFFFFFFE2AFFE0
0EFFFFFFF94FFFC0
08FFFFFFFB15EF60
01BFFFFFFFB9EA00
0006CEFFFFEB5000
ENDCHAR
STARTCHAR aogonek
ENCODING 261
SWIDTH 578 0
DWIDTH 14 0
BBX 15 17 -1 0
BITMAP
0000001111000000
0007DFFFFFFC6000
01CFF500015FFB00
09FFFCBCCA0CFF70
0EFFFFFFFF1BFFC0
1FFFFFFFFF1BFFE0
1FFFFC99990BFFE0
1FFFB023320BFFE0
1FFF74FFFF1BFFE0
1FFF74FFFF1BFFE0
1FFF9167760BFFE0
1FFFF755156DFFE0
1FFFFFF47FFFFFE0
0EFFFFC2FFFFFFC0
08FFFFD15DFFFF60
01BFFFFC9DFFFA00
0006CEFFFFEB5000
ENDCHAR
STARTCHAR Cacute
ENCODING 262
SWIDTH 578 0
DWIDTH 14 0
BBX 15 24 -1 0
BITMAP
0000000001000000
00000007EFEA2000
0000003FFFFFD000
0000008FE0AFF100
000000DFA2FFB000
000002FF69FF3000
000005FF4FFA0000
000003FFFFF20000
0007DFFFFFFC6000
01CFF400003FFB00
09FFB0BCCBBFFF70
0EFFA1FFFFFFFFC0
1FFFA1FFFFFFFFE0
1FFFA1FFFFFFFFE0
1FFFA1FFFFFFFFE0
1FFFA1FFFFFFFFE0
1FFFA1FFFFFFFFE0
1FFFC067777FFFE0
1FFFF955557FFFE0
1FFFFFFFFFFFFFE0
0EFFFFFFFFFFFFC0
08FFFFFFFFFFFF60
01BFFFFFFFFFFA00
0006CEFFFFEB5000
ENDCHAR
STARTCHAR cacute
ENCODING 263
SWIDTH 578 0
DWIDTH 14 0
BBX 15 24 -1 0
BITMAP
0000000001000000
00000008EFEA1000
0000005FFFFFC000
000000AFD0CFE000
000000EF94FFA000
000003FF4BFF2000
000006FF4FF80000
000004FFFFE10000
0007DFFFFFFC6000
01CFF400003FFB00
09FFB0BCCBBFFF70
0EFFA1FFFFFFFFC0
1FFFA1FFFFFFFFE0
1FFFA1FFFFFFFFE0
1FFFA1FFFFFFFFE0
1FFFA1FFFFFFFFE0
1FFFA1FFFFFFFFE0
1FFFC067777FFFE0
1FFFF955557FFFE0
1FFFFFFFFFFFFFE0
0EFFFFFFFFFFFFC0
08FFFFFFFFFFFF60
01BFFFFFFFFFFA00
0006CEFFFFEB5000
ENDCHAR
STARTCHAR Ccircumflex
ENCODING 264
SWIDTH 578 0
DWIDTH 14 0
BBX 15 24 -1 0
BITMAP
0000002786000000
000001EFFF900000
000008FEBFF20000
00001EF73DF90000
00006FF3A7FE1000
0000BFB6F2FF5000
0000EF9CF8DF9000
0000DFFFFFFF7000
0007FFFFFFFF7000
01CFF400003FFB00
09FFB0BCCBBFFF70
0EFFA1FFFFFFFFC0
1FFFA1FFFFFFFFE0
1FFFA1FFFFFFFFE0
1FFFA1FFFFFFFFE0
1FFFA1FFFFFFFFE0
1FFFA1FFFFFFFFE0
1FFFC067777FFFE0
1FFFF955557FFFE0
1FFFFFFFFFFFFFE0
0EFFFFFFFFFFFFC0
08FFFFFFFFFFFF60
01BFFFFFFFFFFA00
0006CEFFFFEB5000
ENDCHAR
STARTCHAR ccircumflex
ENCODING 265
SWIDTH 578 0
DWIDTH 14 0
BBX 15 24 -1 0
BITMAP
0000002785000000
000002EFFF800000
000009FECFF20000
00001EF73DF80000
00007FF3A8FE0000
0000CFA7E3FF5000
0000FF8CF7DF8000
0000EFFFFFFF6000
0007FFFFFFFF6000
01CFF400003FFB00
09FFB0BCCBBFFF70
0EFFA1FFFFFFFFC0
1FFFA1FFFFFFFFE0
1FFFA1FFFFFFFFE0
1FFFA1FFFFFFFFE0
1FFFA1FFFFFFFFE0
1FFFA1FFFFFFFFE0
1FFFC067777FFFE0
1FFFF955557FFFE0
1FFFFFFFFFFFFFE0
0EFFFFFFFFFFFFC0
08FFFFFFFFFFFF60
01BFFFFFFFFFFA00
0006CEFFFFEB5000
ENDCHAR
STARTCHAR Cdotaccent
ENCODING 266
SWIDTH 578 0
DWIDTH 14 0
BBX 15 22 -1 0
BITMAP
00003ADFEC700000
0007FFFFFFFC1000
002FFFFFFFFF9000
006FFFE4AFFFE000
005FFFE4AFFFD000
001FFFFFFFFF9000
000EFFFFFFFF8000
01CFF400003FFB00
09FFB0BCCBBFFF70
0EFFA1FFFFFFFFC0
1FFFA1FFFFFFFFE0
1FFFA1FFFFFFFFE0
1FFFA1FFFFFFFFE0
1FFFA1FFFFFFFFE0
1FFFA1FFFFFFFFE0
1FFFC067777FFFE0
1FFFF955557FFFE0
1FFFFFFFFFFFFFE0
0EFFFFFFFFFFFFC0
08FFFFFFFFFFFF60
01BFFFFFFFFFFA00
0006CEFFFFEB5000
ENDCHAR
STARTCHAR cdotaccent
ENCODING 267
SWIDTH 578 0
DWIDTH 14 0
BBX 15 22 -1 0
BITMAP
000029DFFD810000
0004EFFFFFFE3000
000EFFFFFFFFD000
003FFFF67FFFF200
002FFFF57FFFF100
000DFFFFFFFFC000
000CFFFFFFFFA000
01CFF400003FFB00
09FFB0BCCBBFFF70
0EFFA1FFFFFFFFC0
1FFFA1FFFFFFFFE0
1FFFA1FFFFFFFFE0
1FFFA1FFFFFFFFE0
1FFFA1FFFFFFFFE0
1FFFA1FFFFFFFFE0
1FFFC067777FFFE0
1FFFF955557FFFE0
1FFFFFFFFFFFFFE0
0EFFFFFFFFFFFFC0
08FFFFFFFFFFFF60
01BFFFFFFFFFFA00
0006CEFFFFEB5000
ENDCHAR
STARTCHAR Ccaron
ENCODING 268
SWIDTH 578 0
DWIDTH 14 0
BBX 15 23 -1 0
BITMAP
00006BC69CB30000
0005FFFFFFFD0000
0007FE5FC7FF1000
0006FF4D7AFE0000
0002FF993FFB0000
0000CFE36FF70000
00007FFEFFF20000
0007EFFFFFFC6000
01CFF400003FFB00
09FFB0BCCBBFFF70
0EFFA1FFFFFFFFC0
1FFFA1FFFFFFFFE0
1FFFA1FFFFFFFFE0
1FFFA1FFFFFFFFE0
1FFFA1FFFFFFFFE0
1FFFA1FFFFFFFFE0
1FFFC067777FFFE0
1FFFF955557FFFE0
1FFFFFFFFFFFFFE0
0EFFFFFFFFFFFFC0
08FFFFFFFFFFFF60
01BFFFFFFFFFFA00
0006CEFFFFEB5000
ENDCHAR
STARTCHAR ccaron
ENCODING 269
SWIDTH 578 0
DWIDTH 14 0
BBX 15 23 -1 0
BITMAP
00004BC87CC50000
0002FFFFFFFF2000
0004FF5EF4FF4000
0002FF7AA6FF3000
0000EFD56CFE0000
00009FF44FFA0000
00004FFFEFF50000
0007DFFFFFFD6000
01CFF400003FFB00
09FFB0BCCBBFFF70
0EFFA1FFFFFFFFC0
1FFFA1FFFFFFFFE0
1FFFA1FFFFFFFFE0
1FFFA1FFFFFFFFE0
1FFFA1FFFFFFFFE0
1FFFA1FFFFFFFFE0
1FFFC067777FFFE0
1FFFF955557FFFE0
1FFFFFFFFFFFFFE0
0EFFFFFFFFFFFFC0
08FFFFFFFFFFFF60
01BFFFFFFFFFFA00
0006CEFFFFEB5000
ENDCHAR
STARTCHAR Dcaron
ENCODING 270
SWIDTH 578 0
DWIDTH 14 0
BBX 15 23 -1 0
BITMAP
00005BC78CB40000
0003FFFFFFFE1000
0005FF4FE5FF3000
0003FF6B98FF2000
0000EFB65DFD0000
0000AFF45FF90000
00005FFEFFF40000
0007DFFFFFFC6000
01CFD0000016FB00
09FFD0BCCC90DF70
0EFFD0EFFFE0CFC0
1FFFD0EFFFE0CFE0
1FFFD0EFFFE0CFE0
1FFFD0EFFFE0CFE0
1FFFD0EFFFE0CFE0
1FFFD0EFFFE0CFE0
1FFFD0677750EFE0
1FFFD555555AFFE0
1FFFFFFFFFFFFFE0
0EFFFFFFFFFFFFC0
08FFFFFFFFFFFF60
01BFFFFFFFFFFA00
0006CEFFFFEB5000
ENDCHAR
STARTCHAR dcaron
ENCODING 271
SWIDTH 578 0
DWIDTH 14 0
BBX 15 17 -1 0
BITMAP
0000001111000000
0007DFFFFFFC6000
01CD000002C04B00
09FD0ACCB4555F70
0EFD0DFFF757BFC0
1FFD0DFFF75FFFE0
1FFD0DFFF75FFFE0
1FFD0DFFF75FFFE0
1FFD0DFFF75FFFE0
1FFD0DFFF75FFFE0
1FFD0677727FFFE0
1FFE555557EFFFE0
1FFFFFFFFFFFFFE0
0EFFFFFFFFFFFFC0
08FFFFFFFFFFFF60
01BFFFFFFFFFFA00
0006CEFFFFEB5000
ENDCHAR
STARTCHAR Dcroat
ENCODING 272
SWIDTH 578 0
DWIDTH 14 0
BBX 15 17 -1 0
BITMAP
0000001111000000
0007DFFFFFFC6000
01CFD0000016FB00
09FFD0BCCC90DF70
0EFFD0EFFFE0CFC0
1FFDA0BDFFE0CFE0
1FF60003FFE0CFE0
1FFEC0DEFFE0CFE0
1FFFD0EFFFE0CFE0
1FFFD0EFFFE0CFE0
1FFFD0677750EFE0
1FFFD555555AFFE0
1FFFFFFFFFFFFFE0
0EFFFFFFFFFFFFC0
08FFFFFFFFFFFF60
01BFFFFFFFFFFA00
0006CEFFFFEB5000
ENDCHAR
STARTCHAR dcroat
ENCODING 273
SWIDTH 578 0
DWIDTH 14 0
BBX 15 17 -1 0
BITMAP
0000001111000000
0007DFFFFFFC6000
01CFD0000016FB00
09FFD0BCCC90DF70
0EFFD0EFFFE0CFC0
1FFDA0BDFFE0CFE0
1FF60003FFE0CFE0
1FFEC0DEFFE0CFE0
1FFFD0EFFFE0CFE0
1FFFD0EFFFE0CFE0
1FFFD0677750EFE0
1FFFD555555AFFE0
1FFFFFFFFFFFFFE0
0EFFFFFFFFFFFFC0
08FFFFFFFFFFFF60
01BFFFFFFFFFFA00
0006CEFFFFEB5000
ENDCHAR
STARTCHAR Emacron
ENCODING 274
SWIDTH 578 0
DWIDTH 14 0
BBX 15 22 -1 0
BITMAP
000005BEFEB50000
00009FFFFFFFB000
0005FFFFFFFFF600
0009FF64449FFA00
0008FF8777AFF900
0002FFFFFFFFF300
0007FFFFFFFFC000
01CFFB000008FB00
09FFFB1CCCCDFF70
0EFFFB1FFFFFFFC0
1FFFFB1FFFFFFFE0
1FFFFB04445FFFE0
1FFFFB08889FFFE0
1FFFFB1FFFFFFFE0
1FFFFB1FFFFFFFE0
1FFFFB07777AFFE0
1FFFFC555559FFE0
1FFFFFFFFFFFFFE0
0EFFFFFFFFFFFFC0
08FFFFFFFFFFFF60
01BFFFFFFFFFFA00
0006CEFFFFEB5000
ENDCHAR
STARTCHAR emacron
ENCODING 275
SWIDTH 578 0
DWIDTH 14 0
BBX 15 22 -1 0
BITMAP
000029DFFD810000
0004EFFFFFFE3000
000EFFFFFFFFC000
003FFA4444FFF100
002FFC7777FFF100
000BFFFFFFFF9000
0008FFFFFFFF7000
01CFE400015FFB00
09FF91BCCA0CFF70
0EFF83FFFF0BFFC0
1FFF8299990BFFE0
1FFF8033333CFFE0
1FFF83FFFFFFFFE0
1FFF83FFFFFFFFE0
1FFF92FFFFEFFFE0
1FFFD101113FFFE0
1FFFFDBAAACFFFE0
1FFFFFFFFFFFFFE0
0EFFFFFFFFFFFFC0
08FFFFFFFFFFFF60
01BFFFFFFFFFFA00
0006CEFFFFEB5000
ENDCHAR
STARTCHAR Ebreve
ENCODING 276
SWIDTH 578 0
DWIDTH 14 0
BBX 15 22 -1 0
BITMAP
000005BEFEB50000
00009FFFFFFFB000
0005FFFFFFFFF600
0009FFBBFCAFFA00
0008FF92637FF900
0002FFFA9AFFF300
0007FFFFFFFFC000
01CFFB000008FB00
09FFFB1CCCCDFF70
0EFFFB1FFFFFFFC0
1FFFFB1FFFFFFFE0
1FFFFB04445FFFE0
1FFFFB08889FFFE0
1FFFFB1FFFFFFFE0
1FFFFB1FFFFFFFE0
1FFFFB07777AFFE0
1FFFFC555559FFE0
1FFFFFFFFFFFFFE0
0EFFFFFFFFFFFFC0
08FFFFFFFFFFFF60
01BFFFFFFFFFFA00
0006CEFFFFEB5000
ENDCHAR
STARTCHAR ebreve
ENCODING 277
SWIDTH 578 0
DWIDTH 14 0
BBX 15 22 -1 0
BITMAP
000029DFFD810000
0004EFFFFFFE3000
000EFFFFFFFFC000
003FFE8FF8EFF100
002FFE1651FFF100
000BFFD99DFF9000
0008FFFFFFFF7000
01CFE400015FFB00
09FF91BCCA0CFF70
0EFF83FFFF0BFFC0
1FFF8299990BFFE0
1FFF8033333CFFE0
1FFF83FFFFFFFFE0
1FFF83FFFFFFFFE0
1FFF92FFFFEFFFE0
1FFFD101113FFFE0
1FFFFDBAAACFFFE0
1FFFFFFFFFFFFFE0
0EFFFFFFFFFFFFC0
08FFFFFFFFFFFF60
01BFFFFFFFFFFA00
0006CEFFFFEB5000
ENDCHAR
STARTCHAR Edotaccent
ENCODING 278
SWIDTH 578 0
DWIDTH 14 0
BBX 15 22 -1 0
BITMAP
000005BEFEB50000
00009FFFFFFFB000
0005FFFFFFFFF600
0009FFFC4CFFFA00
0008FFFC4CFFFA00
0004FFFFFFFFF600
0007FFFFFFFFF100
01CFFB000008FB00
09FFFB1CCCCDFF70
0EFFFB1FFFFFFFC0
1FFFFB1FFFFFFFE0
1FFFFB04445FFFE0
1FFFFB08889FFFE0
1FFFFB1FFFFFFFE0
1FFFFB1FFFFFFFE0
1FFFFB07777AFFE0
1FFFFC555559FFE0
1FFFFFFFFFFFFFE0
0EFFFFFFFFFFFFC0
08FFFFFFFFFFFF60
01BFFFFFFFFFFA00
0006CEFFFFEB5000
ENDCHAR
STARTCHAR edotaccent
ENCODING 279
SWIDTH 578 0
DWIDTH 14 0
BBX 15 22 -1 0
BITMAP
000029DFFD810000
0004EFFFFFFE3000
000EFFFFFFFFC000
003FFFF68FFFF200
002FFFF57FFFF100
000DFFFFFFFFC000
000CFFFFFFFFA000
01CFE400015FFB00
09FF91BCCA0CFF70
0EFF83FFFF0BFFC0
1FFF8299990BFFE0
1FFF8033333CFFE0
1FFF83FFFFFFFFE0
1FFF83FFFFFFFFE0
1FFF92FFFFEFFFE0
1FFFD101113FFFE0
1FFFFDBAAACFFFE0
1FFFFFFFFFFFFFE0
0EFFFFFFFFFFFFC0
08FFFFFFFFFFFF60
01BFFFFFFFFFFA00
0006CEFFFFEB5000
ENDCHAR
STARTCHAR Eogonek
ENCODING 280
SWIDTH 578 0
DWIDTH 14 0
BBX 15 17 -1 0
BITMAP
0000001111000000
0007DFFFFFFC6000
01CFFB000008FB00
09FFFB1CCCCDFF70
0EFFFB1FFFFFFFC0
1FFFFB1FFFFFFFE0
1FFFFB04445FFFE0
1FFFFB08889FFFE0
1FFFFB1FFFFFFFE0
1FFFFB1FFFFFFFE0
1FFFFB07777AFFE0
1FFFFC555527FFE0
1FFFFFFFF83FFFE0
0EFFFFFFF1CFFFC0
08FFFFFFF34AFF60
01BFFFFFFE9BFA00
0006CEFFFFEB5000
ENDCHAR
STARTCHAR eogonek
ENCODING 281
SWIDTH 578 0
DWIDTH 14 0
BBX 15 17 -1 0
BITMAP
0000001111000000
0007DFFFFFFC6000
01CFE400015FFB00
09FF91BCCA0CFF70
0EFF83FFFF0BFFC0
1FFF8299990BFFE0
1FFF8033333CFFE0
1FFF83FFFFFFFFE0
1FFF83FFFFFFFFE0
1FFF92FFFFEFFFE0
1FFFD101113FFFE0
1FFFFDBA36CFFFE0
1FFFFFF65FFFFFE0
0EFFFFF49FFFFFC0
08FFFFFA04FFFF60
01BFFFFFFFFFFA00
0006CEFFFFEB5000
ENDCHAR
STARTCHAR Ecaron
ENCODING 282
SWIDTH 578 0
DWIDTH 14 0
BBX 15 23 -1 0
BITMAP
000018CB5ACA2000
00008FFFFFFFA000
0000AFB8FA9FD000
00009FF3F4DFC000
00005FF6B4FF8000
00001FFC29FF4000
00000BFFDFFE0000
0007DFFFFFFF6000
01CFFB000008FB00
09FFFB1CCCCDFF70
0EFFFB1FFFFFFFC0
1FFFFB1FFFFFFFE0
1FFFFB04445FFFE0
1FFFFB08889FFFE0
1FFFFB1FFFFFFFE0
1FFFFB1FFFFFFFE0
1FFFFB07777AFFE0
1FFFFC555559FFE0
1FFFFFFFFFFFFFE0
0EFFFFFFFFFFFFC0
08FFFFFFFFFFFF60
01BFFFFFFFFFFA00
0006CEFFFFEB5000
ENDCHAR
STARTCHAR ecaron
ENCODING 283
SWIDTH 578 0
DWIDTH 14 0
BBX 15 23 -1 0
BITMAP
00005BC78CB40000
0003FFFFFFFE1000
0005FF4FE5FF3000
0003FF6B98FF2000
0000EFB65DFD0000
0000AFF45FF90000
00005FFEFFF40000
0007DFFFFFFC6000
01CFE400015FFB00
09FF91BCCA0CFF70
0EFF83FFFF0BFFC0
1FFF8299990BFFE0
1FFF8033333CFFE0
1FFF83FFFFFFFFE0
1FFF83FFFFFFFFE0
1FFF92FFFFEFFFE0
1FFFD101113FFFE0
1FFFFDBAAACFFFE0
1FFFFFFFFFFFFFE0
0EFFFFFFFFFFFFC0
08FFFFFFFFFFFF60
01BFFFFFFFFFFA00
0006CEFFFFEB5000
ENDCHAR
STARTCHAR Gcircumflex
ENCODING 284
SWIDTH 578 0
DWIDTH 14 0
BBX 15 24 -1 0
BITMAP
0000002785000000
000003FFFF700000
00000AFDCFE10000
00002FF53EF70000
00008FE499FD0000
0000DF98D3FF3000
0001FF7DF6EF7000
0000FFFFFFFF5000
0007FFFFFFFF6000
01CFF9100008FB00
09FFF17CCCBCFF70
0EFFF0BFFFFFFFC0
1FFFF0BFFFFFFFE0
1FFFF0BFEBBBEFE0
1FFFF0BFC000DFE0
1FFFF0BFFFE0DFE0
1FFFF0BFFFE0DFE0
1FFFF2377750EFE0
1FFFFC65555BFFE0
1FFFFFFFFFFFFFE0
0EFFFFFFFFFFFFC0
08FFFFFFFFFFFF60
01BFFFFFFFFFFA00
0006CEFFFFEB5000
ENDCHAR
STARTCHAR gcircumflex
ENCODING 285
SWIDTH 578 0
DWIDTH 14 0
BBX 15 24 -1 0
BITMAP
0000002785000000
000003FFFF700000
00000AFDCFE10000
00002FF53EF70000
00008FE499FD0000
0000DF98D3FF3000
0001FF7DF6EF7000
0000FFFFFFFF5000
0007FFFFFFFF6000
01CFF9100008FB00
09FFF17CCCBCFF70
0EFFF0BFFFFFFFC0
1FFFF0BFFFFFFFE0
1FFFF0BFEBBBEFE0
1FFFF0BFC000DFE0
1FFFF0BFFFE0DFE0
1FFFF0BFFFE0DFE0
1FFFF2377750EFE0
1FFFFC65555BFFE0
1FFFFFFFFFFFFFE0
0EFFFFFFFFFFFFC0
08FFFFFFFFFFFF60
01BFFFFFFFFFFA00
0006CEFFFFEB5000
ENDCHAR
STARTCHAR Gbreve
ENCODING 286
SWIDTH 578 0
DWIDTH 14 0
BBX 15 22 -1 0
BITMAP
000017CFFD930000
0002DFFFFFFF6000
000BFFFFFFFFF100
000EFF8EFACFF500
000DFF3561CFF400
0008FFE99CFFD000
0007FFFFFFFF8000
01CFF9100008FB00
09FFF17CCCBCFF70
0EFFF0BFFFFFFFC0
1FFFF0BFFFFFFFE0
1FFFF0BFEBBBEFE0
1FFFF0BFC000DFE0
1FFFF0BFFFE0DFE0
1FFFF0BFFFE0DFE0
1FFFF2377750EFE0
1FFFFC65555BFFE0
1FFFFFFFFFFFFFE0
0EFFFFFFFFFFFFC0
08FFFFFFFFFFFF60
01BFFFFFFFFFFA00
0006CEFFFFEB5000
ENDCHAR
STARTCHAR gbreve
ENCODING 287
SWIDTH 578 0
DWIDTH 14 0
BBX 15 22 -1 0
BITMAP
000029DFFD810000
0004EFFFFFFE3000
000EFFFFFFFFC000
003FFE8FF8EFF100
002FFE1651FFF100
000BFFD99DFF9000
0008FFFFFFFF7000
01CFF9100008FB00
09FFF17CCCBCFF70
0EFFF0BFFFFFFFC0
1FFFF0BFFFFFFFE0
1FFFF0BFEBBBEFE0
1FFFF0BFC000DFE0
1FFFF0BFFFE0DFE0
1FFFF0BFFFE0DFE0
1FFFF2377750EFE0
1FFFFC65555BFFE0
1FFFFFFFFFFFFFE0
0EFFFFFFFFFFFFC0
08FFFFFFFFFFFF60
01BFFFFFFFFFFA00
0006CEFFFFEB5000
ENDCHAR
STARTCHAR Gdotaccent
ENCODING 288
SWIDTH 578 0
DWIDTH 14 0
BBX 15 22 -1 0
BITMAP
000029DFFD810000
0004EFFFFFFE3000
000EFFFFFFFFC000
003FFFF68FFFF200
002FFFF57FFFF100
000DFFFFFFFFC000
000CFFFFFFFFA000
01CFF9100008FB00
09FFF17CCCBCFF70
0EFFF0BFFFFFFFC0
1FFFF0BFFFFFFFE0
1FFFF0BFEBBBEFE0
1FFFF0BFC000DFE0
1FFFF0BFFFE0DFE0
1FFFF0BFFFE0DFE0
1FFFF2377750EFE0
1FFFFC65555BFFE0
1FFFFFFFFFFFFFE0
0EFFFFFFFFFFFFC0
08FFFFFFFFFFFF60
01BFFFFFFFFFFA00
0006CEFFFFEB5000
ENDCHAR
STARTCHAR gdotaccent
ENCODING 289
SWIDTH 578 0
DWIDTH 14 0
BBX 15 22 -1 0
BITMAP
000029DFFD810000
0004EFFFFFFE3000
000EFFFFFFFFC000
003FFFF68FFFF200
002FFFF57FFFF100
000DFFFFFFFFC000
000CFFFFFFFFA000
01CFF9100008FB00
09FFF17CCCBCFF70
0EFFF0BFFFFFFFC0
1FFFF0BFFFFFFFE0
1FFFF0BFEBBBEFE0
1FFFF0BFC000DFE0
1FFFF0BFFFE0DFE0
1FFFF0BFFFE0DFE0
1FFFF2377750EFE0
1FFFFC65555BFFE0
1FFFFFFFFFFFFFE0
0EFFFFFFFFFFFFC0
08FFFFFFFFFFFF60
01BFFFFFFFFFFA00
0006CEFFFFEB5000
ENDCHAR
STARTCHAR Gcommaaccent
ENCODING 290
SWIDTH 578 0
DWIDTH 14 0
BBX 15 17 -1 0
BITMAP
0000001111000000
0007DFFFFFFC6000
01CFF9100008FB00
09FFF17CCCBCFF70
0EFFF0BFFFFFFFC0
1FFFF0BFFFFFFFE0
1FFFF0BFEBBBEFE0
1FFFF0BFC000DFE0
1FFFF0BFFFE0DFE0
1FFFF0BFFFE0DFE0
1FFFF2377750EFE0
1FFFFC65555BFFE0
1FFFFFFD9CFFFFE0
0EFFFFFB07FFFFC0
08FFFFFF5AFFFF60
01BFFFFF9FFFFA00
0006CEFFFFEB5000
ENDCHAR
STARTCHAR gcommaaccent
ENCODING 291
SWIDTH 578 0
DWIDTH 14 0
BBX 15 17 -1 0
BITMAP
0000001111000000
0007DFFFFFFC6000
01CFF9100008FB00
09FFF17CCCBCFF70
0EFFF0BFFFFFFFC0
1FFFF0BFFFFFFFE0
1FFFF0BFEBBBEFE0
1FFFF0BFC000DFE0
1FFFF0BFFFE0DFE0
1FFFF0BFFFE0DFE0
1FFFF2377750EFE0
1FFFFC65555BFFE0
1FFFFFFD9CFFFFE0
0EFFFFFB07FFFFC0
08FFFFFF5AFFFF60
01BFFFFF9FFFFA00
0006CEFFFFEB5000
ENDCHAR
STARTCHAR Hcircumflex
ENCODING 292
SWIDTH 578 0
DWIDTH 14 0
BBX 15 24 -1 0
BITMAP
0000002785000000
000002EFFF800000
000009FECFF10000
00001FF63EF80000
00007FE398FE0000
0000CF97E3FF4000
0001FF8DF7DF8000
0000EFFFFFFF6000
0007FFFFFFFF6000
01CFD0EFFFF0CB00
09FFD0EFFFF0CF70
0EFFD0EFFFF0CFC0
1FFFD0EFFFF0CFE0
1FFFD0111110CFE0
1FFFD09AAAA0CFE0
1FFFD0EFFFF0CFE0
1FFFD0EFFFF0CFE0
1FFFD0EFFFF0CFE0
1FFFD5EFFFF5DFE0
1FFFFFFFFFFFFFE0
0EFFFFFFFFFFFFC0
08FFFFFFFFFFFF60
01BFFFFFFFFFFA00
0006CEFFFFEB5000
ENDCHAR
STARTCHAR hcircumflex
ENCODING 293
SWIDTH 578 0
DWIDTH 14 0
BBX 15 24 -1 0
BITMAP
0000002786000000
000001EFFF900000
000008FEBFF20000
00001EF73DF90000
00006FF3B7FE1000
0000BFB6F2FF5000
0000EF9CF8CF9000
0000DFFFFFFF7000
0007FFFFFFFF7000
01CFD0EFFFF0CB00
09FFD0EFFFF0CF70
0EFFD0EFFFF0CFC0
1FFFD0EFFFF0CFE0
1FFFD0111110CFE0
1FFFD09AAAA0CFE0
1FFFD0EFFFF0CFE0
1FFFD0EFFFF0CFE0
1FFFD0EFFFF0CFE0
1FFFD5EFFFF5DFE0
1FFFFFFFFFFFFFE0
0EFFFFFFFFFFFFC0
08FFFFFFFFFFFF60
01BFFFFFFFFFFA00
0006CEFFFFEB5000
ENDCHAR
STARTCHAR Hbar
ENCODING 294
SWIDTH 578 0
DWIDTH 14 0
BBX 15 22 -1 0
BITMAP
000017CFFD930000
0002DFFFFFFF6000
000BFFFFFFFFF100
000EFD4444DFF500
000DFD7777DFF400
0008FFFFFFFFD000
0007FFFFFFFF8000
01CFD0EFFFF0CB00
09FFD0EFFFF0CF70
0EFFD0EFFFF0CFC0
1FFFD0EFFFF0CFE0
1FFFD0111110CFE0
1FFFD09AAAA0CFE0
1FFFD0EFFFF0CFE0
1FFFD0EFFFF0CFE0
1FFFD0EFFFF0CFE0
1FFFD5EFFFF5DFE0
1FFFFFFFFFFFFFE0
0EFFFFFFFFFFFFC0
08FFFFFFFFFFFF60
01BFFFFFFFFFFA00
0006CEFFFFEB5000
ENDCHAR
STARTCHAR hbar
ENCODING 295
SWIDTH 578 0
DWIDTH 14 0
BBX 15 17 -1 0
BITMAP
0000001111000000
0007DFFFFFFC6000
01CFD0EFFFF0CB00
09FF908888808F70
0EFF805555506FC0
1FFFD0EFFFF0CFE0
1FFFD0111110CFE0
1FFFD09AAAA0CFE0
1FFFD0EFFFF0CFE0
1FFFD0EFFFF0CFE0
1FFFD0EFFFF0CFE0
1FFFD5EFFFF5DFE0
1FFFFFFFFFFFFFE0
0EFFFFFFFFFFFFC0
08FFFFFFFFFFFF60
01BFFFFFFFFFFA00
0006CEFFFFEB5000
ENDCHAR
STARTCHAR Itilde
ENCODING 296
SWIDTH 578 0
DWIDTH 14 0
BBX 15 23 -1 0
BITMAP
00000059AA610000
00002DFFFFFE4000
0000DFFFFFFFF300
0005FFFFFFFFF900
0008FFEDFFAFFC00
0007FE12360FFB00
0002FE8FC89FF600
0007FFFFFFFFF000
01CFF3000000FB00
09FFFCCB09CCFF70
0EFFFFFF0CFFFFC0
1FFFFFFF0CFFFFE0
1FFFFFFF0CFFFFE0
1FFFFFFF0CFFFFE0
1FFFFFFF0CFFFFE0
1FFFFFFF0CFFFFE0
1FFFF8770577FFE0
1FFFF7555555FFE0
1FFFFFFFFFFFFFE0
0EFFFFFFFFFFFFC0
08FFFFFFFFFFFF60
01BFFFFFFFFFFA00
0006CEFFFFEB5000
ENDCHAR
STARTCHAR itilde
ENCODING 297
SWIDTH 578 0
DWIDTH 14 0
BBX 15 23 -1 0
BITMAP
00000059AA610000
00003DFFFFFE4000
0001DFFFFFFFE200
0006FFFFFFFFF800
0009FFEEFEAFFB00
0008FE12351FFA00
0003FD8FC8AFF500
0007FFFFFFFFF000
01CFF3000000FB00
09FFFCCB09CCFF70
0EFFFFFF0CFFFFC0
1FFFFFFF0CFFFFE0
1FFFFFFF0CFFFFE0
1FFFFFFF0CFFFFE0
1FFFFFFF0CFFFFE0
1FFFFFFF0CFFFFE0
1FFFF8770577FFE0
1FFFF7555555FFE0
1FFFFFFFFFFFFFE0
0EFFFFFFFFFFFFC0
08FFFFFFFFFFFF60
01BFFFFFFFFFFA00
0006CEFFFFEB5000
ENDCHAR
STARTCHAR Imacron
ENCODING 298
SWIDTH 578 0
DWIDTH 14 0
BBX 15 22 -1 0
BITMAP
000005BEFEB50000
0000AFFFFFFFA000
0006FFFFFFFFF500
000AFF54449FF900
0009FF8777BFF800
0003FFFFFFFFF300
0007FFFFFFFFB000
01CFF3000000FB00
09FFFCCB09CCFF70
0EFFFFFF0CFFFFC0
1FFFFFFF0CFFFFE0
1FFFFFFF0CFFFFE0
1FFFFFFF0CFFFFE0
1FFFFFFF0CFFFFE0
1FFFFFFF0CFFFFE0
1FFFF8770577FFE0
1FFFF7555555FFE0
1FFFFFFFFFFFFFE0
0EFFFFFFFFFFFFC0
08FFFFFFFFFFFF60
01BFFFFFFFFFFA00
0006CEFFFFEB5000
ENDCHAR
STARTCHAR imacron
ENCODING 299
SWIDTH 578 0
DWIDTH 14 0
BBX 15 22 -1 0
BITMAP
000006BEFEB50000
0000BFFFFFFF9000
0007FFFFFFFFF500
000BFF5444AFF900
000AFF7777BFF800
0004FFFFFFFFF200
0007FFFFFFFFA000
01CFF3000000FB00
09FFFCCB09CCFF70
0EFFFFFF0CFFFFC0
1FFFFFFF0CFFFFE0
1FFFFFFF0CFFFFE0
1FFFFFFF0CFFFFE0
1FFFFFFF0CFFFFE0
1FFFFFFF0CFFFFE0
1FFFF8770577FFE0
1FFFF7555555FFE0
1FFFFFFFFFFFFFE0
0EFFFFFFFFFFFFC0
08FFFFFFFFFFFF60
01BFFFFFFFFFFA00
0006CEFFFFEB5000
ENDCHAR
STARTCHAR Ibreve
ENCODING 300
SWIDTH 578 0
DWIDTH 14 0
BBX 15 22 -1 0
BITMAP
000004AEFEB60000
00008FFFFFFFB100
0004FFFFFFFFF800
0008FFBBFD9FFC00
0007FFA2635FFB00
0002EFFB9AEFF500
0007FFFFFFFFD000
01CFF3000000FB00
09FFFCCB09CCFF70
0EFFFFFF0CFFFFC0
1FFFFFFF0CFFFFE0
1FFFFFFF0CFFFFE0
1FFFFFFF0CFFFFE0
1FFFFFFF0CFFFFE0
1FFFFFFF0CFFFFE0
1FFFF8770577FFE0
1FFFF7555555FFE0
1FFFFFFFFFFFFFE0
0EFFFFFFFFFFFFC0
08FFFFFFFFFFFF60
01BFFFFFFFFFFA00
0006CEFFFFEB5000
ENDCHAR
STARTCHAR ibreve
ENCODING 301
SWIDTH 578 0
DWIDTH 14 0
BBX 15 22 -1 0
BITMAP
000005BEFEB50000
00009FFFFFFFB000
0005FFFFFFFFF700
0009FFBBFCAFFB00
0008FF92637FFA00
0002FFFB9AFFF400
0007FFFFFFFFC000
01CFF3000000FB00
09FFFCCB09CCFF70
0EFFFFFF0CFFFFC0
1FFFFFFF0CFFFFE0
1FFFFFFF0CFFFFE0
1FFFFFFF0CFFFFE0
1FFFFFFF0CFFFFE0
1FFFFFFF0CFFFFE0
1FFFF8770577FFE0
1FFFF7555555FFE0
1FFFFFFFFFFFFFE0
0EFFFFFFFFFFFFC0
08FFFFFFFFFFFF60
01BFFFFFFFFFFA00
0006CEFFFFEB5000
ENDCHAR
STARTCHAR Iogonek
ENCODING 302
SWIDTH 578 0
DWIDTH 14 0
BBX 15 17 -1 0
BITMAP
0000001111000000
0007DFFFFFFC6000
01CFF3000000FB00
09FFFCCB09CCFF70
0EFFFFFF0CFFFFC0
1FFFFFFF0CFFFFE0
1FFFFFFF0CFFFFE0
1FFFFFFF0CFFFFE0
1FFFFFFF0CFFFFE0
1FFFFFFF0CFFFFE0
1FFFF8770577FFE0
1FFFF7555541FFE0
1FFFFFFFFD2BFFE0
0EFFFFFFF76FFFC0
08FFFFFFFA26FF60
01BFFFFFFFA9FA00
0006CEFFFFEB5000
ENDCHAR
STARTCHAR iogonek
ENCODING 303
SWIDTH 578 0
DWIDTH 14 0
BBX 15 17 -1 0
BITMAP
0000001111000000
0007DFFFFFFC6000
01CFF3000000FB00
09FFFCCB09CCFF70
0EFFFFFF0CFFFFC0
1FFFFFFF0CFFFFE0
1FFFFFFF0CFFFFE0
1FFFFFFF0CFFFFE0
1FFFFFFF0CFFFFE0
1FFFFFFF0CFFFFE0
1FFFF8770577FFE0
1FFFF7555541FFE0
1FFFFFFFFD2BFFE0
0EFFFFFFF86FFFC0
08FFFFFFFA25FF60
01BFFFFFFFB9FA00
0006CEFFFFEB5000
ENDCHAR
STARTCHAR Idotaccent
ENCODING 304
SWIDTH 578 0
DWIDTH 14 0
BBX 15 22 -1 0
BITMAP
000017CFFD930000
0002DFFFFFFF6000
000BFFFFFFFFF100
000FFFF85FFFF500
000EFFF85FFFF400
000AFFFFFFFFE100
0009FFFFFFFFD000
01CFF3000000FB00
09FFFCCB09CCFF70
0EFFFFFF0CFFFFC0
1FFFFFFF0CFFFFE0
1FFFFFFF0CFFFFE0
1FFFFFFF0CFFFFE0
1FFFFFFF0CFFFFE0
1FFFFFFF0CFFFFE0
1FFFF8770577FFE0
1FFFF7555555FFE0
1FFFFFFFFFFFFFE0
0EFFFFFFFFFFFFC0
08FFFFFFFFFFFF60
01BFFFFFFFFFFA00
0006CEFFFFEB5000
ENDCHAR
STARTCHAR dotlessi
ENCODING 305
SWIDTH 578 0
DWIDTH 14 0
BBX 15 17 -1 0
BITMAP
0000001111000000
0007DFFFFFFC6000
01CFF3000000FB00
09FFFCCB09CCFF70
0EFFFFFF0CFFFFC0
1FFFFFFF0CFFFFE0
1FFFFFFF0CFFFFE0
1FFFFFFF0CFFFFE0
1FFFFFFF0CFFFFE0
1FFFFFFF0CFFFFE0
1FFFF8770577FFE0
1FFFF7555555FFE0
1FFFFFFFFFFFFFE0
0EFFFFFFFFFFFFC0
08FFFFFFFFFFFF60
01BFFFFFFFFFFA00
0006CEFFFFEB5000
ENDCHAR
STARTCHAR IJ
ENCODING 306
SWIDTH 578 0
DWIDTH 14 0
BBX 15 17 -1 0
BITMAP
0000001111000000
0007DFFFFFFC6000
01C20000FFF66B00
09FCB0ACFFF66F70
0EFFE0DFFFF66FC0
1FFFE0DFFFF66FE0
1FFFE0DFFFF66FE0
1FFFE0DFFFF66FE0
1FFFE0DFFFF66FE0
1FFFE0DFFFF66FE0
1FF86067D7616FE0
1FF65555C557EFE0
1FFFFFFFFFFFFFE0
0EFFFFFFFFFFFFC0
08FFFFFFFFFFFF60
01BFFFFFFFFFFA00
0006CEFFFFEB5000
ENDCHAR
STARTCHAR ij
ENCODING 307
SWIDTH 578 0
DWIDTH 14 0
BBX 15 17 -1 0
BITMAP
0000001111000000
0007DFFFFFFC6000
01C20000FFF66B00
09FCB0ACFFF66F70
0EFFE0DFFFF66FC0
1FFFE0DFFFF66FE0
1FFFE0DFFFF66FE0
1FFFE0DFFFF66FE0
1FFFE0DFFFF66FE0
1FFFE0DFFFF66FE0
1FF86067D7616FE0
1FF65555C557EFE0
1FFFFFFFFFFFFFE0
0EFFFFFFFFFFFFC0
08FFFFFFFFFFFF60
01BFFFFFFFFFFA00
0006CEFFFFEB5000
ENDCHAR
STARTCHAR Jcircumflex
ENCODING 308
SWIDTH 578 0
DWIDTH 14 0
BBX 15 24 -1 0
BITMAP
0000001786000000
000001DFFFB00000
000007FEBFF40000
00000DF93BFB0000
00004FF4B5FF2000
0000AFC5F3EF7000
0000DFABF9BFA000
0000CFFFFFFF8000
0007FFFFFFFF7000
01CFFFFFF0CFFB00
09FFFFFFF0CFFF70
0EFFFFFFF0CFFFC0
1FFFFFFFF0CFFFE0
1FFFFFFFF0CFFFE0
1FFFFFFFF0CFFFE0
1FFFFFFFF0CFFFE0
1FFFFFFFF0CFFFE0
1FFFFF9750CFFFE0
1FFFFF855AFFFFE0
1FFFFFFFFFFFFFE0
0EFFFFFFFFFFFFC0
08FFFFFFFFFFFF60
01BFFFFFFFFFFA00
0006CEFFFFEB5000
ENDCHAR
STARTCHAR jcircumflex
ENCODING 309
SWIDTH 578 0
DWIDTH 14 0
BBX 15 24 -1 0
BITMAP
0000001786000000
000001DFFFB00000
000007FEBFF40000
00000DF93BFB0000
00004FF4B5FF2000
0000AFC5F3EF7000
0000DFABF9BFA000
0000CFFFFFFF8000
0007FFFFFFFF7000
01CFFFFFF0CFFB00
09FFFFFFF0CFFF70
0EFFFFFFF0CFFFC0
1FFFFFFFF0CFFFE0
1FFFFFFFF0CFFFE0
1FFFFFFFF0CFFFE0
1FFFFFFFF0CFFFE0
1FFFFFFFF0CFFFE0
1FFFFF9750CFFFE0
1FFFFF855AFFFFE0
1FFFFFFFFFFFFFE0
0EFFFFFFFFFFFFC0
08FFFFFFFFFFFF60
01BFFFFFFFFFFA00
0006CEFFFFEB5000
ENDCHAR
STARTCHAR Kcommaaccent
ENCODING 310
SWIDTH 578 0
DWIDTH 14 0
BBX 15 17 -1 0
BITMAP
0000001111000000
0007DFFFFFFB6000
01CFFC0FFFD28B00
09FFFC0FFD23EF70
0EFFFC0FD23EFFC0
1FFFFC0C24EFFFE0
1FFFFC012EFFFFE0
1FFFFC0508FFFFE0
1FFFFC0F90AFFFE0
1FFFFC0FF71CFFE0
1FFFFC0FFF51DFE0
1FFFFD5FFFE5DFE0
1FFFFFFD9CFFFFE0
0EFFFFFB07FFFFC0
08FFFFFF5AFFFF60
01BFFFFF9FFFFA00
0006CEFFFFEB5000
ENDCHAR
STARTCHAR kcommaaccent
ENCODING 311
SWIDTH 578 0
DWIDTH 14 0
BBX 15 17 -1 0
BITMAP
0000001111000000
0007DFFFFFFB6000
01CFFC0FFFD28B00
09FFFC0FFD23EF70
0EFFFC0FD23EFFC0
1FFFFC0C24EFFFE0
1FFFFC012EFFFFE0
1FFFFC0508FFFFE0
1FFFFC0F90AFFFE0
1FFFFC0FF71CFFE0
1FFFFC0FFF51DFE0
1FFFFD5FFFE5DFE0
1FFFFFFD9CFFFFE0
0EFFFFFB07FFFFC0
08FFFFFF5AFFFF60
01BFFFFF9FFFFA00
0006CEFFFFEB5000
ENDCHAR
STARTCHAR kgreenlandic
ENCODING 312
SWIDTH 578 0
DWIDTH 14 0
BBX 15 17 -1 0
BITMAP
0000001111000000
0007DFFFFFFB6000
01CFFC0FFFD28B00
09FFFC0FFD23EF70
0EFFFC0FD23EFFC0
1FFFFC0C24EFFFE0
1FFFFC012EFFFFE0
1FFFFC0508FFFFE0
1FFFFC0F90AFFFE0
1FFFFC0FF71CFFE0
1FFFFC0FFF51DFE0
1FFFFD5FFFE5DFE0
1FFFFFFFFFFFFFE0
0EFFFFFFFFFFFFC0
08FFFFFFFFFFFF60
01BFFFFFFFFFFA00
0006CEFFFFEB5000
ENDCHAR
STARTCHAR Lacute
ENCODING 313
SWIDTH 578 0
DWIDTH 14 0
BBX 15 23 -1 0
BITMAP
000002BFFD700000
00000AFFFFF70000
00000EF82FF90000
00004FF39FF50000
00009FE1EFC00000
0000CFA8FF300000
00009FFFFA000000
0007DFFFFFFC6000
01CFFF48FFFFFB00
09FFFF48FFFFFF70
0EFFFF48FFFFFFC0
1FFFFF48FFFFFFE0
1FFFFF48FFFFFFE0
1FFFFF48FFFFFFE0
1FFFFF48FFFFFFE0
1FFFFF48FFFFFFE0
1FFFFF43777EFFE0
1FFFFF75555EFFE0
1FFFFFFFFFFFFFE0
0EFFFFFFFFFFFFC0
08FFFFFFFFFFFF60
01BFFFFFFFFFFA00
0006CEFFFFEB5000
ENDCHAR
STARTCHAR lacute
ENCODING 314
SWIDTH 578 0
DWIDTH 14 0
BBX 15 23 -1 0
BITMAP
000002BFFD700000
00000AFFFFF70000
00000EF82FF90000
00004FF39FF50000
00009FE1EFC00000
0000CFA8FF300000
00009FFFFA000000
0007DFFFFFFC6000
01CFFF48FFFFFB00
09FFFF48FFFFFF70
0EFFFF48FFFFFFC0
1FFFFF48FFFFFFE0
1FFFFF48FFFFFFE0
1FFFFF48FFFFFFE0
1FFFFF48FFFFFFE0
1FFFFF48FFFFFFE0
1FFFFF43777EFFE0
1FFFFF75555EFFE0
1FFFFFFFFFFFFFE0
0EFFFFFFFFFFFFC0
08FFFFFFFFFFFF60
01BFFFFFFFFFFA00
0006CEFFFFEB5000
ENDCHAR
STARTCHAR Lcommaaccent
ENCODING 315
SWIDTH 578 0
DWIDTH 14 0
BBX 15 17 -1 0
BITMAP
0000001111000000
0007DFFFFFFC6000
01CFFF48FFFFFB00
09FFFF48FFFFFF70
0EFFFF48FFFFFFC0
1FFFFF48FFFFFFE0
1FFFFF48FFFFFFE0
1FFFFF48FFFFFFE0
1FFFFF48FFFFFFE0
1FFFFF48FFFFFFE0
1FFFFF43777EFFE0
1FFFFF75555EFFE0
1FFFFFFD9CFFFFE0
0EFFFFFB07FFFFC0
08FFFFFF5AFFFF60
01BFFFFF9FFFFA00
0006CEFFFFEB5000
ENDCHAR
STARTCHAR lcommaaccent
ENCODING 316
SWIDTH 578 0
DWIDTH 14 0
BBX 15 17 -1 0
BITMAP
0000001111000000
0007DFFFFFFC6000
01CFFF48FFFFFB00
09FFFF48FFFFFF70
0EFFFF48FFFFFFC0
1FFFFF48FFFFFFE0
1FFFFF48FFFFFFE0
1FFFFF48FFFFFFE0
1FFFFF48FFFFFFE0
1FFFFF48FFFFFFE0
1FFFFF43777EFFE0
1FFFFF75555EFFE0
1FFFFFFD9CFFFFE0
0EFFFFFB07FFFFC0
08FFFFFF5AFFFF60
01BFFFFF9FFFFA00
0006CEFFFFEB5000
ENDCHAR
STARTCHAR Lcaron
ENCODING 317
SWIDTH 578 0
DWIDTH 14 0
BBX 15 17 -1 0
BITMAP
0000001111000000
0007DFFFFFFC6000
01CFFF48F12FFB00
09FFFF48F63FFF70
0EFFFF48F99FFFC0
1FFFFF48FFFFFFE0
1FFFFF48FFFFFFE0
1FFFFF48FFFFFFE0
1FFFFF48FFFFFFE0
1FFFFF48FFFFFFE0
1FFFFF43777EFFE0
1FFFFF75555EFFE0
1FFFFFFFFFFFFFE0
0EFFFFFFFFFFFFC0
08FFFFFFFFFFFF60
01BFFFFFFFFFFA00
0006CEFFFFEB5000
ENDCHAR
STARTCHAR lcaron
ENCODING 318
SWIDTH 578 0
DWIDTH 14 0
BBX 15 17 -1 0
BITMAP
0000001111000000
0007DFFFFFFC6000
01CFFF48F12FFB00
09FFFF48F63FFF70
0EFFFF48F99FFFC0
1FFFFF48FFFFFFE0
1FFFFF48FFFFFFE0
1FFFFF48FFFFFFE0
1FFFFF48FFFFFFE0
1FFFFF48FFFFFFE0
1FFFFF43777EFFE0
1FFFFF75555EFFE0
1FFFFFFFFFFFFFE0
0EFFFFFFFFFFFFC0
08FFFFFFFFFFFF60
01BFFFFFFFFFFA00
0006CEFFFFEB5000
ENDCHAR
STARTCHAR Ldot
ENCODING 319
SWIDTH 578 0
DWIDTH 14 0
BBX 15 17 -1 0
BITMAP
0000001111000000
0007DFFFFFFC6000
01CFFF48FFFFFB00
09FFFF48FFFFFF70
0EFFFF48FFFFFFC0
1FFFFF4890DFFFE0
1FFFFF48C8EFFFE0
1FFFFF48FFFFFFE0
1FFFFF48FFFFFFE0
1FFFFF48FFFFFFE0
1FFFFF43777EFFE0
1FFFFF75555EFFE0
1FFFFFFFFFFFFFE0
0EFFFFFFFFFFFFC0
08FFFFFFFFFFFF60
01BFFFFFFFFFFA00
0006CEFFFFEB5000
ENDCHAR
STARTCHAR ldot
ENCODING 320
SWIDTH 578 0
DWIDTH 14 0
BBX 15 17 -1 0
BITMAP
0000001111000000
0007DFFFFFFC6000
01CFFF48FFFFFB00
09FFFF48FFFFFF70
0EFFFF48FFFFFFC0
1FFFFF4890DFFFE0
1FFFFF48C8EFFFE0
1FFFFF48FFFFFFE0
1FFFFF48FFFFFFE0
1FFFFF48FFFFFFE0
1FFFFF43777EFFE0
1FFFFF75555EFFE0
1FFFFFFFFFFFFFE0
0EFFFFFFFFFFFFC0
08FFFFFFFFFFFF60
01BFFFFFFFFFFA00
0006CEFFFFEB5000
ENDCHAR
STARTCHAR Lslash
ENCODING 321
SWIDTH 578 0
DWIDTH 14 0
BBX 15 17 -1 0
BITMAP
0000001111000000
0007DFFFFFFC6000
01CFFF48FFFFFB00
09FFFF48FFFFFF70
0EFFFF48FFFFFFC0
1FFFFF445FFFFFE0
1FFFFC25EFFFFFE0
1FFFE638FFFFFFE0
1FFFFF48FFFFFFE0
1FFFFF48FFFFFFE0
1FFFFF43777EFFE0
1FFFFF75555EFFE0
1FFFFFFFFFFFFFE0
0EFFFFFFFFFFFFC0
08FFFFFFFFFFFF60
01BFFFFFFFFFFA00
0006CEFFFFEB5000
ENDCHAR
STARTCHAR lslash
ENCODING 322
SWIDTH 578 0
DWIDTH 14 0
BBX 15 17 -1 0
BITMAP
0000001111000000
0007DFFFFFFC6000
01CFFF48FFFFFB00
09FFFF48FFFFFF70
0EFFFF48FFFFFFC0
1FFFFF445FFFFFE0
1FFFFC25EFFFFFE0
1FFFE638FFFFFFE0
1FFFFF48FFFFFFE0
1FFFFF48FFFFFFE0
1FFFFF43777EFFE0
1FFFFF75555EFFE0
1FFFFFFFFFFFFFE0
0EFFFFFFFFFFFFC0
08FFFFFFFFFFFF60
01BFFFFFFFFFFA00
0006CEFFFFEB5000
ENDCHAR
STARTCHAR Nacute
ENCODING 323
SWIDTH 578 0
DWIDTH 14 0
BBX 15 23 -1 0
BITMAP
0000002BFFD70000
000000AFFFFF7000
000000EF82FFA000
000004FF49FF5000
000008FE1EFC0000
00000BFB8FF30000
000009FFFFA00000
0007DFFFFFFC6000
01CFD3100019FB00
09FFC0ACCC62FF70
0EFFC0FFFFA1FFC0
1FFFC0FFFFA1FFE0
1FFFC0FFFFA1FFE0
1FFFC0FFFFA1FFE0
1FFFC0FFFFA1FFE0
1FFFC0FFFFA1FFE0
1FFFC0FFFFA1FFE0
1FFFD5FFFFC5FFE0
1FFFFFFFFFFFFFE0
0EFFFFFFFFFFFFC0
08FFFFFFFFFFFF60
01BFFFFFFFFFFA00
0006CEFFFFEB5000
ENDCHAR
STARTCHAR nacute
ENCODING 324
SWIDTH 578 0
DWIDTH 14 0
BBX 15 23 -1 0
BITMAP
0000002BFFD70000
000000AFFFFF7000
000000EF82FFA000
000004FF49FF5000
000008FE1EFC0000
00000BFB8FF30000
000009FFFFA00000
0007DFFFFFFC6000
01CFD3100019FB00
09FFC0ACCC62FF70
0EFFC0FFFFA1FFC0
1FFFC0FFFFA1FFE0
1FFFC0FFFFA1FFE0
1FFFC0FFFFA1FFE0
1FFFC0FFFFA1FFE0
1FFFC0FFFFA1FFE0
1FFFC0FFFFA1FFE0
1FFFD5FFFFC5FFE0
1FFFFFFFFFFFFFE0
0EFFFFFFFFFFFFC0
08FFFFFFFFFFFF60
01BFFFFFFFFFFA00
0006CEFFFFEB5000
ENDCHAR
STARTCHAR Ncommaaccent
ENCODING 325
SWIDTH 578 0
DWIDTH 14 0
BBX 15 17 -1 0
BITMAP
0000001111000000
0007DFFFFFFC6000
01CFD3100019FB00
09FFC0ACCC62FF70
0EFFC0FFFFA1FFC0
1FFFC0FFFFA1FFE0
1FFFC0FFFFA1FFE0
1FFFC0FFFFA1FFE0
1FFFC0FFFFA1FFE0
1FFFC0FFFFA1FFE0
1FFFC0FFFFA1FFE0
1FFFD5FFFFC5FFE0
1FFFFFFD9CFFFFE0
0EFFFFFB07FFFFC0
08FFFFFF5AFFFF60
01BFFFFF9FFFFA00
0006CEFFFFEB5000
ENDCHAR
STARTCHAR ncommaaccent
ENCODING 326
SWIDTH 578 0
DWIDTH 14 0
BBX 15 17 -1 0
BITMAP
0000001111000000
0007DFFFFFFC6000
01CFD3100019FB00
09FFC0ACCC62FF70
0EFFC0FFFFA1FFC0
1FFFC0FFFFA1FFE0
1FFFC0FFFFA1FFE0
1FFFC0FFFFA1FFE0
1FFFC0FFFFA1FFE0
1FFFC0FFFFA1FFE0
1FFFC0FFFFA1FFE0
1FFFD5FFFFC5FFE0
1FFFFFFD9CFFFFE0
0EFFFFFB07FFFFC0
08FFFFFF5AFFFF60
01BFFFFF9FFFFA00
0006CEFFFFEB5000
ENDCHAR
STARTCHAR Ncaron
ENCODING 327
SWIDTH 578 0
DWIDTH 14 0
BBX 15 23 -1 0
BITMAP
00005BC78CB40000
0003FFFFFFFE1000
0005FF4FE5FF3000
0003FF6B98FF2000
0000EFB65DFD0000
0000AFF45FF90000
00005FFEFFF40000
0007DFFFFFFC6000
01CFD3100019FB00
09FFC0ACCC62FF70
0EFFC0FFFFA1FFC0
1FFFC0FFFFA1FFE0
1FFFC0FFFFA1FFE0
1FFFC0FFFFA1FFE0
1FFFC0FFFFA1FFE0
1FFFC0FFFFA1FFE0
1FFFC0FFFFA1FFE0
1FFFD5FFFFC5FFE0
1FFFFFFFFFFFFFE0
0EFFFFFFFFFFFFC0
08FFFFFFFFFFFF60
01BFFFFFFFFFFA00
0006CEFFFFEB5000
ENDCHAR
STARTCHAR ncaron
ENCODING 328
SWIDTH 578 0
DWIDTH 14 0
BBX 15 23 -1 0
BITMAP
00005BC78CB40000
0003FFFFFFFE1000
0005FF4FE5FF3000
0003FF6B98FF2000
0000EFB65DFD0000
0000AFF45FF90000
00005FFEFFF40000
0007DFFFFFFC6000
01CFD3100019FB00
09FFC0ACCC62FF70
0EFFC0FFFFA1FFC0
1FFFC0FFFFA1FFE0
1FFFC0FFFFA1FFE0
1FFFC0FFFFA1FFE0
1FFFC0FFFFA1FFE0
1FFFC0FFFFA1FFE0
1FFFC0FFFFA1FFE0
1FFFD5FFFFC5FFE0
1FFFFFFFFFFFFFE0
0EFFFFFFFFFFFFC0
08FFFFFFFFFFFF60
01BFFFFFFFFFFA00
0006CEFFFFEB5000
ENDCHAR
STARTCHAR napostrophe
ENCODING 329
SWIDTH 578 0
DWIDTH 14 0
BBX 15 17 -1 0
BITMAP
0000001111000000
0007DFFFFFFC6000
01CFD3100019FB00
0951C0ACCC62FF70
0E81C0FFFFA1FFC0
1FB6C0FFFFA1FFE0
1FFFC0FFFFA1FFE0
1FFFC0FFFFA1FFE0
1FFFC0FFFFA1FFE0
1FFFC0FFFFA1FFE0
1FFFC0FFFFA1FFE0
1FFFD5FFFFC5FFE0
1FFFFFFFFFFFFFE0
0EFFFFFFFFFFFFC0
08FFFFFFFFFFFF60
01BFFFFFFFFFFA00
0006CEFFFFEB5000
ENDCHAR
STARTCHAR Eng
ENCODING 330
SWIDTH 578 0
DWIDTH 14 0
BBX 15 17 -1 0
BITMAP
0000001111000000
0007DFFFFFFC6000
01CFD3100019FB00
09FFC0ACCC62FF70
0EFFC0FFFFA1FFC0
1FFFC0FFFFA1FFE0
1FFFC0FFFFA1FFE0
1FFFC0FFFFA1FFE0
1FFFC0FFFFA1FFE0
1FFFC0FFFFA1FFE0
1FFFC0FFFFA1FFE0
1FFFD5FFFFA1FFE0
1FFFFFFFFFA1FFE0
0EFFFFFFDD71FFC0
08FFFFFF0007FF60
01BFFFFFDDEFFA00
0006CEFFFFEB5000
ENDCHAR
STARTCHAR eng
ENCODING 331
SWIDTH 578 0
DWIDTH 14 0
BBX 15 17 -1 0
BITMAP
0000001111000000
0007DFFFFFFC6000
01CFD3100019FB00
09FFC0ACCC62FF70
0EFFC0FFFFA1FFC0
1FFFC0FFFFA1FFE0
1FFFC0FFFFA1FFE0
1FFFC0FFFFA1FFE0
1FFFC0FFFFA1FFE0
1FFFC0FFFFA1FFE0
1FFFC0FFFFA1FFE0
1FFFD5FFFFA1FFE0
1FFFFFFFFFA1FFE0
0EFFFFFFDD71FFC0
08FFFFFF0007FF60
01BFFFFFDDEFFA00
0006CEFFFFEB5000
ENDCHAR
STARTCHAR Omacron
ENCODING 332
SWIDTH 578 0
DWIDTH 14 0
BBX 15 22 -1 0
BITMAP
000005BEFEB50000
0000AFFFFFFFA000
0006FFFFFFFFF500
000AFF5444AFF900
0009FF8777BFF800
0003FFFFFFFFF300
0007FFFFFFFFB000
01CFF6100017FB00
09FFD09CCB90EF70
0EFFC0EFFFE0DFC0
1FFFC0EFFFE0DFE0
1FFFC0EFFFE0DFE0
1FFFC0EFFFE0DFE0
1FFFC0EFFFE0DFE0
1FFFC0EFFFE0DFE0
1FFFE0577750EFE0
1FFFFA55555BFFE0
1FFFFFFFFFFFFFE0
0EFFFFFFFFFFFFC0
08FFFFFFFFFFFF60
01BFFFFFFFFFFA00
0006CEFFFFEB5000
ENDCHAR
STARTCHAR omacron
ENCODING 333
SWIDTH 578 0
DWIDTH 14 0
BBX 15 22 -1 0
BITMAP
000005BEFEB50000
0000AFFFFFFFA000
0006FFFFFFFFF500
000AFF5444AFF900
0009FF8777BFF800
0003FFFFFFFFF300
0007FFFFFFFFB000
01CFF6100017FB00
09FFD09CCB90EF70
0EFFC0EFFFE0DFC0
1FFFC0EFFFE0DFE0
1FFFC0EFFFE0DFE0
1FFFC0EFFFE0DFE0
1FFFC0EFFFE0DFE0
1FFFC0EFFFE0DFE0
1FFFE0577750EFE0
1FFFFA55555BFFE0
1FFFFFFFFFFFFFE0
0EFFFFFFFFFFFFC0
08FFFFFFFFFFFF60
01BFFFFFFFFFFA00
0006CEFFFFEB5000
ENDCHAR
STARTCHAR Obreve
ENCODING 334
SWIDTH 578 0
DWIDTH 14 0
BBX 15 22 -1 0
BITMAP
000005BEFEB50000
0000AFFFFFFFA000
0006FFFFFFFFF500
000AFFACFCAFF900
0009FF73628FF800
0003FFFA9AFFF300
0007FFFFFFFFB000
01CFF6100017FB00
09FFD09CCB90EF70
0EFFC0EFFFE0DFC0
1FFFC0EFFFE0DFE0
1FFFC0EFFFE0DFE0
1FFFC0EFFFE0DFE0
1FFFC0EFFFE0DFE0
1FFFC0EFFFE0DFE0
1FFFE0577750EFE0
1FFFFA55555BFFE0
1FFFFFFFFFFFFFE0
0EFFFFFFFFFFFFC0
08FFFFFFFFFFFF60
01BFFFFFFFFFFA00
0006CEFFFFEB5000
ENDCHAR
STARTCHAR obreve
ENCODING 335
SWIDTH 578 0
DWIDTH 14 0
BBX 15 22 -1 0
BITMAP
000005BEFEB50000
0000AFFFFFFFA000
0006FFFFFFFFF500
000AFFACFCAFF900
0009FF73628FF800
0003FFFA9AFFF300
0007FFFFFFFFB000
01CFF6100017FB00
09FFD09CCB90EF70
0EFFC0EFFFE0DFC0
1FFFC0EFFFE0DFE0
1FFFC0EFFFE0DFE0
1FFFC0EFFFE0DFE0
1FFFC0EFFFE0DFE0
1FFFC0EFFFE0DFE0
1FFFE0577750EFE0
1FFFFA55555BFFE0
1FFFFFFFFFFFFFE0
0EFFFFFFFFFFFFC0
08FFFFFFFFFFFF60
01BFFFFFFFFFFA00
0006CEFFFFEB5000
ENDCHAR
STARTCHAR Ohungarumlaut
ENCODING 336
SWIDTH 578 0
DWIDTH 14 0
BBX 15 24 -1 0
BITMAP
0000000024234100
00000008FFFFF800
0000003FFFFFFE10
000000BFD3F96F90
000004FF5CE3EFA0
00000CFC7F7BFE10
00003FF6EE7FF500
00002FFFFFFFA000
0007DFFFFFFF7000
01CFF6100017FB00
09FFD09CCB90EF70
0EFFC0EFFFE0DFC0
1FFFC0EFFFE0DFE0
1FFFC0EFFFE0DFE0
1FFFC0EFFFE0DFE0
1FFFC0EFFFE0DFE0
1FFFC0EFFFE0DFE0
1FFFE0577750EFE0
1FFFFA55555BFFE0
1FFFFFFFFFFFFFE0
0EFFFFFFFFFFFFC0
08FFFFFFFFFFFF60
01BFFFFFFFFFFA00
0006CEFFFFEB5000
ENDCHAR
STARTCHAR ohungarumlaut
ENCODING 337
SWIDTH 578 0
DWIDTH 14 0
BBX 15 24 -1 0
BITMAP
0000000024234100
00000008FFFFF800
0000003FFFFFFE10
000000BFD3F96F90
000004FF5CE3EFA0
00000CFC7F7BFE10
00003FF6EE7FF500
00002FFFFFFFA000
0007DFFFFFFF7000
01CFF6100017FB00
09FFD09CCB90EF70
0EFFC0EFFFE0DFC0
1FFFC0EFFFE0DFE0
1FFFC0EFFFE0DFE0
1FFFC0EFFFE0DFE0
1FFFC0EFFFE0DFE0
1FFFC0EFFFE0DFE0
1FFFE0577750EFE0
1FFFFA55555BFFE0
1FFFFFFFFFFFFFE0
0EFFFFFFFFFFFFC0
08FFFFFFFFFFFF60
01BFFFFFFFFFFA00
0006CEFFFFEB5000
ENDCHAR
STARTCHAR OE
ENCODING 338
SWIDTH 578 0
DWIDTH 14 0
BBX 15 17 -1 0
BITMAP
0000001111000000
0007DFFFFFFC6000
01CE41013000AB00
09FB0BC90ACCEF70
0EFA2FFE0DFFFFC0
1FFA2FFE0DFFFFE0
1FFA2FFE0344FFE0
1FFA2FFE0688FFE0
1FFA2FFE0CFFFFE0
1FFA1FFE0CFFFFE0
1FFC06750677BFE0
1FFF95557555AFE0
1FFFFFFFFFFFFFE0
0EFFFFFFFFFFFFC0
08FFFFFFFFFFFF60
01BFFFFFFFFFFA00
0006CEFFFFEB5000
ENDCHAR
STARTCHAR oe
ENCODING 339
SWIDTH 578 0
DWIDTH 14 0
BBX 15 17 -1 0
BITMAP
0000001111000000
0007DFFFFFFC6000
01CE41013000AB00
09FB0BC90ACCEF70
0EFA2FFE0DFFFFC0
1FFA2FFE0DFFFFE0
1FFA2FFE0344FFE0
1FFA2FFE0688FFE0
1FFA2FFE0CFFFFE0
1FFA1FFE0CFFFFE0
1FFC06750677BFE0
1FFF95557555AFE0
1FFFFFFFFFFFFFE0
0EFFFFFFFFFFFFC0
08FFFFFFFFFFFF60
01BFFFFFFFFFFA00
0006CEFFFFEB5000
ENDCHAR
STARTCHAR Racute
ENCODING 340
SWIDTH 578 0
DWIDTH 14 0
BBX 15 23 -1 0
BITMAP
0000002BFFD70000
000000AFFFFF7000
000000EF82FFA000
000004FF49FF5000
000008FE1EFC0000
00000BFB8FF30000
000009FFFFA00000
0007DFFFFFFC6000
01CFF000004EFB00
09FFF08CCA19FF70
0EFFF0BFFF48FFC0
1FFFF0BFFF39FFE0
1FFFF068863DFFE0
1FFFF023325DFFE0
1FFFF0BFFF48FFE0
1FFFF0BFFF56FFE0
1FFFF0BFFF56FFE0
1FFFF5CFFF89FFE0
1FFFFFFFFFFFFFE0
0EFFFFFFFFFFFFC0
08FFFFFFFFFFFF60
01BFFFFFFFFFFA00
0006CEFFFFEB5000
ENDCHAR
STARTCHAR racute
ENCODING 341
SWIDTH 578 0
DWIDTH 14 0
BBX 15 23 -1 0
BITMAP
0000002BFFD70000
000000AFFFFF7000
000000EF82FFA000
000004FF49FF5000
000008FE1EFC0000
00000BFB8FF30000
000009FFFFA00000
0007DFFFFFFC6000
01CFF000004EFB00
09FFF08CCA19FF70
0EFFF0BFFF48FFC0
1FFFF0BFFF39FFE0
1FFFF068863DFFE0
1FFFF023325DFFE0
1FFFF0BFFF48FFE0
1FFFF0BFFF56FFE0
1FFFF0BFFF56FFE0
1FFFF5CFFF89FFE0
1FFFFFFFFFFFFFE0
0EFFFFFFFFFFFFC0
08FFFFFFFFFFFF60
01BFFFFFFFFFFA00
0006CEFFFFEB5000
ENDCHAR
STARTCHAR Rcommaaccent
ENCODING 342
SWIDTH 578 0
DWIDTH 14 0
BBX 15 17 -1 0
BITMAP
0000001111000000
0007DFFFFFFC6000
01CFF000004EFB00
09FFF08CCA19FF70
0EFFF0BFFF48FFC0
1FFFF0BFFF39FFE0
1FFFF068863DFFE0
1FFFF023325DFFE0
1FFFF0BFFF48FFE0
1FFFF0BFFF56FFE0
1FFFF0BFFF56FFE0
1FFFF5CFFF89FFE0
1FFFFFFD9CFFFFE0
0EFFFFFB07FFFFC0
08FFFFFF5AFFFF60
01BFFFFF9FFFFA00
0006CEFFFFEB5000
ENDCHAR
STARTCHAR rcommaaccent
ENCODING 343
SWIDTH 578 0
DWIDTH 14 0
BBX 15 17 -1 0
BITMAP
0000001111000000
0007DFFFFFFC6000
01CFF000004EFB00
09FFF08CCA19FF70
0EFFF0BFFF48FFC0
1FFFF0BFFF39FFE0
1FFFF068863DFFE0
1FFFF023325DFFE0
1FFFF0BFFF48FFE0
1FFFF0BFFF56FFE0
1FFFF0BFFF56FFE0
1FFFF5CFFF89FFE0
1FFFFFFD9CFFFFE0
0EFFFFFB07FFFFC0
08FFFFFF5AFFFF60
01BFFFFF9FFFFA00
0006CEFFFFEB5000
ENDCHAR
STARTCHAR Rcaron
ENCODING 344
SWIDTH 578 0
DWIDTH 14 0
BBX 15 23 -1 0
BITMAP
00005BC78CB40000
0003FFFFFFFE1000
0005FF4FE5FF3000
0003FF6B98FF2000
0000EFB65DFD0000
0000AFF45FF90000
00005FFEFFF40000
0007DFFFFFFC6000
01CFF000004EFB00
09FFF08CCA19FF70
0EFFF0BFFF48FFC0
1FFFF0BFFF39FFE0
1FFFF068863DFFE0
1FFFF023325DFFE0
1FFFF0BFFF48FFE0
1FFFF0BFFF56FFE0
1FFFF0BFFF56FFE0
1FFFF5CFFF89FFE0
1FFFFFFFFFFFFFE0
0EFFFFFFFFFFFFC0
08FFFFFFFFFFFF60
01BFFFFFFFFFFA00
0006CEFFFFEB5000
ENDCHAR
STARTCHAR rcaron
ENCODING 345
SWIDTH 578 0
DWIDTH 14 0
BBX 15 23 -1 0
BITMAP
00005BC78CB40000
0003FFFFFFFE1000
0005FF4FE5FF3000
0003FF6B98FF2000
0000EFB65DFD0000
0000AFF45FF90000
00005FFEFFF40000
0007DFFFFFFC6000
01CFF000004EFB00
09FFF08CCA19FF70
0EFFF0BFFF48FFC0
1FFFF0BFFF39FFE0
1FFFF068863DFFE0
1FFFF023325DFFE0
1FFFF0BFFF48FFE0
1FFFF0BFFF56FFE0
1FFFF0BFFF56FFE0
1FFFF5CFFF89FFE0
1FFFFFFFFFFFFFE0
0EFFFFFFFFFFFFC0
08FFFFFFFFFFFF60
01BFFFFFFFFFFA00
0006CEFFFFEB5000
ENDCHAR
STARTCHAR Sacute
ENCODING 346
SWIDTH 578 0
DWIDTH 14 0
BBX 15 24 -1 0
BITMAP
0000000001000000
00000007EFEA2000
0000003FFFFFD000
0000008FE1AFF100
000000CFA2FFC000
000002FF69FF4000
000005FF4EFA0000
000003FFFFF20000
0007DFFFFFFC6000
01CFFA100018FB00
09FFF26BCCBDFF70
0EFFF1AFFFFFFFC0
1FFFF1AFFFFFFFE0
1FFFF502223BFFE0
1FFFFFB99952FFE0
1FFFFFFFFFA1FFE0
1FFFFFFFFFA1FFE0
1FFFFB677733FFE0
1FFFFB55556CFFE0
1FFFFFFFFFFFFFE0
0EFFFFFFFFFFFFC0
08FFFFFFFFFFFF60
01BFFFFFFFFFFA00
0006CEFFFFEB5000
ENDCHAR
STARTCHAR sacute
ENCODING 347
SWIDTH 578 0
DWIDTH 14 0
BBX 15 24 -1 0
BITMAP
0000000001000000
00000007EFEA2000
0000003FFFFFD000
0000008FE1AFF100
000000CFA2FFC000
000002FF69FF4000
000005FF4EFA0000
000003FFFFF20000
0007DFFFFFFC6000
01CFFA100018FB00
09FFF26BCCBDFF70
0EFFF1AFFFFFFFC0
1FFFF1AFFFFFFFE0
1FFFF502223BFFE0
1FFFFFB99952FFE0
1FFFFFFFFFA1FFE0
1FFFFFFFFFA1FFE0
1FFFFB677733FFE0
1FFFFB55556CFFE0
1FFFFFFFFFFFFFE0
0EFFFFFFFFFFFFC0
08FFFFFFFFFFFF60
01BFFFFFFFFFFA00
0006CEFFFFEB5000
ENDCHAR
STARTCHAR Scircumflex
ENCODING 348
SWIDTH 578 0
DWIDTH 14 0
BBX 15 24 -1 0
BITMAP
0000000687100000
000000BFFFD10000
000004FFBEF70000
00000AFC38FD0000
00002FF6B3FF5000
00006FE2F5CFA000
0000AFC9FB9FD000
00008FFFFFFFB000
0007EFFFFFFF9000
01CFFA100018FB00
09FFF26BCCBDFF70
0EFFF1AFFFFFFFC0
1FFFF1AFFFFFFFE0
1FFFF502223BFFE0
1FFFFFB99952FFE0
1FFFFFFFFFA1FFE0
1FFFFFFFFFA1FFE0
1FFFFB677733FFE0
1FFFFB55556CFFE0
1FFFFFFFFFFFFFE0
0EFFFFFFFFFFFFC0
08FFFFFFFFFFFF60
01BFFFFFFFFFFA00
0006CEFFFFEB5000
ENDCHAR
STARTCHAR scircumflex
ENCODING 349
SWIDTH 578 0
DWIDTH 14 0
BBX 15 24 -1 0
BITMAP
0000000687100000
000000BFFFD10000
000004FFBEF70000
00000AFC38FD0000
00002FF6B3FF5000
00006FE2F5CFA000
0000AFC9FB9FD000
00008FFFFFFFB000
0007EFFFFFFF9000
01CFFA100018FB00
09FFF26BCCBDFF70
0EFFF1AFFFFFFFC0
1FFFF1AFFFFFFFE0
1FFFF502223BFFE0
1FFFFFB99952FFE0
1FFFFFFFFFA1FFE0
1FFFFFFFFFA1FFE0
1FFFFB677733FFE0
1FFFFB55556CFFE0
1FFFFFFFFFFFFFE0
0EFFFFFFFFFFFFC0
08FFFFFFFFFFFF60
01BFFFFFFFFFFA00
0006CEFFFFEB5000
ENDCHAR
STARTCHAR Scedilla
ENCODING 350
SWIDTH 578 0
DWIDTH 14 0
BBX 15 17 -1 0
BITMAP
0000001111000000
0007DFFFFFFC6000
01CFFA100018FB00
09FFF26BCCBDFF70
0EFFF1AFFFFFFFC0
1FFFF1AFFFFFFFE0
1FFFF502223BFFE0
1FFFFFB99952FFE0
1FFFFFFFFFA1FFE0
1FFFFFFFFFA1FFE0
1FFFFB677733FFE0
1FFFFB55146CFFE0
1FFFFFE30DFFFFE0
0EFFFFA3DFFFFFC0
08FFFFC15EFFFF60
01BFFFFB9EFFFA00
0006CEFFFFEB5000
ENDCHAR
STARTCHAR scedilla
ENCODING 351
SWIDTH 578 0
DWIDTH 14 0
BBX 15 17 -1 0
BITMAP
0000001111000000
0007DFFFFFFC6000
01CFFA100018FB00
09FFF26BCCBDFF70
0EFFF1AFFFFFFFC0
1FFFF1AFFFFFFFE0
1FFFF502223BFFE0
1FFFFFB99952FFE0
1FFFFFFFFFA1FFE0
1FFFFFFFFFA1FFE0
1FFFFB677733FFE0
1FFFFB55146CFFE0
1FFFFFE30DFFFFE0
0EFFFFA3DFFFFFC0
08FFFFC15EFFFF60
01BFFFFB9EFFFA00
0006CEFFFFEB5000
ENDCHAR
STARTCHAR Scaron
ENCODING 352
SWIDTH 578 0
DWIDTH 14 0
BBX 15 23 -1 0
BITMAP
000007CC69CB3000
00006FFFFFFFC000
00009FD6FB8FF000
00007FF3E6BFD000
00003FF8A3FFA000
00000EFE27FF6000
000009FFEFFF1000
0007DFFFFFFF6000
01CFFA100018FB00
09FFF26BCCBDFF70
0EFFF1AFFFFFFFC0
1FFFF1AFFFFFFFE0
1FFFF502223BFFE0
1FFFFFB99952FFE0
1FFFFFFFFFA1FFE0
1FFFFFFFFFA1FFE0
1FFFFB677733FFE0
1FFFFB55556CFFE0
1FFFFFFFFFFFFFE0
0EFFFFFFFFFFFFC0
08FFFFFFFFFFFF60
01BFFFFFFFFFFA00
0006CEFFFFEB5000
ENDCHAR
STARTCHAR scaron
ENCODING 353
SWIDTH 578 0
DWIDTH 14 0
BBX 15 23 -1 0
BITMAP
000007CC69CB3000
00006FFFFFFFC000
00009FD6FB8FF000
00007FF3E6BFD000
00003FF8A3FFA000
00000EFE27FF6000
000009FFEFFF1000
0007DFFFFFFF6000
01CFFA100018FB00
09FFF26BCCBDFF70
0EFFF1AFFFFFFFC0
1FFFF1AFFFFFFFE0
1FFFF502223BFFE0
1FFFFFB99952FFE0
1FFFFFFFFFA1FFE0
1FFFFFFFFFA1FFE0
1FFFFB677733FFE0
1FFFFB55556CFFE0
1FFFFFFFFFFFFFE0
0EFFFFFFFFFFFFC0
08FFFFFFFFFFFF60
01BFFFFFFFFFFA00
0006CEFFFFEB5000
ENDCHAR
STARTCHAR Tcommaaccent
ENCODING 354
SWIDTH 578 0
DWIDTH 14 0
BBX 15 17 -1 0
BITMAP
0000001111000000
0007DFFFFFFC6000
01CFF3000000FB00
09FFFCCB09CCFF70
0EFFFFFF0CFFFFC0
1FFFFFFF0CFFFFE0
1FFFFFFF0CFFFFE0
1FFFFFFF0CFFFFE0
1FFFFFFF0CFFFFE0
1FFFFFFF0CFFFFE0
1FFFFFFF0CFFFFE0
1FFFFFFF5DFFFFE0
1FFFFFFD9CFFFFE0
0EFFFFFB07FFFFC0
08FFFFFF5AFFFF60
01BFFFFF9FFFFA00
0006CEFFFFEB5000
ENDCHAR
STARTCHAR tcommaaccent
ENCODING 355
SWIDTH 578 0
DWIDTH 14 0
BBX 15 17 -1 0
BITMAP
0000001111000000
0007DFFFFFFC6000
01CFF3000000FB00
09FFFCCB09CCFF70
0EFFFFFF0CFFFFC0
1FFFFFFF0CFFFFE0
1FFFFFFF0CFFFFE0
1FFFFFFF0CFFFFE0
1FFFFFFF0CFFFFE0
1FFFFFFF0CFFFFE0
1FFFFFFF0CFFFFE0
1FFFFFFF5DFFFFE0
1FFFFFFD9CFFFFE0
0EFFFFFB07FFFFC0
08FFFFFF5AFFFF60
01BFFFFF9FFFFA00
0006CEFFFFEB5000
ENDCHAR
STARTCHAR Tcaron
ENCODING 356
SWIDTH 578 0
DWIDTH 14 0
BBX 15 23 -1 0
BITMAP
000019CB5BC91000
0000BFFFFFFF8000
0000DF9AF8BFA000
0000BFD4F2FF9000
00008FF4B6FF5000
00003FF92CFF1000
00000EFFDFFB0000
0007DFFFFFFF6000
01CFF3000000FB00
09FFFCCB09CCFF70
0EFFFFFF0CFFFFC0
1FFFFFFF0CFFFFE0
1FFFFFFF0CFFFFE0
1FFFFFFF0CFFFFE0
1FFFFFFF0CFFFFE0
1FFFFFFF0CFFFFE0
1FFFFFFF0CFFFFE0
1FFFFFFF5DFFFFE0
1FFFFFFFFFFFFFE0
0EFFFFFFFFFFFFC0
08FFFFFFFFFFFF60
01BFFFFFFFFFFA00
0006CEFFFFEB5000
ENDCHAR
STARTCHAR tcaron
ENCODING 357
SWIDTH 578 0
DWIDTH 14 0
BBX 15 17 -1 0
BITMAP
0000001111000000
0007DFFFFFFC6000
01CFF3000000FB00
09FFFCCB09BBFF70
0EFFFFFF0C31FFC0
1FFFFFFF0C82FFE0
1FFFFFFF0CA8FFE0
1FFFFFFF0CFFFFE0
1FFFFFFF0CFFFFE0
1FFFFFFF0CFFFFE0
1FFFFFFF0CFFFFE0
1FFFFFFF5DFFFFE0
1FFFFFFFFFFFFFE0
0EFFFFFFFFFFFFC0
08FFFFFFFFFFFF60
01BFFFFFFFFFFA00
0006CEFFFFEB5000
ENDCHAR
STARTCHAR Tbar
ENCODING 358
SWIDTH 578 0
DWIDTH 14 0
BBX 15 17 -1 0
BITMAP
0000001111000000
0007DFFFFFFC6000
01CFF3000000FB00
09FFFCCB09CCFF70
0EFFFFFF0CFFFFC0
1FFFFFFF0CFFFFE0
1FFFFFA7069FFFE0
1FFFFF96059FFFE0
1FFFFFFF0CFFFFE0
1FFFFFFF0CFFFFE0
1FFFFFFF0CFFFFE0
1FFFFFFF5DFFFFE0
1FFFFFFFFFFFFFE0
0EFFFFFFFFFFFFC0
08FFFFFFFFFFFF60
01BFFFFFFFFFFA00
0006CEFFFFEB5000
ENDCHAR
STARTCHAR tbar
ENCODING 359
SWIDTH 578 0
DWIDTH 14 0
BBX 15 17 -1 0
BITMAP
0000001111000000
0007DFFFFFFC6000
01CFF3000000FB00
09FFFCCB09CCFF70
0EFFFFFF0CFFFFC0
1FFFFFFF0CFFFFE0
1FFFFFA7069FFFE0
1FFFFF96059FFFE0
1FFFFFFF0CFFFFE0
1FFFFFFF0CFFFFE0
1FFFFFFF0CFFFFE0
1FFFFFFF5DFFFFE0
1FFFFFFFFFFFFFE0
0EFFFFFFFFFFFFC0
08FFFFFFFFFFFF60
01BFFFFFFFFFFA00
0006CEFFFFEB5000
ENDCHAR
STARTCHAR Utilde
ENCODING 360
SWIDTH 578 0
DWIDTH 14 0
BBX 15 23 -1 0
BITMAP
00000069A9610000
00003DFFFFFE4000
0001EFFFFFFFE200
0007FFFFFFFFF800
0009FFEEFEAFFB00
0008FE02351FFA00
0004FD8FC8AFF500
0007FFFFFFFFF000
01CFB0FFFFD0EB00
09FFB0FFFFD0EF70
0EFFB0FFFFD0EFC0
1FFFB0FFFFD0EFE0
1FFFB0FFFFD0EFE0
1FFFB0FFFFD0EFE0
1FFFB0FFFFD0EFE0
1FFFB0FFFFC0EFE0
1FFFD0577741FFE0
1FFFFA55556BFFE0
1FFFFFFFFFFFFFE0
0EFFFFFFFFFFFFC0
08FFFFFFFFFFFF60
01BFFFFFFFFFFA00
0006CEFFFFEB5000
ENDCHAR
STARTCHAR utilde
ENCODING 361
SWIDTH 578 0
DWIDTH 14 0
BBX 15 23 -1 0
BITMAP
00000059AA610000
00003DFFFFFE4000
0001DFFFFFFFE200
0006FFFFFFFFF800
0009FFEEFEAFFB00
0008FE12351FFA00
0003FD8FC8AFF500
0007FFFFFFFFF000
01CFB0FFFFD0EB00
09FFB0FFFFD0EF70
0EFFB0FFFFD0EFC0
1FFFB0FFFFD0EFE0
1FFFB0FFFFD0EFE0
1FFFB0FFFFD0EFE0
1FFFB0FFFFD0EFE0
1FFFB0FFFFC0EFE0
1FFFD0577741FFE0
1FFFFA55556BFFE0
1FFFFFFFFFFFFFE0
0EFFFFFFFFFFFFC0
08FFFFFFFFFFFF60
01BFFFFFFFFFFA00
0006CEFFFFEB5000
ENDCHAR
STARTCHAR Umacron
ENCODING 362
SWIDTH 578 0
DWIDTH 14 0
BBX 15 22 -1 0
BITMAP
000005BEFEB50000
00009FFFFFFFB000
0005FFFFFFFFF600
0009FF64449FFA00
0008FF8777AFF900
0002FFFFFFFFF300
0007FFFFFFFFC000
01CFB0FFFFD0EB00
09FFB0FFFFD0EF70
0EFFB0FFFFD0EFC0
1FFFB0FFFFD0EFE0
1FFFB0FFFFD0EFE0
1FFFB0FFFFD0EFE0
1FFFB0FFFFD0EFE0
1FFFB0FFFFC0EFE0
1FFFD0577741FFE0
1FFFFA55556BFFE0
1FFFFFFFFFFFFFE0
0EFFFFFFFFFFFFC0
08FFFFFFFFFFFF60
01BFFFFFFFFFFA00
0006CEFFFFEB5000
ENDCHAR
STARTCHAR umacron
ENCODING 363
SWIDTH 578 0
DWIDTH 14 0
BBX 15 22 -1 0
BITMAP
000005BEFEB50000
00009FFFFFFFB000
0005FFFFFFFFF600
0009FF64449FFA00
0008FF8777AFF900
0002FFFFFFFFF300
0007FFFFFFFFC000
01CFB0FFFFD0EB00
09FFB0FFFFD0EF70
0EFFB0FFFFD0EFC0
1FFFB0FFFFD0EFE0
1FFFB0FFFFD0EFE0
1FFFB0FFFFD0EFE0
1FFFB0FFFFD0EFE0
1FFFB0FFFFC0EFE0
1FFFD0577741FFE0
1FFFFA55556BFFE0
1FFFFFFFFFFFFFE0
0EFFFFFFFFFFFFC0
08FFFFFFFFFFFF60
01BFFFFFFFFFFA00
0006CEFFFFEB5000
ENDCHAR
STARTCHAR Ubreve
ENCODING 364
SWIDTH 578 0
DWIDTH 14 0
BBX 15 22 -1 0
BITMAP
000005BEFEB50000
00009FFFFFFFB000
0005FFFFFFFFF600
0009FFBBFCAFFA00
0008FF92637FF900
0002FFFA9AFFF300
0007FFFFFFFFC000
01CFB0FFFFD0EB00
09FFB0FFFFD0EF70
0EFFB0FFFFD0EFC0
1FFFB0FFFFD0EFE0
1FFFB0FFFFD0EFE0
1FFFB0FFFFD0EFE0
1FFFB0FFFFD0EFE0
1FFFB0FFFFC0EFE0
1FFFD0577741FFE0
1FFFFA55556BFFE0
1FFFFFFFFFFFFFE0
0EFFFFFFFFFFFFC0
08FFFFFFFFFFFF60
01BFFFFFFFFFFA00
0006CEFFFFEB5000
ENDCHAR
STARTCHAR ubreve
ENCODING 365
SWIDTH 578 0
DWIDTH 14 0
BBX 15 22 -1 0
BITMAP
000005BEFEB50000
00009FFFFFFFB000
0005FFFFFFFFF700
0009FFBBFCAFFB00
0008FF92637FFA00
0002FFFB9AFFF400
0007FFFFFFFFC000
01CFB0FFFFD0EB00
09FFB0FFFFD0EF70
0EFFB0FFFFD0EFC0
1FFFB0FFFFD0EFE0
1FFFB0FFFFD0EFE0
1FFFB0FFFFD0EFE0
1FFFB0FFFFD0EFE0
1FFFB0FFFFC0EFE0
1FFFD0577741FFE0
1FFFFA55556BFFE0
1FFFFFFFFFFFFFE0
0EFFFFFFFFFFFFC0
08FFFFFFFFFFFF60
01BFFFFFFFFFFA00
0006CEFFFFEB5000
ENDCHAR
STARTCHAR Uring
ENCODING 366
SWIDTH 578 0
DWIDTH 14 0
BBX 15 23 -1 0
BITMAP
0000001575100000
000007FFFFE50000
00005FFCADFF3000
0000CF9362CF9000
0000FF6AF79FD000
0000EF8472BFD000
0000CFFBACFF9000
0007FFFFFFFF8000
01CFB0FFFFD0EB00
09FFB0FFFFD0EF70
0EFFB0FFFFD0EFC0
1FFFB0FFFFD0EFE0
1FFFB0FFFFD0EFE0
1FFFB0FFFFD0EFE0
1FFFB0FFFFD0EFE0
1FFFB0FFFFC0EFE0
1FFFD0577741FFE0
1FFFFA55556BFFE0
1FFFFFFFFFFFFFE0
0EFFFFFFFFFFFFC0
08FFFFFFFFFFFF60
01BFFFFFFFFFFA00
0006CEFFFFEB5000
ENDCHAR
STARTCHAR uring
ENCODING 367
SWIDTH 578 0
DWIDTH 14 0
BBX 15 23 -1 0
BITMAP
0000001575100000
000006EFFFE50000
00004FFCADFF3000
0000BFA362BFA000
0000FF7AF79FD000
0000EF9472BFD000
0000CFFBACFFA000
0007FFFFFFFF9000
01CFB0FFFFD0EB00
09FFB0FFFFD0EF70
0EFFB0FFFFD0EFC0
1FFFB0FFFFD0EFE0
1FFFB0FFFFD0EFE0
1FFFB0FFFFD0EFE0
1FFFB0FFFFD0EFE0
1FFFB0FFFFC0EFE0
1FFFD0577741FFE0
1FFFFA55556BFFE0
1FFFFFFFFFFFFFE0
0EFFFFFFFFFFFFC0
08FFFFFFFFFFFF60
01BFFFFFFFFFFA00
0006CEFFFFEB5000
ENDCHAR
STARTCHAR Uhungarumlaut
ENCODING 368
SWIDTH 581 0
DWIDTH 14 0
BBX 15 24 -1 0
BITMAP
0000000024234100
00000007FFFFF900
0000002FFFFFFF20
000000AFE2EA5FA0
000003FF6BF3EFB0
00000BFD6F9AFE20
00002FF7EE6FF600
00001FFFFFFFB000
0007DFFFFFFF8000
01CFB0FFFFD0EB00
09FFB0FFFFD0EF70
0EFFB0FFFFD0EFC0
1FFFB0FFFFD0EFE0
1FFFB0FFFFD0EFE0
1FFFB0FFFFD0EFE0
1FFFB0FFFFD0EFE0
1FFFB0FFFFC0EFE0
1FFFD0577741FFE0
1FFFFA55556BFFE0
1FFFFFFFFFFFFFE0
0EFFFFFFFFFFFFC0
08FFFFFFFFFFFF60
01BFFFFFFFFFFA00
0006CEFFFFEB5000
ENDCHAR
STARTCHAR uhungarumlaut
ENCODING 369
SWIDTH 582 0
DWIDTH 14 0
BBX 15 24 -1 0
BITMAP
0000000014224100
00000006FFFFF900
0000002FFFFFFF20
0000009FE2EA5FA0
000003FF6AF3EFB0
00000BFD6F9AFE20
00002FF7EF6FF600
00001FFFFFFFB000
0007DFFFFFFF8000
01CFB0FFFFD0EB00
09FFB0FFFFD0EF70
0EFFB0FFFFD0EFC0
1FFFB0FFFFD0EFE0
1FFFB0FFFFD0EFE0
1FFFB0FFFFD0EFE0
1FFFB0FFFFD0EFE0
1FFFB0FFFFC0EFE0
1FFFD0577741FFE0
1FFFFA55556BFFE0
1FFFFFFFFFFFFFE0
0EFFFFFFFFFFFFC0
08FFFFFFFFFFFF60
01BFFFFFFFFFFA00
0006CEFFFFEB5000
ENDCHAR
STARTCHAR Uogonek
ENCODING 370
SWIDTH 578 0
DWIDTH 14 0
BBX 15 17 -1 0
BITMAP
0000001111000000
0007DFFFFFFC6000
01CFB0FFFFD0EB00
09FFB0FFFFD0EF70
0EFFB0FFFFD0EFC0
1FFFB0FFFFD0EFE0
1FFFB0FFFFD0EFE0
1FFFB0FFFFD0EFE0
1FFFB0FFFFD0EFE0
1FFFB0FFFFC0EFE0
1FFFD0577741FFE0
1FFFFA55316BFFE0
1FFFFFFC2CFFFFE0
0EFFFFF68FFFFFC0
08FFFFF827FFFF60
01BFFFFFA9FFFA00
0006CEFFFFEB5000
ENDCHAR
STARTCHAR uogonek
ENCODING 371
SWIDTH 578 0
DWIDTH 14 0
BBX 15 17 -1 0
BITMAP
0000001111000000
0007DFFFFFFC6000
01CFB0FFFFD0EB00
09FFB0FFFFD0EF70
0EFFB0FFFFD0EFC0
1FFFB0FFFFD0EFE0
1FFFB0FFFFD0EFE0
1FFFB0FFFFD0EFE0
1FFFB0FFFFD0EFE0
1FFFB0FFFFD0EFE0
1FFFD0577741FFE0
1FFFFA55316BFFE0
1FFFFFFC2CFFFFE0
0EFFFFF68FFFFFC0
08FFFFF827FFFF60
01BFFFFFA9FFFA00
0006CEFFFFEB5000
ENDCHAR
STARTCHAR Wcircumflex
ENCODING 372
SWIDTH 578 0
DWIDTH 14 0
BBX 15 24 -1 0
BITMAP
0000002785000000
000002EFFF800000
00000AFECFF10000
00002FF63EF70000
00007FE399FD0000
0000DF98E3FF4000
0001FF8DF7EF7000
0000EFFFFFFF5000
0007FFFFFFFF6000
01CA2FFC7FF84B00
09FB0EF70FF73F70
0EFC0DF50CF55FC0
1FFE0BF20AF46FE0
1FFF0AE047F28FE0
1FFF28C084F1AFE0
1FFF4793A2F0BFE0
1FFF5665C0C0DFE0
1FFF7227E040EFE0
1FFFE66EFB5AFFE0
1FFFFFFFFFFFFFE0
0EFFFFFFFFFFFFC0
08FFFFFFFFFFFF60
01BFFFFFFFFFFA00
0006CEFFFFEB5000
ENDCHAR
STARTCHAR wcircumflex
ENCODING 373
SWIDTH 578 0
DWIDTH 14 0
BBX 15 24 -1 0
BITMAP
0000002785000000
000002EFFF800000
00000AFECFF10000
00002FF63EF70000
00007FE399FD0000
0000DF98E3FF4000
0001FF8DF7EF7000
0000EFFFFFFF5000
0007FFFFFFFF6000
01CA2FFC7FF84B00
09FB0EF70FF73F70
0EFC0DF50CF55FC0
1FFE0BF20AF46FE0
1FFF0AE047F28FE0
1FFF28C084F1AFE0
1FFF4793A2F0BFE0
1FFF5665C0C0DFE0
1FFF7227E040EFE0
1FFFE66EFB5AFFE0
1FFFFFFFFFFFFFE0
0EFFFFFFFFFFFFC0
08FFFFFFFFFFFF60
01BFFFFFFFFFFA00
0006CEFFFFEB5000
ENDCHAR
STARTCHAR Ycircumflex
ENCODING 374
SWIDTH 578 0
DWIDTH 14 0
BBX 15 24 -1 0
BITMAP
0000001686100000
000000DFFFB00000
000006FFBFF40000
00000DF93BFB0000
00004FF4C5FF2000
00009FD4F3EF7000
0000CFAAF9BFB000
0000BFFFFFFF9000
0007FFFFFFFF7000
01CFF26FFF62FB00
09FFF81FFE19FF70
0EFFFE1AF91EFFC0
1FFFFF64F36FFFE0
1FFFFFC090DFFFE0
1FFFFFF304FFFFE0
1FFFFFFA0BFFFFE0
1FFFFFFD0EFFFFE0
1FFFFFFD0EFFFFE0
1FFFFFFD5EFFFFE0
1FFFFFFFFFFFFFE0
0EFFFFFFFFFFFFC0
08FFFFFFFFFFFF60
01BFFFFFFFFFFA00
0006CEFFFFEB5000
ENDCHAR
STARTCHAR ycircumflex
ENCODING 375
SWIDTH 578 0
DWIDTH 14 0
BBX 15 24 -1 0
BITMAP
0000001686100000
000000DFFFB00000
000006FFBFF40000
00000DF93BFB0000
00004FF4C5FF2000
00009FD4F3EF7000
0000CFAAF9BFB000
0000BFFFFFFF9000
0007FFFFFFFF7000
01CFF26FFF62FB00
09FFF81FFE19FF70
0EFFFE1AF91EFFC0
1FFFFF64F36FFFE0
1FFFFFC090DFFFE0
1FFFFFF304FFFFE0
1FFFFFFA0BFFFFE0
1FFFFFFD0EFFFFE0
1FFFFFFD0EFFFFE0
1FFFFFFD5EFFFFE0
1FFFFFFFFFFFFFE0
0EFFFFFFFFFFFFC0
08FFFFFFFFFFFF60
01BFFFFFFFFFFA00
0006CEFFFFEB5000
ENDCHAR
STARTCHAR Ydieresis
ENCODING 376
SWIDTH 578 0
DWIDTH 14 0
BBX 15 22 -1 0
BITMAP
0000029DED920000
00005FFFFFFF5000
0000EFFFFFFFE000
0003FF26F35FF300
0001FF79F89FF100
0000AFFFFFFF9000
0007DFFFFFFF7000
01CFF26FFF62FB00
09FFF81FFE19FF70
0EFFFE1AF91EFFC0
1FFFFF64F36FFFE0
1FFFFFC090DFFFE0
1FFFFFF304FFFFE0
1FFFFFFA0BFFFFE0
1FFFFFFD0EFFFFE0
1FFFFFFD0EFFFFE0
1FFFFFFD5EFFFFE0
1FFFFFFFFFFFFFE0
0EFFFFFFFFFFFFC0
08FFFFFFFFFFFF60
01BFFFFFFFFFFA00
0006CEFFFFEB5000
ENDCHAR
STARTCHAR Zacute
ENCODING 377
SWIDTH 578 0
DWIDTH 14 0
BBX 15 24 -1 0
BITMAP
0000000010000000
0000007EFEA20000
000003FFFFFD0000
000008FF1AFF2000
00000CFB2FFC0000
00001FF68FF40000
00004FF4EFA00000
00002FFFFF200000
0007DFFFFFFC6000
01CFF900002FFB00
09FFFECCC42FFF70
0EFFFFFFD0BFFFC0
1FFFFFFF54FFFFE0
1FFFFFFB0CFFFFE0
1FFFFFF36FFFFFE0
1FFFFFA1EFFFFFE0
1FFFFE28FFFFFFE0
1FFFF906777CFFE0
1FFFFC55555BFFE0
1FFFFFFFFFFFFFE0
0EFFFFFFFFFFFFC0
08FFFFFFFFFFFF60
01BFFFFFFFFFFA00
0006CEFFFFEB5000
ENDCHAR
STARTCHAR zacute
ENCODING 378
SWIDTH 578 0
DWIDTH 14 0
BBX 15 24 -1 0
BITMAP
0000000010000000
0000007EFEA20000
000003FFFFFD0000
000008FF1AFF2000
00000CFB2FFC0000
00001FF68FF40000
00004FF4EFA00000
00002FFFFF200000
0007DFFFFFFC6000
01CFF900002FFB00
09FFFECCC42FFF70
0EFFFFFFD0BFFFC0
1FFFFFFF54FFFFE0
1FFFFFFB0CFFFFE0
1FFFFFF36FFFFFE0
1FFFFFA1EFFFFFE0
1FFFFE28FFFFFFE0
1FFFF906777CFFE0
1FFFFC55555BFFE0
1FFFFFFFFFFFFFE0
0EFFFFFFFFFFFFC0
08FFFFFFFFFFFF60
01BFFFFFFFFFFA00
0006CEFFFFEB5000
ENDCHAR
STARTCHAR Zdotaccent
ENCODING 379
SWIDTH 578 0
DWIDTH 14 0
BBX 15 22 -1 0
BITMAP
000029DFFD810000
0004EFFFFFFE3000
000EFFFFFFFFC000
003FFFF68FFFF200
002FFFF57FFFF100
000DFFFFFFFFC000
000CFFFFFFFFA000
01CFF900002FFB00
09FFFECCC42FFF70
0EFFFFFFD0BFFFC0
1FFFFFFF54FFFFE0
1FFFFFFB0CFFFFE0
1FFFFFF36FFFFFE0
1FFFFFA1EFFFFFE0
1FFFFE28FFFFFFE0
1FFFF906777CFFE0
1FFFFC55555BFFE0
1FFFFFFFFFFFFFE0
0EFFFFFFFFFFFFC0
08FFFFFFFFFFFF60
01BFFFFFFFFFFA00
0006CEFFFFEB5000
ENDCHAR
STARTCHAR zdotaccent
ENCODING 380
SWIDTH 578 0
DWIDTH 14 0
BBX 15 22 -1 0
BITMAP
000029DFFD810000
0004EFFFFFFE3000
000EFFFFFFFFC000
003FFFF68FFFF200
002FFFF57FFFF100
000DFFFFFFFFC000
000CFFFFFFFFA000
01CFF900002FFB00
09FFFECCC42FFF70
0EFFFFFFD0BFFFC0
1FFFFFFF54FFFFE0
1FFFFFFB0CFFFFE0
1FFFFFF36FFFFFE0
1FFFFFA1EFFFFFE0
1FFFFE28FFFFFFE0
1FFFF906777CFFE0
1FFFFC55555BFFE0
1FFFFFFFFFFFFFE0
0EFFFFFFFFFFFFC0
08FFFFFFFFFFFF60
01BFFFFFFFFFFA00
0006CEFFFFEB5000
ENDCHAR
STARTCHAR Zcaron
ENCODING 381
SWIDTH 578 0
DWIDTH 14 0
BBX 15 23 -1 0
BITMAP
00003AC96CC60000
0001EFFFFFFF4000
0002FF6DF5EF6000
0001FF98C4FF5000
0000CFE48AFF1000
00007FF53FFC0000
00002FFFEFF70000
0007DFFFFFFD6000
01CFF900002FFB00
09FFFECCC42FFF70
0EFFFFFFD0BFFFC0
1FFFFFFF54FFFFE0
1FFFFFFB0CFFFFE0
1FFFFFF36FFFFFE0
1FFFFFA1EFFFFFE0
1FFFFE28FFFFFFE0
1FFFF906777CFFE0
1FFFFC55555BFFE0
1FFFFFFFFFFFFFE0
0EFFFFFFFFFFFFC0
08FFFFFFFFFFFF60
01BFFFFFFFFFFA00
0006CEFFFFEB5000
ENDCHAR
STARTCHAR zcaron
ENCODING 382
SWIDTH 578 0
DWIDTH 14 0
BBX 15 23 -1 0
BITMAP
00003AC96CC60000
0001EFFFFFFF4000
0002FF6DF5EF6000
0001FF98C4FF5000
0000CFE48AFF1000
00007FF53FFC0000
00002FFFEFF70000
0007DFFFFFFD6000
01CFF900002FFB00
09FFFECCC42FFF70
0EFFFFFFD0BFFFC0
1FFFFFFF54FFFFE0
1FFFFFFB0CFFFFE0
1FFFFFF36FFFFFE0
1FFFFFA1EFFFFFE0
1FFFFE28FFFFFFE0
1FFFF906777CFFE0
1FFFFC55555BFFE0
1FFFFFFFFFFFFFE0
0EFFFFFFFFFFFFC0
08FFFFFFFFFFFF60
01BFFFFFFFFFFA00
0006CEFFFFEB5000
ENDCHAR
STARTCHAR longs
ENCODING 383
SWIDTH 578 0
DWIDTH 14 0
BBX 15 17 -1 0
BITMAP
0000001111000000
0007DFFFFFFC6000
01CFFFEA9CFFFB00
09FFFC25736FFF70
0EFFE2CFFF68FFC0
1FFFA6FFFFE2FFE0
1FFF98FE7FF2FFE0
1FFFB5FD4FD3FFE0
1FFFF49D4E4AFFE0
1FFFFE9D4DAFFFE0
1FFFFFFD6FFFFFE0
1FFFFFFFFFFFFFE0
1FFFFFFFFFFFFFE0
0EFFFFFFFFFFFFC0
08FFFFFFFFFFFF60
01BFFFFFFFFFFA00
0006CEFFFFEB5000
ENDCHAR
STARTCHAR florin
ENCODING 402
SWIDTH 578 0
DWIDTH 14 0
BBX 15 17 -1 0
BITMAP
0000001111000000
0007DFFFFFFC6000
01CFFFF9009FFB00
09FFFFD0ACEFFF70
0EFFFFD0DFFFFFC0
1FFFFFD0DFFFFFE0
1FFFFB3037FFFFE0
1FFFFEA0ACFFFFE0
1FFFFFD0DFFFFFE0
1FFFFFD0DFFFFFE0
1FFFFFD0DFFFFFE0
1FFFFFD0DFFFFFE0
1FFFFDC0DFFFFFE0
0EFFF208FFFFFFC0
08FFFFFFFFFFFF60
01BFFFFFFFFFFA00
0006CEFFFFEB5000
ENDCHAR
STARTCHAR uni01CD
ENCODING 461
SWIDTH 578 0
DWIDTH 14 0
BBX 15 23 -1 0
BITMAP
000029CA5BC80000
0000BFFFFFFF7000
0000EF8BF7CFA000
0000CFC5F2FF8000
00008FF3A7FF5000
00004FF92DFF1000
00000EFFEFFA0000
0007DFFFFFFF6000
01CFFC31015EFB00
09FFF54BBA0BFF70
0EFFF47FFF29FFC0
1FFFF29FFF37FFE0
1FFFF0AFFF56FFE0
1FFFE0000004FFE0
1FFFC0CDDD73FFE0
1FFFA0FFFF91FFE0
1FFF91FFFFB0FFE0
1FFFA6FFFFD5EFE0
1FFFFFFFFFFFFFE0
0EFFFFFFFFFFFFC0
08FFFFFFFFFFFF60
01BFFFFFFFFFFA00
0006CEFFFFEB5000
ENDCHAR
STARTCHAR uni01CE
ENCODING 462
SWIDTH 578 0
DWIDTH 14 0
BBX 15 23 -1 0
BITMAP
000018CB5ACA2000
00008FFFFFFFA000
0000BFB8FA9FD000
00009FE3F4DFB000
00005FF6B4FF8000
00001FFC2AFF4000
00000BFFDFFD0000
0007DFFFFFFF6000
01CFF500015EFB00
09FFFCBCCA0CFF70
0EFFFFFFFF1CFFC0
1FFFFFFFFF1CFFE0
1FFFFC99990CFFE0
1FFFB023320CFFE0
1FFF74FFFF1CFFE0
1FFF74FFFF1CFFE0
1FFF9167760CFFE0
1FFFF755566DFFE0
1FFFFFFFFFFFFFE0
0EFFFFFFFFFFFFC0
08FFFFFFFFFFFF60
01BFFFFFFFFFFA00
0006CEFFFFEB5000
ENDCHAR
STARTCHAR uni01CF
ENCODING 463
SWIDTH 578 0
DWIDTH 14 0
BBX 15 23 -1 0
BITMAP
000007CC69CA2000
00006FFFFFFFC000
00009FC7FB8FE000
00007FF3E6BFD000
00004FF8A3FFA000
00000EFD28FF5000
000009FFEFFE1000
0007DFFFFFFF6000
01CFF3000000FB00
09FFFCCB09CCFF70
0EFFFFFF0CFFFFC0
1FFFFFFF0CFFFFE0
1FFFFFFF0CFFFFE0
1FFFFFFF0CFFFFE0
1FFFFFFF0CFFFFE0
1FFFFFFF0CFFFFE0
1FFFF8770577FFE0
1FFFF7555555FFE0
1FFFFFFFFFFFFFE0
0EFFFFFFFFFFFFC0
08FFFFFFFFFFFF60
01BFFFFFFFFFFA00
0006CEFFFFEB5000
ENDCHAR
STARTCHAR uni01D0
ENCODING 464
SWIDTH 578 0
DWIDTH 14 0
BBX 15 23 -1 0
BITMAP
000008CB5ACA2000
00007FFFFFFFB000
0000AFC7FA9FE000
00008FF2F5CFC000
00004FF7A3FF9000
00001EFD29FF4000
00000AFFEFFE0000
0007DFFFFFFF6000
01CFF3000000FB00
09FFFCCB09CCFF70
0EFFFFFF0CFFFFC0
1FFFFFFF0CFFFFE0
1FFFFFFF0CFFFFE0
1FFFFFFF0CFFFFE0
1FFFFFFF0CFFFFE0
1FFFFFFF0CFFFFE0
1FFFF8770577FFE0
1FFFF7555555FFE0
1FFFFFFFFFFFFFE0
0EFFFFFFFFFFFFC0
08FFFFFFFFFFFF60
01BFFFFFFFFFFA00
0006CEFFFFEB5000
ENDCHAR
STARTCHAR uni01D1
ENCODING 465
SWIDTH 578 0
DWIDTH 14 0
BBX 15 23 -1 0
BITMAP
000018CB5AC91000
00009FFFFFFF9000
0000CFA9F9AFC000
0000AFE3F3EFA000
00006FF5B5FF7000
00002FFB2AFF3000
00000CFFDFFD0000
0007DFFFFFFF6000
01CFF6100017FB00
09FFD09CCB90EF70
0EFFC0EFFFE0DFC0
1FFFC0EFFFE0DFE0
1FFFC0EFFFE0DFE0
1FFFC0EFFFE0DFE0
1FFFC0EFFFE0DFE0
1FFFC0EFFFE0DFE0
1FFFE0577750EFE0
1FFFFA55555BFFE0
1FFFFFFFFFFFFFE0
0EFFFFFFFFFFFFC0
08FFFFFFFFFFFF60
01BFFFFFFFFFFA00
0006CEFFFFEB5000
ENDCHAR
STARTCHAR uni01D3
ENCODING 467
SWIDTH 578 0
DWIDTH 14 0
BBX 15 23 -1 0
BITMAP
000018CB5ACA2000
00008FFFFFFFA000
0000AFB8FA9FD000
00009FF3F4DFC000
00005FF6B4FF8000
00001FFC29FF4000
00000BFFDFFE0000
0007DFFFFFFF6000
01CFB0FFFFD0EB00
09FFB0FFFFD0EF70
0EFFB0FFFFD0EFC0
1FFFB0FFFFD0EFE0
1FFFB0FFFFD0EFE0
1FFFB0FFFFD0EFE0
1FFFB0FFFFD0EFE0
1FFFB0FFFFC0EFE0
1FFFD0577741FFE0
1FFFFA55556BFFE0
1FFFFFFFFFFFFFE0
0EFFFFFFFFFFFFC0
08FFFFFFFFFFFF60
01BFFFFFFFFFFA00
0006CEFFFFEB5000
ENDCHAR
STARTCHAR uni01D4
ENCODING 468
SWIDTH 578 0
DWIDTH 14 0
BBX 15 23 -1 0
BITMAP
000008CB5ACA2000
00007FFFFFFFB000
0000AFC7FA9FE000
00008FF2F5CFC000
00004FF7A3FF9000
00001EFD29FF4000
00000AFFEFFE0000
0007DFFFFFFF6000
01CFB0FFFFD0EB00
09FFB0FFFFD0EF70
0EFFB0FFFFD0EFC0
1FFFB0FFFFD0EFE0
1FFFB0FFFFD0EFE0
1FFFB0FFFFD0EFE0
1FFFB0FFFFD0EFE0
1FFFB0FFFFC0EFE0
1FFFD0577741FFE0
1FFFFA55556BFFE0
1FFFFFFFFFFFFFE0
0EFFFFFFFFFFFFC0
08FFFFFFFFFFFF60
01BFFFFFFFFFFA00
0006CEFFFFEB5000
ENDCHAR
STARTCHAR uni0200
ENCODING 512
SWIDTH 578 0
DWIDTH 14 0
BBX 15 24 -1 0
BITMAP
0001432420000000
0009FFFFF7000000
002FFFFFFF200000
00AF59E2DFA00000
00BFE3FB6FF30000
002EFA8F6CFB0000
0006FF7EE7FF2000
0000BFFFFFFF2000
0007EFFFFFFF6000
01CFFC31015EFB00
09FFF54BBA0BFF70
0EFFF47FFF29FFC0
1FFFF29FFF37FFE0
1FFFF0AFFF56FFE0
1FFFE0000004FFE0
1FFFC0CDDD73FFE0
1FFFA0FFFF91FFE0
1FFF91FFFFB0FFE0
1FFFA6FFFFD5EFE0
1FFFFFFFFFFFFFE0
0EFFFFFFFFFFFFC0
08FFFFFFFFFFFF60
01BFFFFFFFFFFA00
0006CEFFFFEB5000
ENDCHAR
STARTCHAR uni0201
ENCODING 513
SWIDTH 578 0
DWIDTH 14 0
BBX 15 24 -1 0
BITMAP
0001432420000000
0009FFFFF7000000
002FFFFFFF200000
00AF59E2DFA00000
00BFE3FB6FF30000
002EFA8F6CFB0000
0006FF7EE7FF2000
0000BFFFFFFF2000
0007EFFFFFFF6000
01CFF500015EFB00
09FFFCBCCA0CFF70
0EFFFFFFFF1CFFC0
1FFFFFFFFF1CFFE0
1FFFFC99990CFFE0
1FFFB023320CFFE0
1FFF74FFFF1CFFE0
1FFF74FFFF1CFFE0
1FFF9167760CFFE0
1FFFF755566DFFE0
1FFFFFFFFFFFFFE0
0EFFFFFFFFFFFFC0
08FFFFFFFFFFFF60
01BFFFFFFFFFFA00
0006CEFFFFEB5000
ENDCHAR
STARTCHAR uni0202
ENCODING 514
SWIDTH 578 0
DWIDTH 14 0
BBX 15 23 -1 0
BITMAP
0000001332000000
00002AFFFFE70000
0002EFFFFFFFB000
000AFFFFFFFFF500
000CFF9102DFF700
000AFF4AE59FF500
0003FFFFFFFFC000
0007FFFFFFFF7000
01CFFC31015EFB00
09FFF54BBA0BFF70
0EFFF47FFF29FFC0
1FFFF29FFF37FFE0
1FFFF0AFFF56FFE0
1FFFE0000004FFE0
1FFFC0CDDD73FFE0
1FFFA0FFFF91FFE0
1FFF91FFFFB0FFE0
1FFFA6FFFFD5EFE0
1FFFFFFFFFFFFFE0
0EFFFFFFFFFFFFC0
08FFFFFFFFFFFF60
01BFFFFFFFFFFA00
0006CEFFFFEB5000
ENDCHAR
STARTCHAR uni0203
ENCODING 515
SWIDTH 578 0
DWIDTH 14 0
BBX 15 23 -1 0
BITMAP
0000001332000000
00002AFFFFE70000
0002EFFFFFFFB000
000AFFFFFFFFF500
000CFF9102DFF700
000AFF4AE59FF500
0003FFFFFFFFC000
0007FFFFFFFF7000
01CFF500015EFB00
09FFFCBCCA0CFF70
0EFFFFFFFF1CFFC0
1FFFFFFFFF1CFFE0
1FFFFC99990CFFE0
1FFFB023320CFFE0
1FFF74FFFF1CFFE0
1FFF74FFFF1CFFE0
1FFF9167760CFFE0
1FFFF755566DFFE0
1FFFFFFFFFFFFFE0
0EFFFFFFFFFFFFC0
08FFFFFFFFFFFF60
01BFFFFFFFFFFA00
0006CEFFFFEB5000
ENDCHAR
STARTCHAR uni0204
ENCODING 516
SWIDTH 578 0
DWIDTH 14 0
BBX 15 24 -1 0
BITMAP
0001432420000000
0009FFFFF7000000
002FFFFFFF200000
00AF59E2DFA00000
00BFE3FB6FF30000
002EFA8F6CFB0000
0006FF7EE7FF2000
0000BFFFFFFF2000
0007EFFFFFFF6000
01CFFB000008FB00
09FFFB1CCCCDFF70
0EFFFB1FFFFFFFC0
1FFFFB1FFFFFFFE0
1FFFFB04445FFFE0
1FFFFB08889FFFE0
1FFFFB1FFFFFFFE0
1FFFFB1FFFFFFFE0
1FFFFB07777AFFE0
1FFFFC555559FFE0
1FFFFFFFFFFFFFE0
0EFFFFFFFFFFFFC0
08FFFFFFFFFFFF60
01BFFFFFFFFFFA00
0006CEFFFFEB5000
ENDCHAR
STARTCHAR uni0205
ENCODING 517
SWIDTH 578 0
DWIDTH 14 0
BBX 15 24 -1 0
BITMAP
0001432420000000
0009FFFFF7000000
002FFFFFFF200000
00AF59E2DFA00000
00BFE3FB6FF30000
002EFA8F6CFB0000
0006FF7EE7FF2000
0000BFFFFFFF2000
0007EFFFFFFF6000
01CFE400015FFB00
09FF91BCCA0CFF70
0EFF83FFFF0BFFC0
1FFF8299990BFFE0
1FFF8033333CFFE0
1FFF83FFFFFFFFE0
1FFF83FFFFFFFFE0
1FFF92FFFFEFFFE0
1FFFD101113FFFE0
1FFFFDBAAACFFFE0
1FFFFFFFFFFFFFE0
0EFFFFFFFFFFFFC0
08FFFFFFFFFFFF60
01BFFFFFFFFFFA00
0006CEFFFFEB5000
ENDCHAR
STARTCHAR uni0206
ENCODING 518
SWIDTH 578 0
DWIDTH 14 0
BBX 15 23 -1 0
BITMAP
0000001332000000
00002AFFFFE70000
0002EFFFFFFFB000
000AFFFFFFFFF500
000CFF9102DFF700
000AFF4AE59FF500
0003FFFFFFFFC000
0007FFFFFFFF7000
01CFFB000008FB00
09FFFB1CCCCDFF70
0EFFFB1FFFFFFFC0
1FFFFB1FFFFFFFE0
1FFFFB04445FFFE0
1FFFFB08889FFFE0
1FFFFB1FFFFFFFE0
1FFFFB1FFFFFFFE0
1FFFFB07777AFFE0
1FFFFC555559FFE0
1FFFFFFFFFFFFFE0
0EFFFFFFFFFFFFC0
08FFFFFFFFFFFF60
01BFFFFFFFFFFA00
0006CEFFFFEB5000
ENDCHAR
STARTCHAR uni0207
ENCODING 519
SWIDTH 578 0
DWIDTH 14 0
BBX 15 23 -1 0
BITMAP
0000001332000000
00002AFFFFE70000
0002EFFFFFFFB000
000AFFFFFFFFF500
000CFF9102DFF700
000AFF4AE59FF500
0003FFFFFFFFC000
0007FFFFFFFF7000
01CFE400015FFB00
09FF91BCCA0CFF70
0EFF83FFFF0BFFC0
1FFF8299990BFFE0
1FFF8033333CFFE0
1FFF83FFFFFFFFE0
1FFF83FFFFFFFFE0
1FFF92FFFFEFFFE0
1FFFD101113FFFE0
1FFFFDBAAACFFFE0
1FFFFFFFFFFFFFE0
0EFFFFFFFFFFFFC0
08FFFFFFFFFFFF60
01BFFFFFFFFFFA00
0006CEFFFFEB5000
ENDCHAR
STARTCHAR uni0208
ENCODING 520
SWIDTH 578 0
DWIDTH 14 0
BBX 15 24 -1 0
BITMAP
0001432420000000
0009FFFFF7000000
002FFFFFFF200000
00AF59E2DFA00000
00BFE3FB6FF30000
002EFA8F6CFB0000
0006FF7EE7FF2000
0000BFFFFFFF2000
0007EFFFFFFF6000
01CFF3000000FB00
09FFFCCB09CCFF70
0EFFFFFF0CFFFFC0
1FFFFFFF0CFFFFE0
1FFFFFFF0CFFFFE0
1FFFFFFF0CFFFFE0
1FFFFFFF0CFFFFE0
1FFFFFFF0CFFFFE0
1FFFF8770577FFE0
1FFFF7555555FFE0
1FFFFFFFFFFFFFE0
0EFFFFFFFFFFFFC0
08FFFFFFFFFFFF60
01BFFFFFFFFFFA00
0006CEFFFFEB5000
ENDCHAR
STARTCHAR uni0209
ENCODING 521
SWIDTH 578 0
DWIDTH 14 0
BBX 15 24 -1 0
BITMAP
0001432420000000
0009FFFFF7000000
002FFFFFFF200000
00AF59E2DFA00000
00BFE3FB6FF30000
002EFA8F6CFB0000
0006FF7EE7FF2000
0000BFFFFFFF2000
0007EFFFFFFF6000
01CFF3000000FB00
09FFFCCB09CCFF70
0EFFFFFF0CFFFFC0
1FFFFFFF0CFFFFE0
1FFFFFFF0CFFFFE0
1FFFFFFF0CFFFFE0
1FFFFFFF0CFFFFE0
1FFFFFFF0CFFFFE0
1FFFF8770577FFE0
1FFFF7555555FFE0
1FFFFFFFFFFFFFE0
0EFFFFFFFFFFFFC0
08FFFFFFFFFFFF60
01BFFFFFFFFFFA00
0006CEFFFFEB5000
ENDCHAR
STARTCHAR uni020A
ENCODING 522
SWIDTH 578 0
DWIDTH 14 0
BBX 15 23 -1 0
BITMAP
0000001332000000
00002AFFFFE70000
0002EFFFFFFFB000
000AFFFFFFFFF500
000CFF9102DFF700
000AFF4AE59FF500
0003FFFFFFFFC000
0007FFFFFFFF7000
01CFF3000000FB00
09FFFCCB09CCFF70
0EFFFFFF0CFFFFC0
1FFFFFFF0CFFFFE0
1FFFFFFF0CFFFFE0
1FFFFFFF0CFFFFE0
1FFFFFFF0CFFFFE0
1FFFFFFF0CFFFFE0
1FFFF8770577FFE0
1FFFF7555555FFE0
1FFFFFFFFFFFFFE0
0EFFFFFFFFFFFFC0
08FFFFFFFFFFFF60
01BFFFFFFFFFFA00
0006CEFFFFEB5000
ENDCHAR
STARTCHAR uni020B
ENCODING 523
SWIDTH 578 0
DWIDTH 14 0
BBX 15 23 -1 0
BITMAP
0000001332000000
00002AFFFFE70000
0002EFFFFFFFB000
000AFFFFFFFFF500
000CFF9102DFF700
000AFF4AE59FF500
0003FFFFFFFFC000
0007FFFFFFFF7000
01CFF3000000FB00
09FFFCCB09CCFF70
0EFFFFFF0CFFFFC0
1FFFFFFF0CFFFFE0
1FFFFFFF0CFFFFE0
1FFFFFFF0CFFFFE0
1FFFFFFF0CFFFFE0
1FFFFFFF0CFFFFE0
1FFFF8770577FFE0
1FFFF7555555FFE0
1FFFFFFFFFFFFFE0
0EFFFFFFFFFFFFC0
08FFFFFFFFFFFF60
01BFFFFFFFFFFA00
0006CEFFFFEB5000
ENDCHAR
STARTCHAR uni020C
ENCODING 524
SWIDTH 578 0
DWIDTH 14 0
BBX 15 24 -1 0
BITMAP
0001432420000000
0009FFFFF7000000
002FFFFFFF200000
00AF59E2DFA00000
00BFE3FB6FF30000
002EFA8F6CFB0000
0006FF7EE7FF2000
0000BFFFFFFF2000
0007EFFFFFFF6000
01CFF6100017FB00
09FFD09CCB90EF70
0EFFC0EFFFE0DFC0
1FFFC0EFFFE0DFE0
1FFFC0EFFFE0DFE0
1FFFC0EFFFE0DFE0
1FFFC0EFFFE0DFE0
1FFFC0EFFFE0DFE0
1FFFE0577750EFE0
1FFFFA55555BFFE0
1FFFFFFFFFFFFFE0
0EFFFFFFFFFFFFC0
08FFFFFFFFFFFF60
01BFFFFFFFFFFA00
0006CEFFFFEB5000
ENDCHAR
STARTCHAR uni020D
ENCODING 525
SWIDTH 578 0
DWIDTH 14 0
BBX 15 24 -1 0
BITMAP
0001432420000000
0009FFFFF7000000
002FFFFFFF200000
00AF59E2DFA00000
00BFE3FB6FF30000
002EFA8F6CFB0000
0006FF7EE7FF2000
0000BFFFFFFF2000
0007EFFFFFFF6000
01CFF6100017FB00
09FFD09CCB90EF70
0EFFC0EFFFE0DFC0
1FFFC0EFFFE0DFE0
1FFFC0EFFFE0DFE0
1FFFC0EFFFE0DFE0
1FFFC0EFFFE0DFE0
1FFFC0EFFFE0DFE0
1FFFE0577750EFE0
1FFFFA55555BFFE0
1FFFFFFFFFFFFFE0
0EFFFFFFFFFFFFC0
08FFFFFFFFFFFF60
01BFFFFFFFFFFA00
0006CEFFFFEB5000
ENDCHAR
STARTCHAR uni020E
ENCODING 526
SWIDTH 578 0
DWIDTH 14 0
BBX 15 23 -1 0
BITMAP
0000001332000000
00002AFFFFE70000
0002EFFFFFFFB000
000AFFFFFFFFF500
000CFF9102DFF700
000AFF4AE59FF500
0003FFFFFFFFC000
0007FFFFFFFF7000
01CFF6100017FB00
09FFD09CCB90EF70
0EFFC0EFFFE0DFC0
1FFFC0EFFFE0DFE0
1FFFC0EFFFE0DFE0
1FFFC0EFFFE0DFE0
1FFFC0EFFFE0DFE0
1FFFC0EFFFE0DFE0
1FFFE0577750EFE0
1FFFFA55555BFFE0
1FFFFFFFFFFFFFE0
0EFFFFFFFFFFFFC0
08FFFFFFFFFFFF60
01BFFFFFFFFFFA00
0006CEFFFFEB5000
ENDCHAR
STARTCHAR uni020F
ENCODING 527
SWIDTH 578 0
DWIDTH 14 0
BBX 15 23 -1 0
BITMAP
0000001332000000
00002AFFFFE70000
0002EFFFFFFFB000
000AFFFFFFFFF500
000CFF9102DFF700
000AFF4AE59FF500
0003FFFFFFFFC000
0007FFFFFFFF7000
01CFF6100017FB00
09FFD09CCB90EF70
0EFFC0EFFFE0DFC0
1FFFC0EFFFE0DFE0
1FFFC0EFFFE0DFE0
1FFFC0EFFFE0DFE0
1FFFC0EFFFE0DFE0
1FFFC0EFFFE0DFE0
1FFFE0577750EFE0
1FFFFA55555BFFE0
1FFFFFFFFFFFFFE0
0EFFFFFFFFFFFFC0
08FFFFFFFFFFFF60
01BFFFFFFFFFFA00
0006CEFFFFEB5000
ENDCHAR
STARTCHAR uni0210
ENCODING 528
SWIDTH 578 0
DWIDTH 14 0
BBX 15 24 -1 0
BITMAP
0001432420000000
0009FFFFF7000000
002FFFFFFF200000
00AF59E2DFA00000
00BFE3FB6FF30000
002EFA8F6CFB0000
0006FF7EE7FF2000
0000BFFFFFFF2000
0007EFFFFFFF6000
01CFF000004EFB00
09FFF08CCA19FF70
0EFFF0BFFF48FFC0
1FFFF0BFFF39FFE0
1FFFF068863DFFE0
1FFFF023325DFFE0
1FFFF0BFFF48FFE0
1FFFF0BFFF56FFE0
1FFFF0BFFF56FFE0
1FFFF5CFFF89FFE0
1FFFFFFFFFFFFFE0
0EFFFFFFFFFFFFC0
08FFFFFFFFFFFF60
01BFFFFFFFFFFA00
0006CEFFFFEB5000
ENDCHAR
STARTCHAR uni0211
ENCODING 529
SWIDTH 578 0
DWIDTH 14 0
BBX 15 24 -1 0
BITMAP
0001432420000000
0009FFFFF7000000
002FFFFFFF200000
00AF59E2DFA00000
00BFE3FB6FF30000
002EFA8F6CFB0000
0006FF7EE7FF2000
0000BFFFFFFF2000
0007EFFFFFFF6000
01CFF000004EFB00
09FFF08CCA19FF70
0EFFF0BFFF48FFC0
1FFFF0BFFF39FFE0
1FFFF068863DFFE0
1FFFF023325DFFE0
1FFFF0BFFF48FFE0
1FFFF0BFFF56FFE0
1FFFF0BFFF56FFE0
1FFFF5CFFF89FFE0
1FFFFFFFFFFFFFE0
0EFFFFFFFFFFFFC0
08FFFFFFFFFFFF60
01BFFFFFFFFFFA00
0006CEFFFFEB5000
ENDCHAR
STARTCHAR uni0212
ENCODING 530
SWIDTH 578 0
DWIDTH 14 0
BBX 15 23 -1 0
BITMAP
0000001332000000
00002AFFFFE70000
0002EFFFFFFFB000
000AFFFFFFFFF500
000CFF9102DFF700
000AFF4AE59FF500
0003FFFFFFFFC000
0007FFFFFFFF7000
01CFF000004EFB00
09FFF08CCA19FF70
0EFFF0BFFF48FFC0
1FFFF0BFFF39FFE0
1FFFF068863DFFE0
1FFFF023325DFFE0
1FFFF0BFFF48FFE0
1FFFF0BFFF56FFE0
1FFFF0BFFF56FFE0
1FFFF5CFFF89FFE0
1FFFFFFFFFFFFFE0
0EFFFFFFFFFFFFC0
08FFFFFFFFFFFF60
01BFFFFFFFFFFA00
0006CEFFFFEB5000
ENDCHAR
STARTCHAR uni0213
ENCODING 531
SWIDTH 578 0
DWIDTH 14 0
BBX 15 23 -1 0
BITMAP
0000001332000000
00002AFFFFE70000
0002EFFFFFFFB000
000AFFFFFFFFF500
000CFF9102DFF700
000AFF4AE59FF500
0003FFFFFFFFC000
0007FFFFFFFF7000
01CFF000004EFB00
09FFF08CCA19FF70
0EFFF0BFFF48FFC0
1FFFF0BFFF39FFE0
1FFFF068863DFFE0
1FFFF023325DFFE0
1FFFF0BFFF48FFE0
1FFFF0BFFF56FFE0
1FFFF0BFFF56FFE0
1FFFF5CFFF89FFE0
1FFFFFFFFFFFFFE0
0EFFFFFFFFFFFFC0
08FFFFFFFFFFFF60
01BFFFFFFFFFFA00
0006CEFFFFEB5000
ENDCHAR
STARTCHAR uni0214
ENCODING 532
SWIDTH 578 0
DWIDTH 14 0
BBX 15 24 -1 0
BITMAP
0001432420000000
0009FFFFF7000000
002FFFFFFF200000
00AF59E2DFA00000
00BFE3FB6FF30000
002EFA8F6CFB0000
0006FF7EE7FF2000
0000BFFFFFFF2000
0007EFFFFFFF6000
01CFB0FFFFD0EB00
09FFB0FFFFD0EF70
0EFFB0FFFFD0EFC0
1FFFB0FFFFD0EFE0
1FFFB0FFFFD0EFE0
1FFFB0FFFFD0EFE0
1FFFB0FFFFD0EFE0
1FFFB0FFFFC0EFE0
1FFFD0577741FFE0
1FFFFA55556BFFE0
1FFFFFFFFFFFFFE0
0EFFFFFFFFFFFFC0
08FFFFFFFFFFFF60
01BFFFFFFFFFFA00
0006CEFFFFEB5000
ENDCHAR
STARTCHAR uni0215
ENCODING 533
SWIDTH 578 0
DWIDTH 14 0
BBX 15 24 -1 0
BITMAP
0001432420000000
0009FFFFF7000000
002FFFFFFF200000
00AF59E2DFA00000
00BFE3FB6FF30000
002EFA8F6CFB0000
0006FF7EE7FF2000
0000BFFFFFFF2000
0007EFFFFFFF6000
01CFB0FFFFD0EB00
09FFB0FFFFD0EF70
0EFFB0FFFFD0EFC0
1FFFB0FFFFD0EFE0
1FFFB0FFFFD0EFE0
1FFFB0FFFFD0EFE0
1FFFB0FFFFD0EFE0
1FFFB0FFFFC0EFE0
1FFFD0577741FFE0
1FFFFA55556BFFE0
1FFFFFFFFFFFFFE0
0EFFFFFFFFFFFFC0
08FFFFFFFFFFFF60
01BFFFFFFFFFFA00
0006CEFFFFEB5000
ENDCHAR
STARTCHAR uni0216
ENCODING 534
SWIDTH 578 0
DWIDTH 14 0
BBX 15 23 -1 0
BITMAP
0000001332000000
00002AFFFFE70000
0002EFFFFFFFB000
000AFFFFFFFFF500
000CFF9102DFF700
000AFF4AE59FF500
0003FFFFFFFFC000
0007FFFFFFFF7000
01CFB0FFFFD0EB00
09FFB0FFFFD0EF70
0EFFB0FFFFD0EFC0
1FFFB0FFFFD0EFE0
1FFFB0FFFFD0EFE0
1FFFB0FFFFD0EFE0
1FFFB0FFFFD0EFE0
1FFFB0FFFFC0EFE0
1FFFD0577741FFE0
1FFFFA55556BFFE0
1FFFFFFFFFFFFFE0
0EFFFFFFFFFFFFC0
08FFFFFFFFFFFF60
01BFFFFFFFFFFA00
0006CEFFFFEB5000
ENDCHAR
STARTCHAR uni0217
ENCODING 535
SWIDTH 578 0
DWIDTH 14 0
BBX 15 23 -1 0
BITMAP
0000001332000000
00002AFFFFE70000
0002EFFFFFFFB000
000AFFFFFFFFF500
000CFF9102DFF700
000AFF4AE59FF500
0003FFFFFFFFC000
0007FFFFFFFF7000
01CFB0FFFFD0EB00
09FFB0FFFFD0EF70
0EFFB0FFFFD0EFC0
1FFFB0FFFFD0EFE0
1FFFB0FFFFD0EFE0
1FFFB0FFFFD0EFE0
1FFFB0FFFFD0EFE0
1FFFB0FFFFC0EFE0
1FFFD0577741FFE0
1FFFFA55556BFFE0
1FFFFFFFFFFFFFE0
0EFFFFFFFFFFFFC0
08FFFFFFFFFFFF60
01BFFFFFFFFFFA00
0006CEFFFFEB5000
ENDCHAR
STARTCHAR uni0218
ENCODING 536
SWIDTH 578 0
DWIDTH 14 0
BBX 15 17 -1 0
BITMAP
0000001111000000
0007DFFFFFFC6000
01CFFA100018FB00
09FFF26BCCBDFF70
0EFFF1AFFFFFFFC0
1FFFF1AFFFFFFFE0
1FFFF502223BFFE0
1FFFFFB99952FFE0
1FFFFFFFFFA1FFE0
1FFFFFFFFFA1FFE0
1FFFFB677733FFE0
1FFFFB55556CFFE0
1FFFFFFC8CFFFFE0
0EFFFFF909FFFFC0
08FFFFFF3DFFFF60
01BFFFFFAFFFFA00
0006CEFFFFEB5000
ENDCHAR
STARTCHAR uni0219
ENCODING 537
SWIDTH 578 0
DWIDTH 14 0
BBX 15 17 -1 0
BITMAP
0000001111000000
0007DFFFFFFC6000
01CFFA100018FB00
09FFF26BCCBDFF70
0EFFF1AFFFFFFFC0
1FFFF1AFFFFFFFE0
1FFFF502223BFFE0
1FFFFFB99952FFE0
1FFFFFFFFFA1FFE0
1FFFFFFFFFA1FFE0
1FFFFB677733FFE0
1FFFFB55556CFFE0
1FFFFFFC8CFFFFE0
0EFFFFF909FFFFC0
08FFFFFF3DFFFF60
01BFFFFFAFFFFA00
0006CEFFFFEB5000
ENDCHAR
STARTCHAR uni021A
ENCODING 538
SWIDTH 578 0
DWIDTH 14 0
BBX 15 17 -1 0
BITMAP
0000001111000000
0007DFFFFFFC6000
01CFF3000000FB00
09FFFCCB09CCFF70
0EFFFFFF0CFFFFC0
1FFFFFFF0CFFFFE0
1FFFFFFF0CFFFFE0
1FFFFFFF0CFFFFE0
1FFFFFFF0CFFFFE0
1FFFFFFF0CFFFFE0
1FFFFFFF0CFFFFE0
1FFFFFFF5DFFFFE0
1FFFFFFD9CFFFFE0
0EFFFFFB07FFFFC0
08FFFFFF5AFFFF60
01BFFFFF9FFFFA00
0006CEFFFFEB5000
ENDCHAR
STARTCHAR uni021B
ENCODING 539
SWIDTH 578 0
DWIDTH 14 0
BBX 15 17 -1 0
BITMAP
0000001111000000
0007DFFFFFFC6000
01CFF3000000FB00
09FFFCCB09CCFF70
0EFFFFFF0CFFFFC0
1FFFFFFF0CFFFFE0
1FFFFFFF0CFFFFE0
1FFFFFFF0CFFFFE0
1FFFFFFF0CFFFFE0
1FFFFFFF0CFFFFE0
1FFFFFFF0CFFFFE0
1FFFFFFF5DFFFFE0
1FFFFFFD9CFFFFE0
0EFFFFFB07FFFFC0
08FFFFFF5AFFFF60
01BFFFFF9FFFFA00
0006CEFFFFEB5000
ENDCHAR
STARTCHAR circumflex
ENCODING 710
SWIDTH 355 0
DWIDTH 9 0
BBX 9 9 0 0
BITMAP
0027850000
02EFFF9000
09FECFF200
1EF73DF800
7FF3A8FE00
CFA7E2FF50
FF8CF7DF80
EFFFFFFF60
4888888700
ENDCHAR
STARTCHAR caron
ENCODING 711
SWIDTH 355 0
DWIDTH 9 0
BBX 9 8 0 0
BITMAP
2ACA5BC800
DFFFFFFF60
FF7BF6DF80
DFB6E3FF70
AFF3A8FF30
5FF72EFE00
1EFEDFF900
0688888300
ENDCHAR
STARTCHAR breve
ENCODING 728
SWIDTH 428 0
DWIDTH 10 0
BBX 11 7 0 0
BITMAP
018CFFD92000
2DFFFFFFF500
BFFFFFFFFE10
FFF8EF9DFF40
EFF2561DFF30
8FFD88BFFC00
09FFFFFFC200
ENDCHAR
STARTCHAR dotaccent
ENCODING 729
SWIDTH 428 0
DWIDTH 10 0
BBX 11 7 0 0
BITMAP
018CFFD92000
2DFFFFFFF500
BFFFFFFFFE10
FFFF86FFFF40
EFFF75FFFF40
AFFFFFFFFE10
3CCCCCCCC600
ENDCHAR
STARTCHAR ring
ENCODING 730
SWIDTH 368 0
DWIDTH 9 0
BBX 9 8 0 0
BITMAP
0015751000
07FFFFE500
5FFCADFF30
CF9362CF90
FF6AF79FD0
EF8472BFD0
CFFA9BFF90
5FFFFFFF20
ENDCHAR
STARTCHAR ogonek
ENCODING 731
SWIDTH 101 0
DWIDTH 2 0
BBX 3 5 0 -4
BITMAP
0100
5C10
E200
E830
4950
ENDCHAR
STARTCHAR tilde
ENCODING 732
SWIDTH 428 0
DWIDTH 10 0
BBX 11 8 0 0
BITMAP
0027AA840000
07FFFFFFA100
6FFFFFFFFA00
DFFFFFFFFF20
FFFDEFCCFF40
EF811627FF30
AFABE97DFD00
1DFFFFFFF400
ENDCHAR
STARTCHAR hungarumlaut
ENCODING 733
SWIDTH 419 0
DWIDTH 10 0
BBX 10 9 0 0
BITMAP
0001432420
005FFFFFB0
01EFFFFFF4
08FE2DC4FC
1EF89F4DFD
9FE5FA8FF3
FF8DF6FF80
EFFFFFFC00
5888888300
ENDCHAR
STARTCHAR uni030F
ENCODING 783
SWIDTH 419 0
DWIDTH 10 0
BBX 11 9 0 0
BITMAP
014224100000
0AFFFFF60000
3FFFFFFE2000
BF5AE2EF9000
CFD3FA7FF200
2FF99F5DFA00
07FF6FE7FF10
00CFFFFFFF10
002888888600
ENDCHAR
STARTCHAR mu
ENCODING 956
SWIDTH 578 0
DWIDTH 14 0
BBX 15 17 -1 0
BITMAP
0000001111000000
0007DFFFFFFC6000
01CFB0FFFFD0EB00
09FFB0FFFFD0EF70
0EFFB0FFFFD0EFC0
1FFFB0FFFFD0EFE0
1FFFB0FFFFD0EFE0
1FFFB0FFFFD0EFE0
1FFFB0FFFFD0EFE0
1FFFB0FFFFC0EFE0
1FFFB0777741FFE0
1FFFB055556BFFE0
1FFFD8FFFFFFFFE0
0EFFFFFFFFFFFFC0
08FFFFFFFFFFFF60
01BFFFFFFFFFFA00
0006CEFFFFEB5000
ENDCHAR
STARTCHAR pi
ENCODING 960
SWIDTH 578 0
DWIDTH 14 0
BBX 15 17 -1 0
BITMAP
0000001111000000
0007DFFFFFFC6000
01CFFA43437EFB00
09FF65DBBDA3DF70
0EF96F3662CC3FC0
1FF3EF2FF7AF89E0
1FC6FE3FF88FD5E0
1FA8FC13327FE4E0
1FC6FA6FFB5FD5E0
1FF3E97FFD4F89E0
1FF96BCFFE9C3FE0
1FFF65DFFF93DFE0
1FFFFB43337EFFE0
0EFFFFFFFFFFFFC0
08FFFFFFFFFFFF60
01BFFFFFFFFFFA00
0006CEFFFFEB5000
ENDCHAR
STARTCHAR uni1E60
ENCODING 7776
SWIDTH 578 0
DWIDTH 14 0
BBX 15 22 -1 0
BITMAP
000004AEFEC60000
00008FFFFFFFC100
0004FFFFFFFFF800
0007FFFD4BFFFC00
0007FFFD4BFFFC00
0003FFFFFFFFF700
0007FFFFFFFFF100
01CFFA100018FB00
09FFF26BCCBDFF70
0EFFF1AFFFFFFFC0
1FFFF1AFFFFFFFE0
1FFFF502223BFFE0
1FFFFFB99952FFE0
1FFFFFFFFFA1FFE0
1FFFFFFFFFA1FFE0
1FFFFB677733FFE0
1FFFFB55556CFFE0
1FFFFFFFFFFFFFE0
0EFFFFFFFFFFFFC0
08FFFFFFFFFFFF60
01BFFFFFFFFFFA00
0006CEFFFFEB5000
ENDCHAR
STARTCHAR uni1E8E
ENCODING 7822
SWIDTH 578 0
DWIDTH 14 0
BBX 15 22 -1 0
BITMAP
000005BEFEB50000
0000AFFFFFFFA000
0006FFFFFFFFF600
000AFFFC4DFFFA00
0009FFFB4DFFF900
0005FFFFFFFFF500
0007FFFFFFFFF000
01CFF26FFF62FB00
09FFF81FFE19FF70
0EFFFE1AF91EFFC0
1FFFFF64F36FFFE0
1FFFFFC090DFFFE0
1FFFFFF304FFFFE0
1FFFFFFA0BFFFFE0
1FFFFFFD0EFFFFE0
1FFFFFFD0EFFFFE0
1FFFFFFD5EFFFFE0
1FFFFFFFFFFFFFE0
0EFFFFFFFFFFFFC0
08FFFFFFFFFFFF60
01BFFFFFFFFFFA00
0006CEFFFFEB5000
ENDCHAR
STARTCHAR uni1E8F
ENCODING 7823
SWIDTH 578 0
DWIDTH 14 0
BBX 15 22 -1 0
BITMAP
000005BEFEB50000
0000AFFFFFFFA000
0006FFFFFFFFF600
000AFFFC4DFFFA00
0009FFFB4DFFF900
0005FFFFFFFFF500
0007FFFFFFFFF000
01CFF26FFF62FB00
09FFF81FFE19FF70
0EFFFE1AF91EFFC0
1FFFFF64F36FFFE0
1FFFFFC090DFFFE0
1FFFFFF304FFFFE0
1FFFFFFA0BFFFFE0
1FFFFFFD0EFFFFE0
1FFFFFFD0EFFFFE0
1FFFFFFD5EFFFFE0
1FFFFFFFFFFFFFE0
0EFFFFFFFFFFFFC0
08FFFFFFFFFFFF60
01BFFFFFFFFFFA00
0006CEFFFFEB5000
ENDCHAR
STARTCHAR uni1EBC
ENCODING 7868
SWIDTH 578 0
DWIDTH 14 0
BBX 15 23 -1 0
BITMAP
00000069A9610000
00003DFFFFFE4000
0001EFFFFFFFE200
0007FFFFFFFFF800
0009FFEEFEAFFB00
0008FE02351FFA00
0004FD8FC8AFF500
0007FFFFFFFFF000
01CFFB000008FB00
09FFFB1CCCCDFF70
0EFFFB1FFFFFFFC0
1FFFFB1FFFFFFFE0
1FFFFB04445FFFE0
1FFFFB08889FFFE0
1FFFFB1FFFFFFFE0
1FFFFB1FFFFFFFE0
1FFFFB07777AFFE0
1FFFFC555559FFE0
1FFFFFFFFFFFFFE0
0EFFFFFFFFFFFFC0
08FFFFFFFFFFFF60
01BFFFFFFFFFFA00
0006CEFFFFEB5000
ENDCHAR
STARTCHAR uni1EF8
ENCODING 7928
SWIDTH 578 0
DWIDTH 14 0
BBX 15 23 -1 0
BITMAP
00000169A9610000
00003DFFFFFD3000
0001EFFFFFFFE100
0007FFFFFFFFF700
000AFFEEFEBFFA00
0009FD02452FF900
0004FD9FC8AFF400
0007FFFFFFFFF000
01CFF26FFF62FB00
09FFF81FFE19FF70
0EFFFE1AF91EFFC0
1FFFFF64F36FFFE0
1FFFFFC090DFFFE0
1FFFFFF304FFFFE0
1FFFFFFA0BFFFFE0
1FFFFFFD0EFFFFE0
1FFFFFFD0EFFFFE0
1FFFFFFD5EFFFFE0
1FFFFFFFFFFFFFE0
0EFFFFFFFFFFFFC0
08FFFFFFFFFFFF60
01BFFFFFFFFFFA00
0006CEFFFFEB5000
ENDCHAR
STARTCHAR uni1EF9
ENCODING 7929
SWIDTH 578 0
DWIDTH 14 0
BBX 15 23 -1 0
BITMAP
00000169A9610000
00003DFFFFFD3000
0001EFFFFFFFE100
0007FFFFFFFFF700
000AFFEEFEBFFA00
0009FD02452FF900
0004FD9FC8AFF400
0007FFFFFFFFF000
01CFF26FFF62FB00
09FFF81FFE19FF70
0EFFFE1AF91EFFC0
1FFFFF64F36FFFE0
1FFFFFC090DFFFE0
1FFFFFF304FFFFE0
1FFFFFFA0BFFFFE0
1FFFFFFD0EFFFFE0
1FFFFFFD0EFFFFE0
1FFFFFFD5EFFFFE0
1FFFFFFFFFFFFFE0
0EFFFFFFFFFFFFC0
08FFFFFFFFFFFF60
01BFFFFFFFFFFA00
0006CEFFFFEB5000
ENDCHAR
STARTCHAR endash
ENCODING 8211
SWIDTH 428 0
DWIDTH 10 0
BBX 12 16 -1 0
BITMAP
0007DFFE9200
01CFFFFFFE30
09FFFFFFFFC0
0EFFFFFFFFF3
1FFE0000AFF5
1FFFCCCCEFF5
1FFFFFFFFFF5
1FFFFFFFFFF5
1FFFFFFFFFF5
1FFFFFFFFFF5
1FFFFFFFFFF5
1FFFFFFFFFF5
0EFFFFFFFFF3
08FFFFFFFFC0
01BFFFFFFE20
0006CEFD8100
ENDCHAR
STARTCHAR emdash
ENCODING 8212
SWIDTH 428 0
DWIDTH 10 0
BBX 12 16 -1 0
BITMAP
0006DFFE9100
00BFFFFFFE30
08FFFFFFFFC0
0DFFFFFFFFF3
000000000000
1CCCCCCCCCC4
1FFFFFFFFFF5
1FFFFFFFFFF5
1FFFFFFFFFF5
1FFFFFFFFFF5
1FFFFFFFFFF5
1FFFFFFFFFF5
0EFFFFFFFFF3
08FFFFFFFFC0
01BFFFFFFE20
0006CEFD8100
ENDCHAR
STARTCHAR quoteleft
ENCODING 8216
SWIDTH 428 0
DWIDTH 10 0
BBX 12 16 -1 0
BITMAP
0007DFFE9200
01CFFD5FFE30
09FFF64EFFC0
0EFFF60DFFF3
1FFFFFFFFFF5
1FFFFFFFFFF5
1FFFFFFFFFF5
1FFFFFFFFFF5
1FFFFFFFFFF5
1FFFFFFFFFF5
1FFFFFFFFFF5
1FFFFFFFFFF5
0EFFFFFFFFF3
08FFFFFFFFC0
01BFFFFFFE20
0006CEFD8100
ENDCHAR
STARTCHAR quoteright
ENCODING 8217
SWIDTH 428 0
DWIDTH 10 0
BBX 12 16 -1 0
BITMAP
0007DFFE9200
01CFF60DFE30
09FFFA0EFFC0
0EFFFD5FFFF3
1FFFFFFFFFF5
1FFFFFFFFFF5
1FFFFFFFFFF5
1FFFFFFFFFF5
1FFFFFFFFFF5
1FFFFFFFFFF5
1FFFFFFFFFF5
1FFFFFFFFFF5
0EFFFFFFFFF3
08FFFFFFFFC0
01BFFFFFFE20
0006CEFD8100
ENDCHAR
STARTCHAR quotesinglbase
ENCODING 8218
SWIDTH 428 0
DWIDTH 10 0
BBX 12 16 -1 0
BITMAP
0007DFFE9200
01CFFFFFFE30
09FFFFFFFFC0
0EFFFFFFFFF3
1FFFFFFFFFF5
1FFFFFFFFFF5
1FFFFFFFFFF5
1FFFFFFFFFF5
1FFFFFFFFFF5
1FFFF73DFFF5
1FFFF90DFFF5
1FFFFD4FFFF5
0EFFFFEFFFF3
08FFFFFFFFC0
01BFFFFFFE20
0006CEFD8100
ENDCHAR
STARTCHAR quotedblleft
ENCODING 8220
SWIDTH 428 0
DWIDTH 10 0
BBX 12 16 -1 0
BITMAP
0007DFFE9200
01CFA8C6FE30
09FF4564EFC0
0EFF3050DFF3
1FFFFFFFFFF5
1FFFFFFFFFF5
1FFFFFFFFFF5
1FFFFFFFFFF5
1FFFFFFFFFF5
1FFFFFFFFFF5
1FFFFFFFFFF5
1FFFFFFFFFF5
0EFFFFFFFFF3
08FFFFFFFFC0
01BFFFFFFE20
0006CEFD8100
ENDCHAR
STARTCHAR quotedblright
ENCODING 8221
SWIDTH 428 0
DWIDTH 10 0
BBX 12 16 -1 0
BITMAP
0007DFFE9200
01CF70609E30
09FFB192AFC0
0EFFE5F4FFF3
1FFFFFFFFFF5
1FFFFFFFFFF5
1FFFFFFFFFF5
1FFFFFFFFFF5
1FFFFFFFFFF5
1FFFFFFFFFF5
1FFFFFFFFFF5
1FFFFFFFFFF5
0EFFFFFFFFF3
08FFFFFFFFC0
01BFFFFFFE20
0006CEFD8100
ENDCHAR
STARTCHAR quotedblbase
ENCODING 8222
SWIDTH 428 0
DWIDTH 10 0
BBX 12 16 -1 0
BITMAP
0007DFFE9200
01CFFFFFFE30
09FFFFFFFFC0
0EFFFFFFFFF3
1FFFFFFFFFF5
1FFFFFFFFFF5
1FFFFFFFFFF5
1FFFFFFFFFF5
1FFFFFFFFFF5
1FFF8373AFF5
1FFF9181AFF5
1FFFE3F2EFF5
0EFFFEFEFFF3
08FFFFFFFFC0
01BFFFFFFE20
0006CEFD8100
ENDCHAR
STARTCHAR dagger
ENCODING 8224
SWIDTH 578 0
DWIDTH 14 0
BBX 15 17 -1 0
BITMAP
0000001111000000
0007DFFFFFFC6000
01CFFFFF0CFFFB00
09FFFFED0BEFFF70
0EFFFF60003FFFC0
1FFFFFEC0ADFFFE0
1FFFFFFF0CFFFFE0
1FFFFFFF0CFFFFE0
1FFFFFFF0CFFFFE0
1FFFFFFF0CFFFFE0
1FFFFFFF0CFFFFE0
1FFFFFFF5DFFFFE0
1FFFFFFFFFFFFFE0
0EFFFFFFFFFFFFC0
08FFFFFFFFFFFF60
01BFFFFFFFFFFA00
0006CEFFFFEB5000
ENDCHAR
STARTCHAR daggerdbl
ENCODING 8225
SWIDTH 578 0
DWIDTH 14 0
BBX 15 17 -1 0
BITMAP
0000001111000000
0007DFFFFFFC6000
01CFFFFF0CFFFB00
09FFFFED0BEFFF70
0EFFFF60003FFFC0
1FFFFFEC0ADFFFE0
1FFFFFFF0CFFFFE0
1FFFFFFF0CFFFFE0
1FFFFFDB09CFFFE0
1FFFFF60003FFFE0
1FFFFFFE0CFFFFE0
1FFFFFFF5DFFFFE0
1FFFFFFFFFFFFFE0
0EFFFFFFFFFFFFC0
08FFFFFFFFFFFF60
01BFFFFFFFFFFA00
0006CEFFFFEB5000
ENDCHAR
STARTCHAR bullet
ENCODING 8226
SWIDTH 578 0
DWIDTH 14 0
BBX 15 17 -1 0
BITMAP
0000001111000000
0007DFFFFFFC6000
01CFFFFFFFFFFB00
09FFFC41126EFF70
0EFFF1000005FFC0
1FFFD0000001FFE0
1FFFC0000001FFE0
1FFFC0000001FFE0
1FFFC0000001FFE0
1FFFE0000003FFE0
1FFFF800001BFFE0
1FFFFFECCCEFFFE0
1FFFFFFFFFFFFFE0
0EFFFFFFFFFFFFC0
08FFFFFFFFFFFF60
01BFFFFFFFFFFA00
0006CEFFFFEB5000
ENDCHAR
STARTCHAR ellipsis
ENCODING 8230
SWIDTH 578 0
DWIDTH 14 0
BBX 15 17 -1 0
BITMAP
0000001111000000
0007DFFFFFFC6000
01CFFFFFFFFFFB00
09FFFFFFFFFFFF70
0EFFFFFFFFFFFFC0
1FFFFFFFFFFFFFE0
1FFFFFFFFFFFFFE0
1FFFFFFFFFFFFFE0
1FFFFFFFFFFFFFE0
1FFFFFFFFFFFFFE0
1FFF47F38E39FFE0
1FFF59F59E5AFFE0
1FFFFFFFFFFFFFE0
0EFFFFFFFFFFFFC0
08FFFFFFFFFFFF60
01BFFFFFFFFFFA00
0006CEFFFFEB5000
ENDCHAR
STARTCHAR perthousand
ENCODING 8240
SWIDTH 640 0
DWIDTH 15 0
BBX 17 17 -1 0
BITMAP
000000111111000000
0007DFFFFFFFE92000
01BAAEFBEFFFFFE400
082115E0BFFFFFFD00
0D0D93A1FFFFFFFF40
1F132455FFFFFFFF60
1FC78E1AFFFFFFFF60
1FFFFC0D758FB56C60
1FFFF748270A154260
1FFFF3874E290B9160
1FFFE0DB101D500660
1FFFFEFFECEFFDDF60
1FFFFFFFFFFFFFFF60
0EFFFFFFFFFFFFFF40
08FFFFFFFFFFFFFD00
01BFFFFFFFFFFFE300
0006CEFFFFFFD92000
ENDCHAR
STARTCHAR guilsinglleft
ENCODING 8249
SWIDTH 578 0
DWIDTH 14 0
BBX 15 17 -1 0
BITMAP
0000001111000000
0007DFFFFFFC6000
01CFFFFFFFFFFB00
09FFFFFFF5CFFF70
0EFFFFFF83FFFFC0
1FFFFFFB1DFFFFE0
1FFFFFE2BFFFFFE0
1FFFFF66FFFFFFE0
1FFFFFB1DFFFFFE0
1FFFFFF83FFFFFE0
1FFFFFFF57FFFFE0
1FFFFFFFE2CFFFE0
1FFFFFFFFDFFFFE0
0EFFFFFFFFFFFFC0
08FFFFFFFFFFFF60
01BFFFFFFFFFFA00
0006CEFFFFEB5000
ENDCHAR
STARTCHAR guilsinglright
ENCODING 8250
SWIDTH 578 0
DWIDTH 14 0
BBX 15 17 -1 0
BITMAP
0000001111000000
0007DFFFFFFC6000
01CFFFFFFFFFFB00
09FFFFA7FFFFFF70
0EFFFFE2BFFFFFC0
1FFFFFFB2EFFFFE0
1FFFFFFF65FFFFE0
1FFFFFFFE1BFFFE0
1FFFFFFFA2EFFFE0
1FFFFFFD1CFFFFE0
1FFFFFF48FFFFFE0
1FFFFFA4FFFFFFE0
1FFFFFEEFFFFFFE0
0EFFFFFFFFFFFFC0
08FFFFFFFFFFFF60
01BFFFFFFFFFFA00
0006CEFFFFEB5000
ENDCHAR
STARTCHAR fraction
ENCODING 8260
SWIDTH 428 0
DWIDTH 10 0
BBX 12 16 -1 0
BITMAP
0007DFFE9200
01CFFF38FE30
09FFFF1AFFC0
0EFFFD0DFFF3
1FFFFB0FFFF5
1FFFF83FFFF5
1FFFF65FFFF5
1FFFF38FFFF5
1FFFF1AFFFF5
1FFFD0DFFFF5
1FFFC5FFFFF5
1FFFFFFFFFF5
0EFFFFFFFFF3
08FFFFFFFFC0
01BFFFFFFE20
0006CEFD8100
ENDCHAR
STARTCHAR Euro
ENCODING 8364
SWIDTH 578 0
DWIDTH 14 0
BBX 15 17 -1 0
BITMAP
0000001111000000
0007DFFFFFFC6000
01CFF400003FFA00
09FFB0BCCBBFFF60
0EFFA1FFFFFFFFC0
1FF610115FFFFFE0
1FFD81CCDFFFFFE0
1FF830447FFFFFE0
1FFB6199BFFFFFE0
1FFFA1FFFFFFFFE0
1FFFC067777FFFE0
1FFFF955557FFFE0
1FFFFFFFFFFFFFE0
0EFFFFFFFFFFFFC0
08FFFFFFFFFFFF60
01BFFFFFFFFFFA00
0006CEFFFFEB5000
ENDCHAR
STARTCHAR trademark
ENCODING 8482
SWIDTH 578 0
DWIDTH 14 0
BBX 15 17 -1 0
BITMAP
0000001111000000
0007DFFFFFFC6000
01CFFFFFFFFFFB00
09FFFFFFFFFFFF70
0EFFFFFFFFFFFFC0
1FFFEDDEFFEFFFE0
1FFF71366E1CFFE0
1FFFF4E7131CFFE0
1FFFF4E7514CFFE0
1FFFFBECDBBEFFE0
1FFFFFFFFFFFFFE0
1FFFFFFFFFFFFFE0
1FFFFFFFFFFFFFE0
0EFFFFFFFFFFFFC0
08FFFFFFFFFFFF60
01BFFFFFFFFFFA00
0006CEFFFFEB5000
ENDCHAR
STARTCHAR product
ENCODING 8719
SWIDTH 578 0
DWIDTH 14 0
BBX 15 17 -1 0
BITMAP
0000001111000000
0007DFFFFFFC6000
01CFFA43437EFB00
09FF65EFFFA3DF70
0EF96F8444AC3FC0
1FF3EF5ADD2F89E0
1FC6FF5CFF2FD5E0
1FA8FF59BA2FE4E0
1FC6FF5566BFD5E0
1FF3EF5CFFFF89E0
1FF96F5CFFFC3FE0
1FFF65DFFF93DFE0
1FFFFB43337EFFE0
0EFFFFFFFFFFFFC0
08FFFFFFFFFFFF60
01BFFFFFFFFFFA00
0006CEFFFFEB5000
ENDCHAR
STARTCHAR minus
ENCODING 8722
SWIDTH 428 0
DWIDTH 10 0
BBX 12 16 -1 0
BITMAP
0007DFFE9200
01CFFFFFFE30
09FFFFFFFFC0
0EFFFFFFFFF3
1FFE0000AFF5
1FFFCCCCEFF5
1FFFFFFFFFF5
1FFFFFFFFFF5
1FFFFFFFFFF5
1FFFFFFFFFF5
1FFFFFFFFFF5
1FFFFFFFFFF5
0EFFFFFFFFF3
08FFFFFFFFC0
01BFFFFFFE20
0006CEFD8100
ENDCHAR
STARTCHAR notequal
ENCODING 8800
SWIDTH 578 0
DWIDTH 14 0
BBX 15 17 -1 0
BITMAP
0000001111000000
0007DFFFFFFC6000
01CFFFFFFEFFFB00
09FFFFFF92FFFF70
0EFFC666136DFFC0
1FFFC663166DFFE0
1FFFDAA25AAEFFE0
1FFFA100111CFFE0
1FFFFF37FFFFFFE0
1FFFFFCEFFFFFFE0
1FFFFFFFFFFFFFE0
1FFFFFFFFFFFFFE0
1FFFFFFFFFFFFFE0
0EFFFFFFFFFFFFC0
08FFFFFFFFFFFF60
01BFFFFFFFFFFA00
0006CEFFFFEB5000
ENDCHAR
STARTCHAR uni2706
ENCODING 9990
SWIDTH 578 0
DWIDTH 14 0
BBX 15 17 -1 0
BITMAP
0000001111000000
0007DFFEEFFC6000
01CFFFFE69FFFB00
09FFFFFB7AAFFF70
0EFFFFC8A77FFFC0
1FFFF82C867FFFE0
1FFFF157FDBFFFE0
1FFFF14FFFFFFFE0
1FFFF41FFFFFFFE0
1FFFFB07FFFFFFE0
1FFFFF6066AFFFE0
1FFFFFF6052EFFE0
1FFFFFFFC7AFFFE0
0EFFFFFFFFFFFFC0
08FFFFFFFFFFFF60
01BFFFFFFFFFFA00
0006CEFFFFEB5000
ENDCHAR
STARTCHAR uni2708
ENCODING 9992
SWIDTH 578 0
DWIDTH 14 0
BBX 15 17 -1 0
BITMAP
0000001111000000
0007876666786000
019200686A003800
07100008D1000260
0700100390000070
17009813906B1070
170008FACDC10070
1700007FFB100070
17000007C0000070
17000006A0000070
1700000590000070
1700000150000070
1700000000000070
08000009B1000080
0710000FF4000360
0193000570003800
0006877777785000
ENDCHAR
STARTCHAR uniF6D6
ENCODING 63190
SWIDTH 419 0
DWIDTH 10 0
BBX 11 9 0 0
BITMAP
014224100000
0AFFFFF60000
3FFFFFFE2000
BF5AE2EF9000
CFD3FA7FF200
2FF99F5DFA00
07FF6FE7FF10
00CFFFFFFF10
002888888600
ENDCHAR
STARTCHAR uFFFF2
ENCODING 1048562
SWIDTH 578 0
DWIDTH 14 0
BBX 15 17 -1 0
BITMAP
0000001111000000
0007876666786000
0192000150003800
0710000590000260
07000006A0000070
17000008C0000070
1700007FFB100070
170008EACDC10070
17009813905B1070
1700100390000070
17000008D1000070
1700006769000070
1700000000000070
08000009B1000080
0710000FF4000360
0193000570003800
0006877777785000
ENDCHAR
STARTCHAR uFFFF3
ENCODING 1048563
SWIDTH 578 0
DWIDTH 14 0
BBX 15 17 -1 0
BITMAP
0000001111000000
0007876666786000
0192000080003800
07100000F8000260
07000240FA800070
170004E5F4E20070
1700005EFD400070
17000008F6000070
1700004EFE300070
170004E5F5E20070
17000240FAB10070
17000000FA000070
1700000090000070
0800000000000080
0710000000000360
0193000000003800
0006877777785000
ENDCHAR
STARTCHAR uFFFF4
ENCODING 1048564
SWIDTH 578 0
DWIDTH 14 0
BBX 15 17 -1 0
BITMAP
0000001111000000
0007DFFFFFFC6000
01CFFFFFFFFFFB00
09FFFFFD4FFFFF70
0EFFFD7D4C8FFFC0
1FFFF3BD4F59FFE0
1FFFB6FD4FE3FFE0
1FFF98FE9FF2FFE0
1FFFA5FFFFE2FFE0
1FFFF3AFFE49FFE0
1FFFFD33528FFFE0
1FFFFFFCBEFFFFE0
1FFFFFFFFFFFFFE0
0EFFFFFFFFFFFFC0
08FFFFFFFFFFFF60
01BFFFFFFFFFFA00
0006CEFFFFEB5000
ENDCHAR
STARTCHAR uFFFF5
ENCODING 1048565
SWIDTH 578 0
DWIDTH 14 0
BBX 15 17 -1 0
BITMAP
0000001111000000
0007DFFFFFFC6000
01CFFF9795FFFB00
09FFFFF72EFFFF70
0EFFEFFC6FFFFFC0
1FFF67EC6F94EFE0
1FFFF705323EFFE0
1FFFFF8004EFFFE0
1FFFFFF83FFFFFE0
1FFFFFF95FFFFFE0
1FFFFFFA6FFFFFE0
1FFFFFFEAFFFFFE0
1FFFFFFFFFFFFFE0
0EFFFFF64EFFFFC0
08FFFFF00BFFFF60
01BFFFFA8FFFFA00
0006CEFFFFEB5000
ENDCHAR
STARTCHAR uFFFF6
ENCODING 1048566
SWIDTH 578 0
DWIDTH 14 0
BBX 15 17 -1 0
BITMAP
0000001111000000
0007DFFFFFFC6000
01CFFFFEAFFFFB00
09FFFFFA6FFFFF70
0EFFFFF95FFFFFC0
1FFFFFF73FFFFFE0
1FFFFF8004EFFFE0
1FFFF714323EFFE0
1FFF67EA8F94EFE0
1FFFFFFA8FFFFFE0
1FFFFFF53EFFFFE0
1FFFFF9896FFFFE0
1FFFFFFFFFFFFFE0
0EFFFFF64EFFFFC0
08FFFFF00BFFFF60
01BFFFFA8FFFFA00
0006CEFFFFEB5000
ENDCHAR
STARTCHAR uFFFF8
ENCODING 1048568
SWIDTH 578 0
DWIDTH 14 0
BBX 15 17 -1 0
BITMAP
0000001111000000
0007DFFFFFFC6000
01CFFFFFFFFFFB00
09FFFFB22AFFFF70
0EFFFF7875FFFFC0
1FFFFD4333CFFFE0
1FFFF733535FFFE0
1FFFE4F62F7DFFE0
1FFFB1920939FFE0
1FFFB0000009FFE0
1FFFE100000CFFE0
1FFFFA00007FFFE0
1FFFFFD88CFFFFE0
0EFFFFF55FFFFFC0
08FFFFD00DFFFF60
01BFFFF99FFFFA00
0006CEFFFFEB5000
ENDCHAR
STARTCHAR uFFFF9
ENCODING 1048569
SWIDTH 578 0
DWIDTH 14 0
BBX 15 17 -1 0
BITMAP
0000001111000000
0007876666786000
0192000000003800
07100002B0000260
07000282B3700070
17000C42B0A60070
17004902B01C0070
17006701600D0070
17005A00001D0070
17000C5001B60070
170002CCAD700070
1700000341000070
1700000000000070
0800000000000080
0710000000000360
0193000000003800
0006877777785000
ENDCHAR
STARTCHAR uFFFFB
ENCODING 1048571
SWIDTH 578 0
DWIDTH 14 0
BBX 15 17 -1 0
BITMAP
0000001111000000
0007DFFEFFFC6000
01CFFFF88FFFFB00
09FFFFF808FFFF70
0EFFF4B8738FFFC0
1FFFF91452AFFFE0
1FFFFF900AFFFFE0
1FFFFFC11DFFFFE0
1FFFFC1322DFFFE0
1FFFF3A8744FFFE0
1FFFFEF813EFFFE0
1FFFFFF84EFFFFE0
1FFFFFFCFFFFFFE0
0EFFFFFFFFFFFFC0
08FFFFFFFFFFFF60
01BFFFFFFFFFFA00
0006CEFFFFEB5000
ENDCHAR
STARTCHAR uFFFFC
ENCODING 1048572
SWIDTH 578 0
DWIDTH 14 0
BBX 15 17 -1 0
BITMAP
0000001111000000
0007DFFFFFFC6000
01CFFEA779DFFB00
09FF81256405EF70
0EF53CC98AD61DC0
1FFBC337752ABEE0
1FFF9AB769C6FFE0
1FFFF928943FFFE0
1FFFFEEA6FEFFFE0
1FFFFFF40DFFFFE0
1FFFFFFEBFFFFFE0
1FFFFFFFFFFFFFE0
1FFFFFFFFFFFFFE0
0EFFFFFFFFFFFFC0
08FFFFFFFFFFFF60
01BFFFFFFFFFFA00
0006CEFFFFEB5000
ENDCHAR
STARTCHAR uFFFFD
ENCODING 1048573
SWIDTH 578 0
DWIDTH 14 0
BBX 15 17 -1 0
BITMAP
0000001111000000
0007DFFFFFFC6000
01CFFFFBBEFFFB00
09FFFC2001AFFF70
0EFFF200000DFFC0
1FFFC0000009FFE0
1FFFA0510518FFE0
1FFFD4F62F7BFFE0
1FFFF663365FFFE0
1FFFFC2451AFFFE0
1FFFFF8547FFFFE0
1FFFFF8457FFFFE0
1FFFFFFCCFFFFFE0
0EFFFFF55FFFFFC0
08FFFFD00DFFFF60
01BFFFF99FFFFA00
0006CEFFFFEB5000
ENDCHAR
STARTCHAR uFFFFE
ENCODING 1048574
SWIDTH 578 0
DWIDTH 14 0
BBX 15 17 -1 0
BITMAP
0000001111000000
0007DFFFFFFC6000
01CFEEEFFEEEFB00
09F81226A1224F70
0EF4CFE26AFF1FC0
1FF5AEC36AFF1FE0
1FFA12286AFF1FE0
1FF5CFE26AFF1FE0
1FF4BFE26AFF1FE0
1FF91117A1115FE0
1FFFFFFFFFFFFFE0
1FFFFFFFFFFFFFE0
1FFFFFFFFFFFFFE0
0EFFFFFFFFFFFFC0
08FFFFFFFFFFFF60
01BFFFFFFFFFFA00
0006CEFFFFEB5000
ENDCHAR
STARTCHAR uFFFFF
ENCODING 1048575
SWIDTH 578 0
DWIDTH 14 0
BBX 15 17 -1 0
BITMAP
0000001111000000
0007876666786000
0192000441003800
071003DFFE500260
07000DFFFFF20070
17003FFFFFF60070
17005FAEFAE70070
17002B09D0840070
1700099CC9A00070
170003DBAE500070
1700007AB9000070
1700007BA8000070
1700000330000070
0800000AA0000080
0710002FF2000360
0193000660003800
0006877777785000
ENDCHAR
STARTCHAR .notdef
ENCODING -1
SWIDTH 1000 0
DWIDTH 24 0
BBX 1 1 0 0
BITMAP
00
ENDCHAR
STARTCHAR glyph1
ENCODING -1
SWIDTH 0 0
DWIDTH 0 0
BBX 1 1 0 0
BITMAP
00
ENDCHAR
ENDFONT
